<svg xmlns="http://www.w3.org/2000/svg" width="126" height="126" viewBox="0 0 126 126"><path d="M120.353 85.088l.016-.008-.244-.438-.174-.468c-2.888 1.074-5.478 1.013-7.917-.184-7.797-3.83-12.358-18.478-16.77-32.645C91 37.643 86.972 24.7 80.184 22.857c-2.775-.755-5.74.35-9.064 3.382-4.778 4.55-9.232 14.32-13.54 23.768-5.142 11.28-10.46 22.943-15.573 23.424-3.446.344-6.995-4.27-10.74-9.133-6.26-8.13-14.054-18.25-25.66-10.946l.23.365c-.085.057-.168.104-.252.164l.24.34c-.087.065-.173.12-.26.188l.25.316c-.09.074-.18.136-.268.213l.254.294c-.09.082-.18.15-.27.235l.687.727c2.635-2.484 5.09-3.456 7.498-2.976 6.335 1.266 11.46 12.706 15.98 22.8C34.26 86.215 38.217 95.05 43.24 95.05c.11 0 .222-.004.334-.013 7.147-.554 9.792-10.112 12.855-21.18 2.172-7.853 4.635-16.753 9.09-23.108 3.963-5.41 7.5-7.907 10.817-7.63 5.937.495 10.636 9.832 15.61 19.718 5.27 10.468 10.718 21.292 18.524 23.69 3.11.957 6.428.474 9.862-1.43l.005-.003c.005-.003.01-.005.016-.01zm-90.29-14.476c4.387 7.786 8.158 14.507 12.774 14.122 6.434-.546 10.442-11.37 14.686-22.826 3.227-8.712 6.564-17.72 11.146-23.053 3.447-4.012 6.49-5.736 9.29-5.266 6.007 1.003 10.36 11.947 14.968 23.533 2.54 6.386 5.128 12.874 8.13 18.122-2.81-4.605-5.326-10.21-7.8-15.73-4.923-10.98-9.573-21.354-16.07-22.144-3.406-.417-6.97 1.814-10.88 6.816-4.666 5.972-7.537 14.824-10.312 23.385-3.473 10.71-6.752 20.826-12.87 21.32-4.2.36-8.17-7.588-12.356-15.984-1.76-3.528-3.542-7.097-5.426-10.274 1.656 2.556 3.22 5.326 4.718 7.98zm-6.25-11.914c2.313 2.75 4.444 6.018 6.448 9.103 4.244 6.53 7.917 12.163 12.21 11.782 6.055-.54 10.656-11.662 15.527-23.435 3.74-9.035 7.604-18.378 12.24-23.236 3.228-3.38 6.054-4.753 8.65-4.195 6.095 1.31 10.255 13.104 14.66 25.59 2.21 6.27 4.457 12.634 7.05 18.012-2.417-4.7-4.595-10.17-6.74-15.563-4.715-11.855-9.17-23.053-15.73-24.15-3.177-.53-6.52 1.3-10.217 5.6-4.7 5.468-8.067 14.563-11.325 23.358-4.13 11.15-8.032 21.685-13.833 22.177-3.943.332-7.774-6.442-11.82-13.617-2.194-3.895-4.533-8.035-7.12-11.425zm6.662 6.212c4.088 5.31 7.61 9.898 11.626 9.52 5.69-.537 10.888-11.937 16.39-24.006 4.268-9.362 8.68-19.042 13.31-23.452 3.044-2.775 5.7-3.804 8.12-3.15 6.26 1.7 10.21 14.388 14.392 27.823 2 6.428 4.034 12.95 6.4 18.56-2.24-4.952-4.246-10.63-6.222-16.23-4.5-12.76-8.752-24.81-15.395-26.237-2.96-.635-6.095.83-9.58 4.484-4.767 4.993-8.67 14.424-12.442 23.544C52.32 67.25 47.833 78.1 42.38 78.586c-3.694.34-7.383-5.334-11.28-11.332-2.568-3.95-5.334-8.195-8.472-11.336 2.848 2.505 5.41 5.828 7.847 8.992zM76.42 42.127c-3.684-.308-7.522 2.32-11.713 8.043-4.56 6.504-7.047 15.493-9.242 23.424-2.962 10.705-5.52 19.95-11.968 20.448-4.478.346-8.564-8.774-12.89-18.432-1.322-2.952-2.657-5.93-4.038-8.73 1.14 2.135 2.24 4.336 3.304 6.47 4.42 8.866 8.252 16.552 12.978 16.55.117 0 .235-.004.354-.013 6.783-.55 10.008-10.494 13.74-22.01 2.75-8.477 5.593-17.244 10.15-23.076 3.675-4.7 6.943-6.805 9.973-6.437 5.934.722 10.472 10.844 15.276 21.56 2.743 6.12 5.54 12.335 8.753 17.244-2.96-4.26-5.633-9.56-8.26-14.776-5.104-10.142-9.926-19.723-16.42-20.263z"/></svg>