<svg xmlns="http://www.w3.org/2000/svg" width="126" height="126" viewBox="0 0 126 126"><path d="M92.602 52.705l-3.335 5.367c-.636-.275-1.335-.43-2.072-.43-.515 0-1.01.078-1.482.217l-3.288-5.9c-.884.35-1.727.802-2.506 1.36l3.382 6.07c-.832.927-1.342 2.147-1.342 3.488 0 2.887 2.348 5.236 5.235 5.236s5.236-2.35 5.236-5.236c0-1.11-.348-2.137-.94-2.984l3.396-5.46c-.695-.67-1.46-1.253-2.284-1.73zM87.194 66.24c-1.853 0-3.36-1.508-3.36-3.36s1.507-3.362 3.36-3.362c1.854 0 3.362 1.508 3.362 3.36s-1.508 3.362-3.362 3.362zM98.958 47.88l8.84-14.22c.46.132.945.207 1.448.207 2.887 0 5.235-2.35 5.235-5.236 0-2.886-2.347-5.234-5.234-5.234s-5.236 2.35-5.236 5.235c0 1.356.522 2.59 1.37 3.52l-8.76 14.094c.816.485 1.597 1.033 2.338 1.637zm10.288-22.61c1.853 0 3.36 1.508 3.36 3.36 0 1.855-1.507 3.363-3.36 3.363-1.854 0-3.36-1.508-3.36-3.362-.002-1.852 1.506-3.36 3.36-3.36zM70.198 40.263c.324.063.657.1 1 .1.48 0 .946-.072 1.39-.194l3.622 6.5c.8-.522 1.632-.986 2.496-1.38l-3.68-6.604c.87-.935 1.407-2.185 1.407-3.56 0-2.887-2.35-5.235-5.236-5.235s-5.235 2.35-5.235 5.236c0 1.52.655 2.888 1.694 3.846L55.884 63.525c-.468-.138-.962-.215-1.476-.215-.494 0-.97.073-1.423.202L42.428 43.997c.715-.896 1.146-2.028 1.146-3.26 0-2.887-2.348-5.236-5.235-5.236s-5.237 2.35-5.237 5.237c0 .546.085 1.074.242 1.57l-19.893 12.39c-.93-.845-2.16-1.366-3.515-1.366-2.887 0-5.235 2.35-5.235 5.237s2.35 5.235 5.235 5.235c2.887 0 5.236-2.348 5.236-5.235 0-.504-.076-.99-.21-1.452l19.952-12.428c.918.798 2.115 1.285 3.425 1.285.615 0 1.202-.112 1.75-.308l10.467 19.348c-.856.932-1.383 2.17-1.383 3.533 0 2.887 2.35 5.236 5.235 5.236 2.886 0 5.235-2.348 5.235-5.235 0-1.337-.508-2.555-1.336-3.482l11.888-24.8zm1-8.5c1.853 0 3.36 1.51 3.36 3.362 0 1.854-1.508 3.36-3.36 3.36s-3.362-1.507-3.362-3.36 1.508-3.36 3.36-3.36zM9.937 61.93c-1.854 0-3.362-1.508-3.362-3.36 0-1.855 1.508-3.362 3.36-3.362 1.855 0 3.363 1.508 3.363 3.36-.002 1.854-1.51 3.362-3.363 3.362zm28.4-17.83c-1.854 0-3.36-1.508-3.36-3.36 0-1.855 1.507-3.363 3.36-3.363s3.36 1.508 3.36 3.362c.002 1.852-1.507 3.36-3.36 3.36zm16.07 27.81c-1.853 0-3.36-1.51-3.36-3.363s1.507-3.36 3.36-3.36c1.854 0 3.362 1.507 3.362 3.36s-1.508 3.362-3.362 3.362zM120.714 98.668l-20.922-24.02c5.828-6.625 6.016-16.725.064-23.557-6.482-7.44-17.81-8.222-25.252-1.74-7.44 6.482-8.222 17.81-1.74 25.252 5.952 6.833 15.982 8.032 23.344 3.167l20.922 24.018c.862.99 2.363 1.093 3.353.23.99-.86 1.093-2.36.23-3.35zM94.996 72.76c-5.466 4.76-13.787 4.188-18.548-1.278-4.76-5.466-4.188-13.786 1.278-18.547 5.466-4.762 13.786-4.188 18.547 1.278 4.762 5.465 4.188 13.786-1.277 18.547z"/></svg>