<svg xmlns="http://www.w3.org/2000/svg" width="200" height="200" viewBox="0 0 200 200"><path d="M53.45 101.784c1.69-3.02 1.34-7.244.015-10.276-.792-1.81-2.376-3.54-4.383-3.913-1.432-.266-3.615.393-4.658 1.68-4.266.076-7.366 4.428-6.87 9.008.156 1.454.698 2.698 1.46 3.752-1.58.436-2.727 1.765-3.958 2.913-2.328 2.17-4.536 4.473-6.775 6.734-2.32 2.343-4.64 4.68-7.047 6.936-1.63 1.528-4.373 2.992-5.102 5.166-.005.016.01.034.007.05-.65-.302-1.332-.533-2.063-.58-2.298-.145-5.512 1.39-6.235 3.735-2.668 1.166-3.888 4.796-3.01 8.23 1.5 5.857 8.643 7.81 13.383 4.46 4.186-2.955 3.85-9.038 1.265-12.93-.47-.704-1.074-1.333-1.737-1.888 4.045-.318 8.964-6.358 11.41-8.71 2.374-2.286 4.65-4.673 7.005-6.98 1.562-1.53 4.113-3.063 4.942-5.157 2.748 1.836 6.564 2.172 9.678.46.935-.515 1.634-1.223 2.204-2.014.308-.086.525-.33.47-.676zM8.06 135.1c-.623-1.248-.715-2.557-.423-3.713.622 1.178 1.306 2.32 2.115 3.407.87 1.17 1.926 2.546 3.204 3.407-1.992-.09-3.956-1.216-4.896-3.1zm6.444 2.95c-.903-1.29-2.307-2.246-3.376-3.417-1.22-1.336-2.185-2.87-3.025-4.467.28-.47.644-.884 1.093-1.212.22-.005.44-.015.663-.115.074-.035.13-.092.2-.13 1.012 1.73 2.044 3.45 3.173 5.11.796 1.172 1.665 2.515 2.693 3.62-.45.278-.927.483-1.422.61zm2.577-1.592c-.028.033-.064.048-.093.08-.912-1.11-1.9-2.178-2.76-3.297-1.235-1.603-2.344-3.3-3.442-5 .38-.077.777-.127 1.212-.11.628.023.642-.777.17-1.013.24-.17.496-.314.78-.422 1.53 2.75 3.124 5.64 4.987 8.17-.186.573-.45 1.118-.853 1.593zm1.113-4.053c-1.284-2.006-2.83-3.918-4.207-5.84 1.096.092 2.074.997 2.682 1.83.805 1.1 1.384 2.553 1.525 4.01zM48.38 90.77c.992-.002 1.716 1.36 2.096 2.08.795 1.514 1.06 3.514.732 5.33-.55-.654-1.11-1.29-1.623-1.907-1.244-1.494-2.632-2.862-3.996-4.25.98-.347 1.69-1.252 2.79-1.253zm-7.56 7.937c-.333-1.07-.35-2.057-.164-2.956.497 1.16 1.313 2.23 2.01 3.2.753 1.044 1.717 2.387 2.813 3.45-2.078-.343-4.047-1.72-4.66-3.693zm6.976 3.614c-1.073-1.337-2.544-2.49-3.633-3.8-.88-1.056-2.476-2.734-2.985-4.212.215-.388.533-.705.835-1.034 1.335 1.763 2.674 3.523 4.016 5.28.837 1.097 1.63 2.337 2.528 3.453-.25.115-.497.242-.762.314zm2.132-1.26c-.904-1.15-1.99-2.223-2.882-3.29-1.445-1.724-2.893-3.446-4.345-5.165.416-.327.854-.632 1.352-.86 1.396 1.532 2.768 3.075 4.018 4.736.848 1.127 1.59 2.44 2.414 3.662-.17.29-.276.62-.5.872-.017.02-.04.027-.056.046zM196.446 45.7c-.055-.122-.157-.228-.226-.345.206-1.903-.1-3.913-.923-5.827-2.53-5.877-9.222-6.286-13.878-2.79-.694.52-.81 1.304-.608 1.97-1.382.563-2.304 1.6-2.834 2.864-.18-.006-.35.1-.237.317.023.04.055.074.077.116-.57 1.72-.458 3.79.348 5.742 1.385 3.352 4.116 5.628 7.277 6.138-10.97 30.55-22.003 62.625-30.275 93.995-.166-.09-.31-.22-.502-.25-.12-.11-.29-.26-.596-.536-.73-.657-1.436-1.328-2.132-2.022-2.066-2.06-3.98-4.276-5.888-6.48-4.657-5.385-8.724-11.194-13.035-16.84 1.458-1.684 2.417-3.857 2.616-6.01.507-5.484-3.704-9.483-9.17-8.98-.377.036-.66.19-.893.383-3.595-2.074-7.04 2.15-7.826 5.924-.293 1.412-.28 2.79-.036 4.084-.048.01-.096-.003-.143.014-2.053.708-2.618 2.474-3.797 4.224-2.172 3.223-4.768 6.147-7.422 8.975-5.105 5.442-10.988 10.574-17.77 13.794-.943-.495-2.024-.812-3.195-.897-2.06-.725-3.843-.504-5.298.265-6.364-5.462-11.715-11.174-16.797-17.956-4.453-5.944-10.285-13.223-12.81-20.3-.176-.494-1.005-.612-1.12 0-1.516 8.05 7.26 17.662 11.692 23.647 3.018 4.074 10.097 15.576 16.398 17.145-2.34 3.824-1.79 9.913 3.38 12.02 4.682 1.91 9.622-1.54 10.97-5.98.715-2.354.256-4.48-.95-6.058 6.568-2.047 12.262-7.158 17.025-11.83 2.61-2.56 9.85-9.02 11.074-13.894 1.54 2.542 4.22 4.314 7.644 4.456 1.71.07 3.262-.48 4.594-1.388 3.797 7.17 8.477 13.598 13.82 19.75 1.692 1.947 5.776 8.102 9.23 7.698-.04.06-.092.098-.13.16-.63.25-1.23.633-1.712 1.28-1.694 2.27-1.82 5.458-.772 8.028 1.682 4.12 7.885 6.3 12.074 4.44.12-.01.22-.06.32-.13.742-.375 1.434-.843 1.99-1.507 2.833-3.38 1.522-8.845-.927-12.05-2.015-2.64-5.26-3.69-7.954-2.603 15.323-28.276 23.11-63.293 31.823-94.078.068-.245.074-.465.056-.672.57-.152 1.145-.34 1.718-.615 2.854-1.37 4.57-3.716 5.23-6.387.437-.064.726-.517.502-1.006zM81.666 155.026c-2.39-.763-2.835-3.9-2.4-5.986.073-.355.225-.664.357-.984.863.934 3.657 5.02 5.364 6.974-.98.336-2.104.385-3.322-.004zm5.625-1.6c-.643-.562-1.316-1.1-1.9-1.726-1.4-1.504-2.578-3.24-3.55-5.045-.32-.594-1.2-.07-.9.525.786 1.555 1.753 2.98 2.807 4.36-.67-.73-1.34-1.46-1.953-2.216-.28-.344-1.168-1.508-1.94-1.863.72-1.303 1.948-2.19 3.38-2.568.006.02-.006.035.003.055 1.112 2.473 2.25 5.986 4.382 8.018-.113.152-.204.317-.33.46zm1.138-1.952c-.802-.828-1.592-1.66-2.266-2.68-.534-.807-.995-1.66-1.444-2.52.086.016.155.054.25.058 3.518.143 4.318 2.77 3.46 5.142zm39.092-29.887c-4.12.956-6.917-2.983-6.97-6.607-.002-.133.018-.276.023-.413 2.073 2.417 4.236 5.06 7.024 6.382.555.262 1.253-.474.704-.913-1.446-1.16-2.997-2.118-4.368-3.384-1.115-1.03-2.165-2.127-3.235-3.205.166-.936.534-1.846 1.007-2.664 1.156 1.89 2.643 3.633 4.09 5.272 1.257 1.425 2.487 3.14 3.953 4.418-.664.504-1.392.92-2.227 1.113zm3.36-2.187c-.05-.004-.087.05-.136.054-1.034-1.186-2.3-2.24-3.4-3.333-1.893-1.88-3.586-3.963-5.175-6.103.598-.753 1.396-1.225 2.32-1.4 1.027 1.845 2.31 3.465 3.84 4.955 1.133 1.105 2.446 2.477 3.834 3.535-.29.832-.723 1.614-1.285 2.293zm1.66-4.374c-.953-.66-1.956-1.272-2.793-1.947-1.214-.978-2.292-2.086-3.282-3.27 3.405.103 6.062 1.333 6.087 5.1 0 .04-.01.077-.01.116zm22.94 45.802c-1.15-.975-1.82-3.414-1.628-5.454 1.7 2.444 3.53 4.943 5.657 6.953-1.582-.172-3.152-.755-4.03-1.5zm6.855-8.348c1.326 1.458 2.176 3.635 2.183 5.7-.764-.71-1.57-1.4-2.203-2.137-1.3-1.515-2.405-3.19-3.44-4.902 1.114-.307 2.218-.027 3.46 1.34zm-5.205-.22c.285.057.483-.24.35-.486.213-.14.42-.213.628-.318 1.005 1.82 2.083 3.595 3.29 5.295.756 1.065 1.685 2.493 2.806 3.447-.28.81-.832 1.35-1.534 1.692-.893-.954-1.83-1.88-2.67-2.85-1.617-1.87-2.99-3.92-4.213-6.062.08-.042.163-.038.24-.102.255-.217.505-.418.75-.607.127.01.217-.038.353-.01zm30.575-101.702c-1.124-1.45-2.967-2.443-4.36-3.623-1.063-.9-2.075-1.862-3.04-2.87-.07-1.032.17-2.01.71-2.83 1.396 1.834 2.822 3.64 4.368 5.355.978 1.085 2.192 2.59 3.563 3.56-.417.18-.832.32-1.24.408zm2.82-1.37c-1.404-1.165-2.916-2.197-4.234-3.506-1.645-1.635-3.17-3.398-4.686-5.156.24-.222.488-.44.805-.613.224-.035.455-.12.69-.296.328-.243.662-.454.998-.654 1.15 1.445 2.29 2.898 3.487 4.303 1.217 1.428 2.557 3.25 4.114 4.552-.344.49-.688.985-1.176 1.37zm-1.414-6.46c-1.365-1.383-2.63-2.86-3.915-4.32.778-.333 1.552-.47 2.314-.5 1.035 1.375 2.15 2.685 3.287 3.984.642.733 1.328 1.658 2.07 2.518-.043.527-.127 1.05-.28 1.555-1.165-1.076-2.375-2.12-3.476-3.236z"/></svg>