<svg xmlns="http://www.w3.org/2000/svg" width="92" height="92.001" viewBox="0 0 92 92.001"><path d="M22.366 30.57c1.004 0 1.974.15 2.887.433 3.448-3.864 7.27-7.38 11.41-10.5-.172-.73-.274-1.49-.274-2.274 0-1.085.183-2.126.51-3.1-4.638-3.33-9.683-6.12-15.048-8.28-5.03 3.11-9.418 7.162-12.914 11.912 2.596 4.596 5.682 8.883 9.19 12.784 1.283-.62 2.718-.977 4.238-.977zm-9.787 9.785c0-1.374.286-2.682.797-3.868-3.142-3.448-5.986-7.17-8.48-11.135C1.772 31.562 0 38.572 0 46c0 8.6 2.366 16.646 6.476 23.532 1.468-8.277 4.254-16.096 8.103-23.268-1.252-1.642-2-3.685-2-5.91zM46.175 8.44c2.585 0 4.93 1.01 6.678 2.647C57.96 8.89 63.338 7.207 68.932 6.13 62.18 2.237 54.352 0 46 0c-5.695 0-11.146 1.043-16.18 2.936 3.996 1.972 7.803 4.276 11.385 6.873 1.458-.865 3.154-1.37 4.97-1.37zM60.812 54.54c.61-1.268 1.474-2.39 2.543-3.28-2.888-8.892-7.465-17.022-13.36-24.017-1.172.5-2.463.775-3.82.775-2.122 0-4.08-.684-5.685-1.832-3.547 2.696-6.83 5.72-9.815 9.018.932 1.498 1.48 3.262 1.48 5.155 0 1.023-.16 2.007-.45 2.933 8.585 5.736 18.464 9.668 29.107 11.25zm12.694 13.21c.135 1.854.206 3.724.206 5.61 0 3.32-.212 6.592-.612 9.805 7.8-5.698 13.74-13.787 16.734-23.193-3.547.858-7.188 1.47-10.902 1.828-.873 2.678-2.866 4.845-5.426 5.95zm-14.988-6.632c-11.354-1.88-21.883-6.213-31.046-12.42-1.487.91-3.232 1.448-5.105 1.448-.688 0-1.358-.073-2.007-.208-4.387 8.317-7.19 17.593-7.996 27.428 4.38 4.696 9.724 8.48 15.727 11.02C35.544 76.92 45.964 67.44 58.52 61.115zm18.36-49.21c-7.37.71-14.41 2.56-20.966 5.342.035.323.05.65.05.98 0 1.545-.367 3-1.004 4.3 6.548 7.69 11.635 16.65 14.846 26.457 3.98.07 7.382 2.51 8.845 5.97 4.427-.448 8.74-1.295 12.893-2.517.294-2.104.457-4.25.457-6.44 0-13.52-5.834-25.676-15.12-34.092zm-13.436 54.44c-11.72 5.49-21.52 13.944-28.616 24.28 3.577.894 7.318 1.375 11.173 1.375 6.938 0 13.513-1.545 19.412-4.296.948-4.637 1.45-9.433 1.45-14.346 0-1.775-.08-3.532-.213-5.273-1.183-.38-2.267-.973-3.208-1.74z"/></svg>