<svg xmlns="http://www.w3.org/2000/svg" width="60" height="60" viewBox="0 0 60 60"><path fill="#00000" opacity=".3" d="M30.02 11.932c-1.74 0-3.168 1.43-3.168 3.17v7.27l-5.156-5.157c-1.233-1.23-3.21-1.23-4.44 0-1.23 1.233-1.23 3.25 0 4.48l5.2 5.157h-7.353c-1.74 0-3.17 1.43-3.17 3.17s1.43 3.127 3.17 3.127h7.312l-5.158 5.155c-1.23 1.23-1.23 3.25 0 4.48 1.233 1.23 3.25 1.19 4.48-.043l5.115-5.156v7.354c0 1.742 1.43 3.13 3.168 3.13 1.742 0 3.128-1.388 3.128-3.13v-7.395l5.24 5.197c1.234 1.23 3.208 1.233 4.44 0 1.23-1.23 1.23-3.207 0-4.438l-5.2-5.156h7.312c1.742 0 3.13-1.387 3.13-3.128 0-1.74-1.388-3.17-3.13-3.17h-7.354l5.198-5.24c1.23-1.233 1.232-3.167 0-4.396-1.23-1.23-3.207-1.274-4.438-.042l-5.198 5.24v-7.31c0-1.74-1.386-3.17-3.128-3.17z"/></svg>