<svg xmlns="http://www.w3.org/2000/svg" width="600" height="600" viewBox="0 0 600 600"><path d="M513.98 300.002c0-75.734-61.618-137.35-137.353-137.35h-35.59c-5.664 0-10.256 4.59-10.256 10.255 0 5.665 4.593 10.257 10.257 10.257h35.59c64.423 0 116.838 52.415 116.838 116.837 0 64.423-52.415 116.835-116.838 116.835h-24.39l35.527-20.507c4.906-2.83 6.586-9.103 3.754-14.01-2.83-4.904-9.103-6.595-14.01-3.755l-68.675 39.64c-3.172 1.832-5.128 5.217-5.128 8.883 0 3.664 1.956 7.05 5.128 8.882l68.674 39.65c1.615.936 3.378 1.378 5.12 1.378 3.544 0 6.993-1.84 8.89-5.13 2.833-4.906 1.153-11.18-3.753-14.012l-35.517-20.506h24.38c75.734.002 137.352-61.613 137.352-137.346zM291.165 164.03l-68.673-39.65c-4.908-2.834-11.182-1.15-14.01 3.754-2.833 4.906-1.153 11.178 3.753 14.01l35.516 20.508h-24.377c-75.734 0-137.35 61.613-137.35 137.346 0 75.735 61.615 137.352 137.35 137.352h35.59c5.664 0 10.256-4.593 10.256-10.258 0-5.664-4.593-10.256-10.258-10.256h-35.59c-64.422 0-116.837-52.414-116.837-116.838 0-64.42 52.415-116.833 116.838-116.833h24.388l-35.524 20.507c-4.906 2.83-6.586 9.103-3.754 14.01 1.897 3.29 5.346 5.13 8.893 5.13 1.74 0 3.503-.443 5.118-1.376l68.673-39.64c3.173-1.83 5.13-5.217 5.13-8.883-.002-3.664-1.958-7.05-5.13-8.882z"/></svg>