<svg xmlns="http://www.w3.org/2000/svg" width="200" height="200" viewBox="0 0 200 200"><path d="M158.684 149.08c-9.666.007-16.176 7.684-17.958 16.786-28.523-12.575-58.18-22.363-86.614-35.155 1.893-3.534 3.104-7.295 3.376-10.86.48-6.3-1.412-12.883-4.847-18.086 23.066-17.437 44.17-35.877 69.063-50.804.114-.068.124-.18.21-.264 2.1 2.506 4.76 4.513 8.07 5.733 15.9 5.855 31.403-8.84 32.978-23.877 1.526-14.56-6.355-30.483-22.487-27.27-20.662-7.594-31.083 26.156-20.197 43.178-12.06 2.957-23.474 12.808-32.998 20.303-12.425 9.78-24.598 20.084-36.127 30.923-5.63-7.003-14.37-10.52-23.728-5.24-25.42-3.122-21.54 43.536-1.37 50.67 10.754 3.8 21.313-3.32 27.058-12.673 28.165 14.338 58.227 24.108 87.18 36.682-.114 1.673-.086 3.366.124 5.048 2.025 16.18 17.304 23.856 32.218 19.92 31.093-8.207 10.71-61.534-13.948-45.013zM120.832 41.897c.515.803.983 1.454 1.184 1.745 1.892 2.745 4.042 5.324 6.24 7.827.024.026.054.064.078.09-3.81-2.052-6.17-5.575-7.502-9.663zm37.525-20.62c-1.544-1.784-3.22-3.467-4.776-5.238-1.858-2.118-3.52-4.37-5.156-6.65 5.198 1.642 8.454 6.268 9.933 11.887zm-11.42-12.365c3.04 5.12 7.028 10.562 11.575 14.233.108.087.218.1.325.114.235 1.277.402 2.58.47 3.9-1.652-2.876-4.673-5.475-6.78-7.984-2.987-3.56-5.96-7.168-9.23-10.477 1.295-.08 2.508 0 3.64.212zm-9.452-1.022c.246.884 1.067 1.617 2.226 1.33.81-.202 1.578-.32 2.335-.418 3.527 3.824 6.614 8.054 9.766 12.185 1.603 2.1 4.103 6.952 6.91 7.555.253.054.467-.036.633-.176.024 1.802-.088 3.607-.362 5.36-.24 1.543-.695 3.036-1.246 4.494-4.907-4.01-8.59-10.823-12.158-15.824-3.172-4.445-6.213-10.207-10.242-14.12.7-.147 1.394-.304 2.14-.386zm-17.402 16.7c.124-.618.31-1.162.462-1.746 2.714 6.045 6.212 11.668 10.14 17.004 3.278 4.452 7.074 9.725 11.846 12.642.672.41 1.276-.49.802-1.04-8.32-9.634-16.832-18.187-22.46-29.842.538-1.735 1.247-3.265 2.057-4.67 4.96 3.5 8.742 11.512 12.005 16.29 2.44 3.575 4.857 7.167 7.33 10.718 1.265 1.814 2.62 4.565 4.618 5.666.51.28 1.256-.186 1.04-.8-.88-2.488-3.295-4.693-4.845-6.828-2.894-3.985-5.705-8.03-8.572-12.035-2.882-4.025-6.612-11.005-11.235-13.637.844-1.35 1.843-2.506 2.94-3.535 3.675 5.855 7.936 11.46 11.937 17.07 3.66 5.135 7.71 11.96 13.128 15.363.556.35 1.32-.36.926-.925-4.117-5.876-9.52-11.047-13.864-16.822-3.74-4.974-7.21-10.578-11.543-15.13 1.156-.994 2.46-1.793 3.853-2.475 3.68 6.45 7.846 12.598 12.218 18.6 3.238 4.447 7.092 11.208 12.073 13.81.547.285 1.25-.31.884-.885-3.463-5.434-8.637-10.185-12.567-15.34-4.106-5.384-8.047-10.94-11.706-16.648.893-.377 1.83-.692 2.816-.943 3.497 6.355 8.213 12.354 12.303 18.303 2.484 3.614 6.065 10.694 10.42 13-3.386 7.364-10.407 13.076-18.268 13.88-6.166-8.43-13.616-15.703-19.325-24.56.12-1.567.31-3.09.59-4.485zm.236 11.515c.285-.112.177-.513-.128-.46-.298.052-.463.194-.654.317-.203-1.965-.236-3.945-.136-5.856 2.696 4.62 5.67 9.05 8.907 13.313 2.672 3.52 5.487 7.4 8.91 10.298-1.698.028-3.42-.152-5.145-.62-4.204-4.968-14.31-16-11.756-16.993zM52.396 111.01c-1.7-2.36-3.59-4.614-5.27-6.982-1.718-2.422-3.42-4.862-5.22-7.224 5.1 2.324 8.74 7.907 10.49 14.207zM40.4 96.164c1.87 2.84 3.785 5.653 5.665 8.486 2.005 3.02 3.917 6.556 6.628 9 .112.1.243.128.37.143.195 1.057.37 2.12.455 3.178-2.532-2.305-4.885-6.216-6.556-8.348-3.33-4.247-6.44-8.647-9.595-13.02 1.06.047 2.06.264 3.033.56zm-13.506 45.28c-.066-.25-.205-.488-.502-.604-.882-.345-1.898-1.917-2.486-2.61-1.57-1.85-2.97-3.855-4.403-5.81-1.83-2.495-3.71-4.953-5.694-7.325-.585-2.286-.932-4.652-1.035-7 3.724 4.547 7.507 9.05 11.29 13.55 2.866 3.412 5.804 7.42 9.296 10.338-2.182.247-4.37.104-6.466-.54zm8.43.217c-2.88-4.013-6.727-7.584-10.004-11.272-4.124-4.643-8.177-9.37-12.565-13.77.002-1.653.177-3.266.437-4.844 6.666 10.762 15.295 20.302 24.198 29.255-.686.227-1.37.475-2.065.63zm4.01-1.375c-9.345-9.474-18.178-19.165-25.872-30.045.3-1.34.732-2.607 1.24-3.822 6.094 12.302 19.002 20.768 26.754 32.006.188.274.447.36.71.367-.92.556-1.86 1.068-2.832 1.495zm3.754-2.098c.055-.197.042-.42-.104-.656-7.54-12.095-19.554-20.598-27.813-32.204.593-1.21 1.328-2.3 2.15-3.307 4.817 6.632 9.608 13.295 14.55 19.835 3.5 4.63 7.82 12.112 13.197 14.878-.64.512-1.297 1.002-1.98 1.454zm6.204-5.824c-3.843-6.737-10.24-13.105-14.947-19.06-2.778-3.516-5.587-7.01-8.575-10.35-.957-1.07-2.34-3.022-3.97-3.09-.19-.01-.266.27-.098.358 1.76.93 3.424 3.77 4.646 5.268 2.996 3.673 5.852 7.464 8.706 11.247 4.043 5.36 7.894 12.534 12.913 17.21-.603.656-1.208 1.312-1.88 1.91-3.647-5.268-8.98-9.878-12.997-14.94-5.117-6.446-9.956-13.13-15.223-19.456 2.028-2.238 4.643-3.886 8.03-4.487 3.22 5.47 6.94 10.636 10.89 15.598 4.27 5.366 8.923 11.795 14.598 15.737.133.092.277.108.413.08-.676 1.38-1.524 2.714-2.506 3.976zm2.92-4.946c-3.2-4.676-7.776-8.574-11.547-12.802-4.637-5.198-8.956-10.65-12.95-16.35.27-.013.558-.093.85-.264.794-.463 1.56-.788 2.324-1.116-.113.15-.173.332-.04.505 3.606 4.733 7.255 9.43 10.96 14.087 3.576 4.49 6.968 9.556 11.206 13.465-.214.835-.463 1.665-.805 2.475zm1.17-4.338c-2.916-3.813-6.367-7.3-9.466-10.946-4.24-4.99-8.254-10.19-12.282-15.352-.073-.093-.17-.118-.265-.13 1.72-.684 3.353-1.003 4.91-1.07 3.08 5.515 6.99 10.685 10.766 15.723 1.383 1.844 3.884 6.29 6.563 7.793.01 1.358-.042 2.7-.227 3.98zm130.81 44.032c-2.576-3.055-5.783-5.723-8.58-8.54-2.787-2.803-5.46-5.686-8.1-8.61 8.398-.475 14.932 7.8 16.68 17.15zm-39.665 8.737c.57 1.067 1.174 2.066 1.643 2.89 1.473 2.59 3.34 5.753 5.506 8.432-3.354-2.75-5.887-6.625-7.15-11.323zm12.056 14.295v-.003c-2.43-3.596-5.59-6.718-8.047-10.342-1.43-2.11-4.477-6.052-4.817-9.24-.017-.5.05-.963.07-1.448.033-.14.022-.296.07-.43.016-.043-.038-.054-.043-.09.072-1.03.228-2.02.455-2.97.814 4.01 3.565 7.865 5.716 11.033 3.188 4.695 7.028 11.248 11.474 14.812-1.69-.266-3.338-.664-4.88-1.322zm11.832 1.263c-.065 0-.117.013-.18.033-.17.026-.34.074-.51.095-.515-3.188-6.635-10.003-8.915-13.085-2.03-2.744-4.132-5.43-6.195-8.15-1.562-2.06-6.464-7.533-5.264-10.413.05-.12-.15-.205-.21-.09-2.707 5.318 7.104 14.727 9.897 18.637 2.296 3.214 4.393 6.57 6.64 9.82.572.83 1.395 2.28 2.373 3.394-1.34.065-2.67.05-3.96-.114.13-.087.214-.23.15-.432-1.43-4.576-6.477-8.96-9.32-12.69-3.39-4.448-6.72-9.237-8.02-14.736.857-2.326 2.274-4.31 3.99-6.044 6.308 11.412 13.9 24.093 23.67 32.703-1.39.5-2.774.856-4.145 1.073zm5.293-1.515c-7.896-11.145-17.077-21.137-24.363-32.77.888-.832 1.926-1.527 2.98-2.204 1.096 5.453 5.134 10.447 8.344 14.682 4.68 6.177 9.86 12.164 15.176 17.806.613.65 1.81-.236 1.256-.97-7.803-10.32-19.878-19.422-23.863-32.16.913-.52 1.954-.89 2.97-1.29 3.434 6.11 6.978 12.177 10.94 17.96 3.33 4.856 7.244 10.74 12.574 13.55.64.337 1.387-.523.8-1.04-9.826-8.68-16.943-19.574-23.586-30.785.253-.088.46-.232.72-.313.492.615 1.3.917 2.174.327.768-.52 1.526-.938 2.278-1.307.15-.02.294-.053.444-.072.066-.008.092-.074.15-.095 6.664 6.463 13.14 14.086 18.185 21.777.548.837 2.33 2.845 3.412 3.226-1.034 5.77-4.31 10.97-10.594 13.677zm10.895-15.998c-.28-.063-.573.063-.693.344l-.44-.61c-.55-.762-1.085-1.537-1.62-2.31-1.29-1.863-2.775-3.484-4.27-5.19-4.575-5.222-8.878-10.618-13.92-15.388.917-.337 1.813-.536 2.697-.67 2.315 2.912 4.744 5.745 7.23 8.497 3.263 3.613 6.56 7.778 10.445 10.73.154.117.328.146.495.116.15 1.493.19 2.995.076 4.48zM158.764 33.345c-2.56-4.04-6.033-7.73-8.975-11.507-3.422-4.392-6.904-8.733-11.03-12.49-.365-.333-.904.2-.544.544 4.016 3.83 7.352 8.21 10.594 12.7 2.746 3.803 5.295 8.506 8.89 11.574.56.476 1.498-.135 1.064-.82zM182.97 179.125c-2.843-4.167-6.87-7.673-10.318-11.332-3.26-3.46-10.362-9.345-10.488-14.5-.01-.444-.635-.427-.677 0-.42 4.31 4.008 8.62 6.54 11.627 4.37 5.186 9.004 10.26 13.626 15.22.644.692 1.86-.222 1.318-1.015z"/></svg>