<svg xmlns="http://www.w3.org/2000/svg" width="200" height="200" viewBox="0 0 200 200"><path d="M118.26 169.972c.9-.494.718-2.177-.373-2.62-8.247-3.35-18.097-1.384-26.695-.457-15.174 1.635-30.394.49-45.602 1.322.27-4.588-1.22-9.835-1.3-14.538-.1-5.857.25-11.75-.082-17.6.504.21 1.018.395 1.636.387.468-.006.843-.333 1.01-.74 9.81.11 19.697-.337 29.503-.663 1.685-.056 2.312-1.916 1.297-3.13-.747-.894-1.322-1.897-2.084-2.733.373-.464.504-1.107.1-1.78-12.85-21.375-22.55-44.554-37.557-64.602-.756-1.01-2.267-1.21-2.986 0C23.535 82.355 2.28 106.97 3.872 131.098c.057.867 1.44 1.175 1.602.218.085-.495.235-.97.328-1.463 3.51 2.058 7.888 2.293 11.877 2.834 5.637.764 10.083-1.2 10.182 5.66.19 13.016.035 26.68 1.672 39.585.07.556.368.88.722 1.095-.133 1.76-.225 3.523-.252 5.29-.032.68.52 1.467 1.21 1.59 28.042 5 56.61 3.935 84.822.885.793.553 2.053.14 2.12-1.054.275-4.87-.527-9.785.286-14.642.074-.432-.023-.8-.18-1.124zm-3.236-.027c-.02.07-.06.113-.074.19-.407 2.43-.608 5.128-.56 7.822-1.434-1.447-3.118-2.753-4.612-4.086-1.67-1.488-3.407-2.897-5.256-4.155 3.477-.102 6.963-.07 10.502.23zM40.498 71.992c1.525 2.186 2.95 4.443 4.34 6.723-1.414-1.16-2.9-2.246-4.256-3.32-2.04-1.616-4.197-3.007-6.475-4.227 2.514-4.277 2.508-4.742 6.39.824zm-7.28.662c.113-.183.19-.32.295-.494 2.377 1.503 4.62 3.19 6.754 5.033 2.396 2.07 4.57 4.728 7.32 6.314.036.02.063.003.096.017 1.635 2.856 3.228 5.736 4.807 8.61.02.034.037.07.056.103-2.902-2.41-6.18-4.516-9.062-6.88-4.024-3.298-7.916-6.755-11.7-10.328.48-.79.953-1.597 1.434-2.376zm-2.034 3.37c3.598 3.62 7.304 7.126 11.14 10.493 3.525 3.092 7.376 7.026 11.642 9.066.136.065.267.047.398.04 1.956 3.617 3.903 7.238 5.835 10.865-10.685-8.38-20.99-17.54-32.254-25.1 1.077-1.798 2.16-3.577 3.238-5.364zM27.3 82.46c11.703 8.763 21.962 19.76 34.445 27.36.095.057.17.02.26.042 2.85 5.32 5.74 10.62 8.802 15.832C59.613 109.546 40.49 97.75 25.202 85.93c.692-1.17 1.4-2.305 2.097-3.47zm-2.764 4.605c16.457 13.588 32.623 26.605 46.976 42.493.16.176.35.25.54.252.06.463.317.907.71 1.163.064.04.187.223.31.403-1.75-.013-3.505.072-5.257.1C52.65 118.02 37.128 104.924 21.96 91.45c.843-1.475 1.717-2.922 2.576-4.385zm-3.124 5.33c13.923 13.144 27.41 27.81 42.94 39.148-1.527.042-3.053.033-4.58.088-13.517-11.944-28.276-22.558-40.052-36.314.544-.986 1.136-1.94 1.692-2.92zm-2.186 3.83c10.517 13.697 24.456 24.318 37.503 35.52-1.198.05-2.395.086-3.59.136-12.55-10.085-24.23-20.744-36.078-31.674.697-1.34 1.44-2.656 2.164-3.982zM16.55 101.2c4.844 6.273 11.086 11.71 16.81 17.104 3.936 3.706 9.69 10.424 15.47 13.752-.7.028-1.405.06-2.105.085-.34.014-.615.114-.853.255-3.374-4.312-8.62-7.826-12.65-11.214-6.31-5.3-12.688-10.554-18.536-16.372.59-1.217 1.245-2.405 1.863-3.608zm-2.387 4.71c5.042 5.477 10.62 10.385 16.217 15.286 4.057 3.553 7.988 7.694 12.188 11.24-.09-.01-.18-.017-.272-.026-1.78-.177-1.915 2.312-.472 2.916-.032.365-.038.733-.067 1.1-3.97-3.87-8.614-7.305-12.71-10.97-5.637-5.047-11.228-10.13-17.073-14.94.667-1.56 1.46-3.07 2.19-4.606zM6.15 128.304c.234-1.103.53-2.186.814-3.274.603 1.065 1.4 2.157 2.337 3.117-1.063.002-2.116.043-3.15.157zm5.496-.067c-.242-.147-.492-.286-.724-.446-1.488-1.026-2.728-2.3-3.693-3.824.5-1.825 1.05-3.635 1.66-5.426 3.173 3.854 6.99 7.493 10.99 10.597-2.76-.385-5.524-.745-8.234-.9zm19.592 3.572c-.01-.946-.773-1.702-1.715-1.716-1.99-.028-4.038-.226-6.11-.483-4.412-4.392-9.8-7.668-14.117-12.234.677-1.91 1.39-3.806 2.167-5.68 5.436 5.005 10.74 10.157 16.11 15.233 4.294 4.057 8.828 9.096 14.025 12.126-.12 1.847-.265 3.692-.337 5.544-1.462-1.7-3.232-3.19-4.788-4.815-1.705-1.778-3.377-3.613-5.142-5.34-.023-.877-.082-1.765-.092-2.636zm.147 4.23c1.354 1.59 2.714 3.176 4.047 4.785 1.453 1.755 3.044 4.337 5.244 5.196.224.09.404.045.553-.048-.074 2.245-.142 4.49-.156 6.734-.94-1.464-2.153-2.83-3.15-4.125-2.006-2.605-4.057-5.237-6.367-7.588-.087-1.663-.115-3.302-.172-4.95zm.27 6.604c3.49 4.075 6.026 8.8 9.373 12.96.006 1.15-.02 2.618.004 4.164-2.612-3.755-5.676-7.304-8.98-10.393-.14-2.25-.27-4.49-.397-6.73zm.494 8.296c3.142 3.89 5.93 8.035 9.058 11.928.122 1.25.3 2.48.642 3.58-3.06-3.133-6.133-6.254-9.144-9.437-.067-.07-.14-.072-.212-.095-.102-1.99-.222-3.984-.345-5.975zm7.174 31.097c-.813-.934-1.672-1.838-2.435-2.774-1.476-1.81-2.864-3.692-4.227-5.588.106-1.732.173-3.47.196-5.22 2.633 3.463 5.177 6.98 7.923 10.37 1.474 1.82 3.074 3.946 4.892 5.712-2.385-.664-4.51-1.497-6.35-2.5zm10.018 3.365c-6.058-5.365-10.876-12.2-16.487-18.025.005-1.25-.064-2.514-.09-3.77 2.838 4.257 5.984 8.325 9.218 12.282 2.59 3.168 5.453 6.864 8.727 9.74-.45-.08-.928-.14-1.368-.228zm5.246.8c-3.17-3.59-6.963-6.77-10.182-10.33-4.036-4.463-7.728-9.213-11.676-13.75-.038-1.257-.113-2.52-.172-3.782 3.75 4.658 7.767 9.076 11.798 13.49 4.398 4.815 8.5 10.263 13.304 14.676-1.037-.09-2.072-.184-3.072-.304zm4.7.433c.052-.165.05-.35-.058-.546-2.98-5.35-7.837-9.76-12.052-14.143-.418-.435-.84-.865-1.26-1.3 1.163.08 2.336.137 3.5.212 5.38 5.367 10.63 11.606 16.886 16.068-2.387-.04-4.74-.13-7.016-.293zm10.218.315c-6.174-5.263-12.16-10.792-18.39-15.99 2.58.157 5.172.283 7.763.393-.075.14-.106.298 0 .453 2.268 3.285 5.05 6.173 7.887 8.968 1.888 1.86 4.237 4.583 6.776 6.1-1.35.03-2.7.074-4.037.076zm6.678-.127c-1.94-2.818-5.742-4.88-8.317-7.15-2.872-2.533-5.598-5.265-7.98-8.268 1.932.077 3.865.126 5.8.166 2.21 2.982 4.724 5.73 7.3 8.397 2.086 2.16 4.41 4.858 7.01 6.68-1.27.062-2.538.132-3.813.176zm6.168-.294c-2.053-2.63-5.13-4.69-7.577-6.925-2.746-2.51-5.326-5.17-7.732-8.002 1.647.026 3.29-.023 4.935-.03 2.767 2.754 5.756 5.253 8.768 7.735 2.624 2.162 5.036 4.526 7.53 6.81-1.95.15-3.92.293-5.924.41zm8.183-.597c-4.47-5.685-11.22-9.603-16.68-14.372 2.373-.03 4.743-.094 7.108-.2 3.95 5.166 8.88 9.986 13.976 14.177-1.442.136-2.905.27-4.405.396zm7.132-.66c-4.986-4.804-10.482-8.936-15.245-14.01 1.688-.09 3.376-.177 5.056-.33l.31-.03c.007.14.055.274.187.378 2.984 2.356 5.733 4.967 8.483 7.586 2.032 1.935 4.103 4.245 6.49 5.85-1.682.185-3.444.372-5.28.556zm7.49-.802c-2.445-2.744-5.74-4.97-8.464-7.463-2.38-2.176-4.806-4.284-7.368-6.24 1.86-.172 3.7-.335 5.538-.488 4.302 4.954 10.11 10.14 16.152 13.53-1.765.2-3.725.424-5.858.66zm9.486-1.054c-2.506-1.83-5.342-3.294-7.924-4.99-3.694-2.426-7.127-5.208-10.307-8.27 2.222-.172 4.436-.297 6.65-.386.015.013.012.03.027.042 2.24 1.697 4.237 3.63 6.196 5.638 1.53 1.567 3.04 3.534 4.98 4.6.066.036.12.01.184.03.085 1.124.225 2.235.43 3.31l-.237.026zM195.184 91.39c-1.435.408-2.63 1.926-3.638 3.732-1.444-1.237-3.158-2.3-4.816-3.306 2.62.06 5.32.123 7.82-.422 1.44-.314 1.44-2.588 0-2.9-3.295-.717-6.9-.274-10.247-.206-4.387.09-8.875.38-13.165 1.388-.03-.25-.06-.512-.1-.77.38-.326.615-.834.47-1.502-1.607-7.413-1.3-14.997-.874-22.545.184-.235.21-.54.048-.84.115-2.015.234-4.027.323-6.03.505-11.412-.544-22.93-1.578-34.36.09.056.17.13.263.18.576.322 1.233-.32.9-.9-.368-.645-.853-1.232-1.382-1.794-.21-2.34-.426-4.683-.61-7.012.58-.933.42-2.27-.95-2.485-18.866-2.952-37.915-1.66-56.926-.116l-.057-.042c-.204-.142-.42-.06-.57.092-3.212.262-6.42.526-9.628.78-.39-.276-.782-.57-1.17-.846-.43-.303-.978.405-.562.728.095.074.183.158.278.233-4.677.364-9.35.706-14.014.942-.158-.152-.322-.292-.478-.445-.4-.39-.93.063-.808.496-11.95.56-23.842.48-35.62-1.278-.425-.063-.775.4-.438.75.097.102.215.177.315.274-.01.044-.05.07-.05.118-.123 5.074-.96 10.157-1.19 15.24-.125 2.734-.634 7.57 1.98 9.346.154.105.313.117.47.144.127.22.333.39.63.45 25.878 5.2 51.872-1.897 77.795-.946.213.17.41.358.626.526.604.47 1.288.108 1.455-.434 4.46.24 8.917.707 13.37 1.562.097.205.245.387.483.486 4.54 1.887 3.27 22.597 3.42 26.613.2 5.333-1.298 15.584 1.09 21.277-3.653.226-7.29.634-10.933 1.036-4.402.486-8.848.104-13.216.646-.664.082-.963.883-.35 1.283.005.002.01.003.012.005-.503.223-.877.774-.49 1.303 14.65 20.085 24.637 42.77 36.94 64.252.55.958 1.943 1.147 2.716.35 7.802-8.04 12.414-20.313 17.393-30.15 3.44-6.797 6.788-13.64 10.173-20.464 1.293-2.607 3.734-10.263 6.002-11.805 1.317-.893.53-3.106-1.11-2.64zM166.72 14.995c.164.024.307-.008.458-.022-.065 1.415-.036 2.827-.063 4.24-.77-.62-1.546-1.22-2.262-1.8-1.36-1.107-2.776-2.148-4.218-3.15 2.043.215 4.084.435 6.084.732zm-9.048-1.028c2.278 1.667 4.514 3.37 6.658 5.21.934.8 1.82 1.732 2.746 2.605-.01 1.474-.076 2.95-.066 4.424-2.153-1.99-4.594-3.746-6.837-5.566-2.95-2.393-5.902-4.785-8.86-7.17 2.135.136 4.25.31 6.36.498zm-8.123-.592c3.05 2.92 6.245 5.69 9.45 8.438 2.658 2.276 5.218 4.804 8.044 6.89.023 1.602.028 3.205.066 4.807-3.325-3.68-7.424-6.903-11.042-10.062-4.254-3.715-8.727-7.183-13.347-10.437 2.3.067 4.555.238 6.83.366zm-8.47-.418c4.704 3.77 9.307 7.655 13.804 11.674 4.223 3.773 8.03 8.168 12.293 11.898.065 2.454.134 4.908.195 7.362-9.054-12.507-22.8-21.057-34.448-31.012 2.727-.012 5.446.017 8.155.078zM50.745 36.38c.104-2.205-.206-4.543-.415-6.86 1.784 2.414 3.915 5.24 6.418 7.206-2.003-.07-4.004-.18-6.002-.345zm9.3.392c-1.556-1.17-3.162-2.254-4.602-3.617-1.76-1.666-3.338-3.536-4.92-5.37-.087-.102-.2-.126-.31-.143-.025-.523-.064-1.05-.057-1.563.024-1.69.023-3.35-.013-5.008 2.42 3.302 5.32 6.25 8.27 9.07 2.295 2.19 4.986 5.01 7.948 6.57-2.106.056-4.213.084-6.316.06zm8.448-.13c-.013-.146-.064-.29-.166-.405-2.458-2.76-5.938-4.836-8.723-7.284-3.5-3.076-6.81-6.417-9.595-10.162-.08-1.4-.15-2.796-.367-4.2.6.42 1.237.797 1.904 1.132C57.88 23.6 66.024 31.826 75.11 36.305c-2.206.136-4.412.258-6.616.337zm8.612-.465c.08-.306.036-.646-.327-.886-8.344-5.525-15.797-11.42-22.643-18.534 2.156.704 4.56 1.044 7.048 1.215 6.31 6.315 13.136 12.45 20.27 17.87-1.45.112-2.9.238-4.35.337zm6.945-.54c-6.73-6.157-14.23-11.468-21.067-17.548 2.15.058 4.363-.03 6.574-.197 3.302 3.266 6.698 6.432 10.172 9.516 2.9 2.574 6.03 5.595 9.422 7.787-1.7.148-3.4.298-5.1.44zm7.827-.675c-3.352-3.17-7.51-5.72-11.087-8.615-3.362-2.72-6.57-5.622-9.71-8.593 2.186-.204 4.325-.483 6.414-.774 6.77 5.473 12.908 12.684 20.22 17.488-1.945.16-3.89.325-5.837.494zm8.96-.735c-3.96-3.09-8.006-6.04-11.832-9.33-3.267-2.812-6.575-5.576-10.05-8.122 2.528-.366 4.836-.705 6.965-.984 6.393 6.445 13.06 12.84 20.497 18.05-1.858.114-3.717.244-5.58.387zm8.457-.537C101.66 27.93 94.33 22.1 87.372 15.604c.244-.028.542-.075.777-.1 2.01-.213 4.07-.403 6.118-.6 6.216 6.58 13.405 12.933 20.69 18.57-1.886.05-3.774.118-5.664.216zm8.99-.278c-6.77-6.846-15.262-12.34-22.555-18.65 1.81-.17 3.65-.316 5.483-.47 7.434 6.11 14.298 12.898 21.552 19.184-1.493-.03-2.984-.076-4.48-.064zm8.007.156c-7.058-7.135-15.173-13.546-23.323-19.424 2.858-.228 5.742-.428 8.637-.606 3.945 3.228 7.87 6.48 11.674 9.875 3.69 3.292 6.82 7.325 10.373 10.734-2.446-.26-4.9-.468-7.36-.58zm21.44 7.172c-.06-.078-.142-.098-.218-.13-.163-.282-.304-.6-.492-.843 1.47-.415 1.863-2.808.042-3.276-3.557-.912-7.132-1.57-10.72-2.045-2.153-4.43-7.006-8.06-10.57-11.21-3.952-3.487-8.137-6.702-12.408-9.79 2.555-.147 5.13-.213 7.698-.31 15.596 13.42 31.575 26.034 44.832 41.912.6.718 1.816-.228 1.293-.998-11.29-16.62-28.463-29.022-44.452-40.983 2.88-.097 5.762-.13 8.64-.157 11.933 11.404 25.036 21.102 35.938 33.622.037.043.088.03.128.06.077 3.798.115 7.597.043 11.4-.016.867-.062 1.75-.103 2.632-6.674-6.528-13.9-12.403-19.65-19.884zM151 61.327c-.172-.112-.388-.283-.608-.257-.04.005-.05.052-.087.066-.082-1.752-.14-3.504-.257-5.255-.026-.393-.048-.91-.07-1.47 2.945 2.454 5.717 5.086 8.36 7.895 2.55 2.71 5.134 6.53 8.43 8.362-.082 1.632-.12 3.26-.113 4.885-.544-.423-1.1-.823-1.532-1.2-2.038-1.772-4.048-3.576-6.048-5.392-1.906-1.73-3.814-3.455-5.68-5.227-.535-.507-1.137-1.24-1.785-1.602-.214-.118-.385-.275-.56-.43.09-.112.113-.267-.05-.373zm5.418 7.317c2.145 2.084 4.357 4.103 6.567 6.118 1.03.94 2.364 2.54 3.756 3.354.073 1.475.23 2.934.444 4.38-1.81-1.39-3.695-2.702-5.486-4.06-3.837-2.907-7.54-5.972-11.07-9.25-.082-2.232-.16-4.467-.256-6.7 1.085 2.143 5.18 5.315 6.046 6.158zm10.464-.06c-2.433-2.963-5.612-5.62-8.278-8.29-2.69-2.693-5.52-5.403-8.697-7.563-.12-2.668-.357-6.13-1.14-9.043 5.276 7.175 11.906 13.292 18.487 19.294-.117 1.854-.255 3.727-.372 5.605zm-.858 76.866c-4.055-3.176-8.24-6.138-12.036-9.67-.382-.354-.93.193-.57.573 3.577 3.78 7.425 7.612 11.723 10.64-.264.45-.51.913-.78 1.362-1.02 1.712-2.125 3.38-3.38 4.932 1.886-2.334-5.62-12.836-6.754-14.996-1.965-3.74-3.917-7.472-5.888-11.188 2.483 1.648 4.917 3.376 7.326 5.127 2.897 2.104 5.765 4.253 8.58 6.467 1.222.96 2.493 2.345 3.98 2.914-.714 1.292-1.465 2.562-2.2 3.84zm2.91-5.168c-.794-1.304-2.335-2.236-3.503-3.125-2.908-2.214-5.896-4.326-8.91-6.393-2.115-1.45-6.167-5.114-9.657-6.444-2.37-4.414-4.798-8.784-7.382-13.052 10.83 7.848 21.086 16.523 32.146 23.993-.878 1.686-1.784 3.355-2.69 5.022zm3.442-6.498c-10.36-9.334-22.445-17.38-34.295-24.813-3.872-6.196-8.105-12.166-13.03-17.723 1.14.53 2.385.85 3.67 1.085-.31.116-.524.497-.22.815 12.668 13.212 29.68 27.496 47.097 34.268-1.067 2.125-2.137 4.25-3.22 6.37zm4.02-7.948C159.658 115.73 143.8 105.79 129.24 92.422c2.142.332 4.42.374 6.757.217 13.168 11.022 28.782 18.72 42.456 29.13-.68 1.358-1.377 2.708-2.057 4.066zm2.906-5.746c-10.812-12.086-28.87-18.1-41.906-27.548 2.567-.235 5.153-.62 7.607-.936.01.01.01.025.02.034 6.42 4.805 12.702 9.8 18.983 14.784 5.128 4.07 10.218 9.12 15.996 12.282-.23.462-.47.92-.7 1.384zm1.363-2.695c-4.48-4.68-10.468-8.444-15.602-12.34-6.23-4.73-12.55-9.306-19.11-13.56 1.726-.21 3.397-.385 4.91-.412 2.095-.038 2.347-2.9.757-3.56.01-.18-.005-.37 0-.554 10.075 8.773 20.148 18.665 31.3 25.97-.745 1.488-1.51 2.966-2.255 4.455zm3.124-6.193c-9.702-9.442-21.447-17.544-32.17-25.78-.08-2.677-.476-5.454-.645-8.062 2.043 4.198 10.208 9.49 12.27 11.16 7.044 5.707 15.173 12.91 23.806 16.17-1.095 2.167-2.174 4.34-3.26 6.512zm4.624-9.224c-.21.41-.41.824-.62 1.234-6.218-3.854-12.225-7.975-18.136-12.294-4.1-2.997-8.108-6.116-12.028-9.346-1.22-1.006-6.65-4.593-6.467-6.528.02-.207-.148-.267-.318-.245-.055-1.425-.112-2.85-.164-4.274 5.098 5.21 10.945 10.497 17.08 14.618.207.89.357 1.79.655 2.66-.176.335-.17.73.078 1.09.275.648.824 1.085 1.417 1.705-.005.445.277.906.822.93 2.784.13 5.564.183 8.346.213 2.52 3.154 6.38 6.588 10.405 7.805-.4.955-.757 1.82-1.07 2.43zm1.647-3.788c-1.7-.782-3.438-1.44-5.07-2.413-1.817-1.082-3.395-2.487-4.83-4.03 1.38.012 2.76.028 4.143.03.096 0 .198.004.295.004.02.02.017.05.042.068 2.018 1.434 4.025 3.346 6.248 4.542-.29.598-.57 1.206-.827 1.8z"/></svg>