<?xml version="1.0" encoding="utf-8"?>
<!-- Generator: Adobe Illustrator 16.0.0, SVG Export Plug-In . SVG Version: 6.00 Build 0)  -->
<!DOCTYPE svg PUBLIC "-//W3C//DTD SVG 1.1//EN" "http://www.w3.org/Graphics/SVG/1.1/DTD/svg11.dtd">
<svg version="1.1" id="Layer_1" xmlns="http://www.w3.org/2000/svg" xmlns:xlink="http://www.w3.org/1999/xlink" x="0px" y="0px"
	 width="126px" height="126px" viewBox="0 0 126 126" enable-background="new 0 0 126 126" xml:space="preserve">
<path d="M120.353,85.088c0.005-0.003,0.011-0.005,0.016-0.008l-0.243-0.438l-0.174-0.468c-2.888,1.074-5.478,1.013-7.917-0.184
	c-7.797-3.829-12.358-18.478-16.769-32.645C91,37.643,86.971,24.699,80.183,22.857c-2.775-0.755-5.739,0.351-9.064,3.382
	c-4.777,4.55-9.231,14.32-13.539,23.769c-5.142,11.279-10.459,22.943-15.573,23.424c-3.446,0.344-6.995-4.269-10.74-9.133
	c-6.261-8.13-14.054-18.248-25.66-10.945l0.229,0.365c-0.084,0.058-0.167,0.105-0.251,0.165l0.24,0.339
	c-0.087,0.066-0.173,0.121-0.26,0.189l0.249,0.316c-0.089,0.074-0.178,0.136-0.267,0.213l0.254,0.293
	c-0.09,0.082-0.18,0.15-0.27,0.235l0.686,0.728c2.635-2.484,5.091-3.456,7.498-2.976c6.335,1.265,11.459,12.705,15.979,22.798
	c4.567,10.197,8.524,19.033,13.547,19.033c0.11,0,0.221-0.004,0.333-0.013c7.147-0.553,9.792-10.111,12.855-21.179
	c2.173-7.853,4.636-16.753,9.091-23.108c3.963-5.409,7.5-7.907,10.817-7.629c5.937,0.494,10.636,9.831,15.611,19.717
	c5.269,10.468,10.717,21.292,18.523,23.691c3.109,0.956,6.427,0.473,9.861-1.432c0.001,0,0.003-0.001,0.005-0.002v0
	C120.342,85.094,120.348,85.092,120.353,85.088L120.353,85.088z M30.062,70.612c4.388,7.786,8.159,14.507,12.775,14.122
	c6.434-0.546,10.442-11.369,14.686-22.826c3.227-8.712,6.564-17.721,11.146-23.053c3.448-4.012,6.491-5.736,9.292-5.266
	c6.006,1.004,10.359,11.948,14.967,23.534c2.541,6.386,5.128,12.874,8.129,18.122c-2.808-4.605-5.325-10.21-7.799-15.729
	c-4.923-10.982-9.573-21.355-16.069-22.145c-3.407-0.418-6.972,1.813-10.88,6.815c-4.667,5.972-7.538,14.824-10.313,23.385
	c-3.473,10.709-6.752,20.825-12.871,21.32c-4.2,0.359-8.168-7.589-12.355-15.985c-1.759-3.528-3.542-7.097-5.426-10.274
	C27,65.188,28.565,67.958,30.062,70.612z M23.812,58.698c2.314,2.75,4.445,6.018,6.449,9.103
	c4.243,6.528,7.916,12.162,12.208,11.781c6.056-0.541,10.657-11.662,15.528-23.435c3.739-9.035,7.604-18.378,12.241-23.236
	c3.227-3.38,6.053-4.754,8.648-4.196c6.096,1.309,10.256,13.104,14.661,25.591c2.211,6.268,4.457,12.633,7.05,18.011
	c-2.417-4.699-4.595-10.17-6.74-15.563c-4.715-11.855-9.169-23.053-15.731-24.15c-3.176-0.529-6.52,1.3-10.216,5.601
	c-4.699,5.467-8.067,14.562-11.325,23.357c-4.13,11.151-8.032,21.685-13.833,22.177c-3.943,0.333-7.774-6.441-11.819-13.616
	C28.738,66.228,26.399,62.088,23.812,58.698z M30.475,64.91c4.088,5.309,7.611,9.898,11.626,9.519
	c5.69-0.536,10.887-11.936,16.389-24.005c4.268-9.362,8.681-19.042,13.31-23.452c3.044-2.775,5.701-3.804,8.121-3.149
	c6.258,1.698,10.208,14.387,14.391,27.822c2.001,6.428,4.034,12.95,6.4,18.56c-2.241-4.952-4.246-10.63-6.222-16.231
	c-4.501-12.759-8.752-24.81-15.395-26.236c-2.96-0.635-6.095,0.831-9.581,4.484c-4.766,4.993-8.668,14.424-12.441,23.544
	C52.321,67.25,47.832,78.099,42.38,78.585c-3.694,0.341-7.383-5.333-11.281-11.331c-2.567-3.949-5.333-8.195-8.471-11.336
	C25.476,58.423,28.039,61.746,30.475,64.91z M76.419,42.127c-3.683-0.308-7.521,2.321-11.712,8.043
	c-4.56,6.504-7.047,15.493-9.242,23.424c-2.962,10.705-5.521,19.95-11.968,20.448c-4.478,0.346-8.564-8.774-12.89-18.432
	c-1.322-2.952-2.657-5.93-4.038-8.73c1.141,2.135,2.241,4.336,3.305,6.471c4.421,8.865,8.252,16.551,12.978,16.55
	c0.117,0,0.235-0.005,0.354-0.014c6.783-0.549,10.008-10.494,13.741-22.009c2.749-8.478,5.592-17.245,10.15-23.077
	c3.674-4.702,6.942-6.806,9.972-6.438c5.935,0.722,10.473,10.844,15.277,21.561c2.743,6.119,5.539,12.334,8.753,17.243
	c-2.96-4.259-5.632-9.56-8.258-14.776C87.736,52.248,82.914,42.667,76.419,42.127z"/>
</svg>
