<?xml version="1.0" encoding="utf-8"?>
<!-- Generator: Adobe Illustrator 17.0.0, SVG Export Plug-In . SVG Version: 6.00 Build 0)  -->
<!DOCTYPE svg PUBLIC "-//W3C//DTD SVG 1.1//EN" "http://www.w3.org/Graphics/SVG/1.1/DTD/svg11.dtd">
<svg version="1.1" id="Capa_1" xmlns="http://www.w3.org/2000/svg" xmlns:xlink="http://www.w3.org/1999/xlink" x="0px" y="0px"
	 width="200px" height="200px" viewBox="0 0 200 200" enable-background="new 0 0 200 200" xml:space="preserve">
<g>
	<path d="M158.684,149.08c-9.666,0.007-16.176,7.684-17.958,16.786c-28.523-12.575-58.179-22.363-86.614-35.155
		c1.893-3.535,3.104-7.296,3.376-10.86c0.479-6.3-1.412-12.884-4.847-18.087C75.706,84.327,96.81,65.887,121.703,50.96
		c0.114-0.068,0.124-0.181,0.209-0.264c2.1,2.506,4.761,4.513,8.072,5.733c15.898,5.856,31.402-8.84,32.977-23.876
		c1.525-14.56-6.356-30.483-22.488-27.271c-20.662-7.593-31.083,26.157-20.197,43.179c-12.061,2.956-23.474,12.807-32.998,20.302
		c-12.425,9.779-24.598,20.084-36.127,30.923c-5.632-7.003-14.37-10.52-23.729-5.24c-25.421-3.122-21.541,43.536-1.369,50.669
		c10.753,3.802,21.312-3.32,27.057-12.672c28.165,14.338,58.227,24.108,87.181,36.682c-0.115,1.673-0.087,3.366,0.123,5.048
		c2.025,16.181,17.304,23.856,32.218,19.92C203.725,185.886,183.343,132.559,158.684,149.08z M120.832,41.897
		c0.515,0.803,0.983,1.454,1.184,1.745c1.892,2.745,4.042,5.324,6.24,7.827c0.024,0.027,0.054,0.065,0.078,0.092
		C124.525,49.508,122.163,45.985,120.832,41.897z M158.357,21.277c-1.544-1.784-3.221-3.467-4.776-5.238
		c-1.859-2.117-3.521-4.37-5.157-6.649C153.622,11.032,156.878,15.658,158.357,21.277z M146.938,8.912
		c3.04,5.12,7.027,10.562,11.574,14.233c0.108,0.087,0.218,0.101,0.325,0.114c0.235,1.278,0.402,2.581,0.47,3.902
		c-1.652-2.877-4.673-5.476-6.779-7.985c-2.988-3.559-5.96-7.168-9.232-10.477C144.592,8.621,145.805,8.7,146.938,8.912z
		 M137.485,7.89c0.246,0.884,1.067,1.617,2.226,1.329c0.81-0.201,1.577-0.319,2.334-0.417c3.527,3.824,6.614,8.054,9.766,12.185
		c1.602,2.099,4.102,6.952,6.909,7.555c0.253,0.054,0.467-0.036,0.633-0.176c0.024,1.802-0.088,3.607-0.362,5.36
		c-0.241,1.543-0.696,3.036-1.247,4.494c-4.907-4.01-8.59-10.823-12.158-15.824c-3.172-4.445-6.213-10.207-10.242-14.121
		C136.044,8.129,136.738,7.972,137.485,7.89z M120.083,24.59c0.124-0.618,0.309-1.162,0.462-1.746
		c2.714,6.045,6.212,11.668,10.14,17.004c3.278,4.452,7.074,9.725,11.846,12.642c0.671,0.41,1.275-0.491,0.801-1.039
		c-8.321-9.635-16.832-18.188-22.461-29.843c0.539-1.735,1.248-3.265,2.058-4.67c4.962,3.499,8.743,11.512,12.006,16.291
		c2.441,3.574,4.857,7.166,7.331,10.717c1.264,1.814,2.62,4.565,4.617,5.666c0.509,0.281,1.256-0.186,1.04-0.799
		c-0.88-2.489-3.295-4.694-4.845-6.829c-2.894-3.985-5.705-8.031-8.572-12.035c-2.882-4.024-6.612-11.004-11.235-13.636
		c0.843-1.35,1.842-2.506,2.939-3.535c3.675,5.855,7.936,11.46,11.937,17.071c3.661,5.134,7.71,11.96,13.128,15.362
		c0.556,0.349,1.321-0.362,0.926-0.926c-4.118-5.876-9.521-11.047-13.865-16.822c-3.741-4.974-7.209-10.578-11.543-15.131
		c1.156-0.993,2.46-1.792,3.853-2.474c3.681,6.449,7.846,12.598,12.218,18.601c3.238,4.446,7.092,11.207,12.073,13.808
		c0.547,0.286,1.25-0.31,0.884-0.884c-3.464-5.434-8.638-10.185-12.568-15.339c-4.106-5.385-8.047-10.94-11.706-16.649
		c0.893-0.377,1.831-0.692,2.816-0.943c3.497,6.355,8.213,12.354,12.303,18.303c2.484,3.614,6.065,10.694,10.419,13
		c-3.385,7.364-10.406,13.076-18.267,13.88c-6.166-8.429-13.616-15.703-19.325-24.561C119.614,27.508,119.803,25.986,120.083,24.59z
		 M120.319,36.105c0.286-0.112,0.178-0.513-0.127-0.46c-0.298,0.052-0.463,0.194-0.654,0.317c-0.203-1.965-0.236-3.945-0.136-5.856
		c2.696,4.619,5.671,9.05,8.907,13.313c2.673,3.52,5.488,7.401,8.912,10.299c-1.699,0.028-3.422-0.152-5.146-0.621
		C127.871,48.13,117.765,37.099,120.319,36.105z M52.397,111.011c-1.701-2.36-3.591-4.615-5.27-6.983
		c-1.718-2.422-3.419-4.862-5.221-7.224C47.007,99.128,50.648,104.711,52.397,111.011z M40.4,96.163
		c1.871,2.84,3.785,5.653,5.665,8.486c2.005,3.021,3.917,6.557,6.628,9c0.112,0.101,0.243,0.129,0.371,0.144
		c0.194,1.057,0.369,2.119,0.454,3.178c-2.532-2.306-4.885-6.217-6.556-8.349c-3.331-4.247-6.44-8.647-9.595-13.02
		C38.426,95.649,39.428,95.866,40.4,96.163z M26.894,141.444c-0.066-0.252-0.205-0.489-0.502-0.605
		c-0.882-0.344-1.898-1.916-2.486-2.609c-1.569-1.85-2.969-3.855-4.403-5.811c-1.829-2.494-3.71-4.952-5.694-7.324
		c-0.584-2.286-0.931-4.652-1.034-7c3.724,4.547,7.507,9.05,11.289,13.55c2.867,3.412,5.805,7.421,9.297,10.338
		C31.178,142.23,28.99,142.087,26.894,141.444z M35.325,141.66c-2.88-4.013-6.728-7.584-10.005-11.272
		c-4.124-4.643-8.177-9.37-12.565-13.769c0.002-1.654,0.177-3.267,0.437-4.845c6.666,10.762,15.295,20.302,24.198,29.255
		C36.704,141.257,36.021,141.505,35.325,141.66z M39.334,140.285c-9.345-9.474-18.178-19.165-25.872-30.045
		c0.301-1.339,0.732-2.607,1.239-3.822c6.095,12.302,19.003,20.768,26.755,32.006c0.188,0.274,0.447,0.36,0.709,0.367
		C41.246,139.346,40.305,139.858,39.334,140.285z M43.088,138.187c0.055-0.197,0.042-0.421-0.104-0.656
		c-7.54-12.096-19.554-20.599-27.813-32.205c0.592-1.209,1.327-2.299,2.15-3.307c4.816,6.633,9.607,13.296,14.55,19.836
		c3.499,4.629,7.819,12.112,13.196,14.878C44.428,137.245,43.77,137.735,43.088,138.187z M49.292,132.363
		c-3.843-6.737-10.241-13.105-14.947-19.06c-2.778-3.516-5.587-7.009-8.575-10.35c-0.957-1.071-2.339-3.022-3.971-3.091
		c-0.19-0.008-0.265,0.27-0.097,0.359c1.759,0.93,3.424,3.768,4.646,5.267c2.996,3.673,5.852,7.464,8.706,11.247
		c4.043,5.359,7.894,12.534,12.913,17.21c-0.603,0.656-1.208,1.312-1.881,1.91c-3.646-5.268-8.979-9.878-12.996-14.939
		c-5.117-6.447-9.956-13.132-15.223-19.457c2.028-2.237,4.643-3.885,8.03-4.486c3.221,5.469,6.94,10.636,10.89,15.598
		c4.271,5.365,8.923,11.794,14.598,15.736c0.133,0.092,0.277,0.108,0.413,0.079C51.122,129.766,50.274,131.101,49.292,132.363z
		 M52.211,127.417c-3.198-4.676-7.775-8.574-11.546-12.802c-4.637-5.198-8.956-10.65-12.95-16.35
		c0.271-0.013,0.558-0.093,0.851-0.264c0.793-0.464,1.558-0.789,2.323-1.117c-0.112,0.15-0.172,0.332-0.039,0.505
		c3.606,4.734,7.255,9.432,10.961,14.088c3.575,4.49,6.967,9.556,11.205,13.465C52.802,125.777,52.553,126.607,52.211,127.417z
		 M53.383,123.079c-2.917-3.812-6.368-7.3-9.467-10.945c-4.241-4.99-8.254-10.191-12.282-15.352
		c-0.073-0.093-0.169-0.118-0.265-0.131c1.72-0.683,3.354-1.002,4.911-1.068c3.079,5.514,6.989,10.684,10.766,15.722
		c1.383,1.844,3.884,6.291,6.563,7.793C53.621,120.456,53.568,121.797,53.383,123.079z M184.193,167.112
		c-2.577-3.055-5.784-5.723-8.582-8.539c-2.786-2.804-5.459-5.687-8.098-8.612C175.91,149.487,182.444,157.761,184.193,167.112z
		 M144.527,175.849c0.569,1.068,1.174,2.067,1.643,2.89c1.473,2.59,3.341,5.754,5.506,8.433
		C148.322,184.421,145.789,180.547,144.527,175.849z M156.583,190.145c0,0,0-0.002-0.001-0.003
		c-2.429-3.596-5.59-6.718-8.046-10.342c-1.43-2.109-4.477-6.052-4.817-9.24c-0.016-0.5,0.051-0.963,0.072-1.448
		c0.032-0.141,0.021-0.296,0.07-0.431c0.015-0.042-0.039-0.053-0.044-0.089c0.072-1.029,0.228-2.019,0.455-2.971
		c0.814,4.01,3.565,7.866,5.716,11.034c3.188,4.695,7.028,11.248,11.474,14.812C159.773,191.201,158.124,190.803,156.583,190.145z
		 M168.415,191.408c-0.065,0.001-0.117,0.013-0.18,0.033c-0.169,0.025-0.34,0.073-0.509,0.094
		c-0.516-3.188-6.636-10.003-8.916-13.085c-2.03-2.744-4.132-5.429-6.195-8.15c-1.562-2.061-6.464-7.533-5.264-10.413
		c0.05-0.121-0.152-0.205-0.211-0.089c-2.707,5.317,7.104,14.726,9.897,18.636c2.296,3.214,4.393,6.57,6.639,9.82
		c0.573,0.83,1.396,2.279,2.374,3.394c-1.341,0.065-2.669,0.051-3.961-0.114c0.13-0.087,0.215-0.231,0.152-0.432
		c-1.432-4.576-6.478-8.96-9.322-12.691c-3.39-4.447-6.72-9.236-8.02-14.735c0.858-2.326,2.275-4.31,3.99-6.044
		c6.309,11.412,13.902,24.093,23.67,32.703C171.17,190.834,169.786,191.191,168.415,191.408z M173.708,189.893
		c-7.896-11.145-17.077-21.137-24.363-32.769c0.888-0.833,1.926-1.528,2.979-2.205c1.097,5.454,5.135,10.448,8.345,14.683
		c4.681,6.177,9.862,12.164,15.177,17.806c0.613,0.65,1.811-0.236,1.256-0.969c-7.803-10.321-19.878-19.423-23.863-32.161
		c0.914-0.52,1.955-0.891,2.972-1.29c3.433,6.11,6.977,12.177,10.94,17.959c3.329,4.857,7.243,10.742,12.573,13.55
		c0.641,0.338,1.387-0.522,0.801-1.039c-9.827-8.679-16.944-19.574-23.587-30.785c0.253-0.088,0.461-0.232,0.72-0.313
		c0.492,0.615,1.301,0.917,2.174,0.327c0.768-0.519,1.526-0.938,2.278-1.307c0.15-0.021,0.294-0.053,0.444-0.072
		c0.066-0.008,0.092-0.074,0.15-0.095c6.664,6.463,13.14,14.086,18.185,21.777c0.549,0.837,2.332,2.845,3.413,3.226
		C183.268,181.987,179.991,187.186,173.708,189.893z M184.603,173.895c-0.281-0.063-0.573,0.063-0.693,0.344
		c-0.128-0.177-0.253-0.35-0.44-0.608c-0.551-0.763-1.085-1.538-1.62-2.311c-1.29-1.863-2.775-3.484-4.27-5.19
		c-4.575-5.222-8.878-10.618-13.92-15.388c0.917-0.337,1.813-0.536,2.697-0.669c2.315,2.911,4.744,5.744,7.229,8.496
		c3.264,3.614,6.561,7.779,10.446,10.731c0.154,0.117,0.328,0.146,0.495,0.116C184.676,170.909,184.716,172.411,184.603,173.895z"/>
	<path d="M158.764,33.345c-2.559-4.041-6.033-7.73-8.975-11.507c-3.421-4.392-6.903-8.733-11.029-12.49
		c-0.365-0.333-0.904,0.2-0.544,0.544c4.016,3.831,7.352,8.211,10.594,12.701c2.746,3.802,5.295,8.505,8.89,11.573
		C158.259,34.642,159.198,34.031,158.764,33.345z"/>
	<path d="M182.971,179.125c-2.844-4.167-6.871-7.673-10.319-11.332c-3.26-3.46-10.362-9.345-10.488-14.5
		c-0.011-0.444-0.635-0.427-0.677,0c-0.421,4.31,4.008,8.621,6.54,11.627c4.37,5.186,9.004,10.259,13.626,15.221
		C182.297,180.832,183.512,179.918,182.971,179.125z"/>
</g>
</svg>
