<?xml version="1.0" encoding="utf-8"?>
<!-- Generator: Adobe Illustrator 17.0.0, SVG Export Plug-In . SVG Version: 6.00 Build 0)  -->
<!DOCTYPE svg PUBLIC "-//W3C//DTD SVG 1.1//EN" "http://www.w3.org/Graphics/SVG/1.1/DTD/svg11.dtd">
<svg version="1.1" id="Capa_1" xmlns="http://www.w3.org/2000/svg" xmlns:xlink="http://www.w3.org/1999/xlink" x="0px" y="0px"
	 width="200px" height="200px" viewBox="0 0 200 200" enable-background="new 0 0 200 200" xml:space="preserve">
<g>
	<path d="M118.261,169.972c0.899-0.494,0.717-2.177-0.374-2.62c-8.247-3.349-18.097-1.384-26.695-0.457
		c-15.174,1.635-30.394,0.489-45.602,1.322c0.269-4.588-1.22-9.835-1.3-14.538c-0.099-5.856,0.249-11.748-0.082-17.6
		c0.504,0.21,1.018,0.396,1.636,0.388c0.468-0.006,0.843-0.333,1.009-0.74c9.812,0.109,19.698-0.337,29.504-0.663
		c1.685-0.056,2.312-1.916,1.297-3.13c-0.747-0.894-1.322-1.897-2.084-2.733c0.373-0.465,0.504-1.108,0.1-1.78
		c-12.85-21.376-22.549-44.555-37.557-64.603c-0.756-1.01-2.267-1.21-2.986,0C23.535,82.355,2.279,106.97,3.872,131.099
		c0.057,0.866,1.439,1.174,1.602,0.217c0.085-0.495,0.235-0.971,0.328-1.463c3.511,2.058,7.888,2.293,11.877,2.834
		c5.638,0.764,10.084-1.201,10.183,5.661c0.189,13.015,0.035,26.678,1.672,39.584c0.071,0.556,0.368,0.881,0.722,1.095
		c-0.133,1.76-0.225,3.523-0.252,5.291c-0.032,0.678,0.521,1.466,1.209,1.588c28.043,5.002,56.611,3.936,84.823,0.886
		c0.793,0.553,2.053,0.14,2.12-1.054c0.275-4.869-0.527-9.785,0.286-14.642C118.516,170.664,118.419,170.297,118.261,169.972z
		 M115.024,169.945c-0.019,0.069-0.061,0.113-0.074,0.189c-0.407,2.43-0.608,5.129-0.561,7.823
		c-1.433-1.447-3.117-2.753-4.611-4.086c-1.67-1.489-3.407-2.898-5.256-4.156C107.999,169.613,111.485,169.646,115.024,169.945z
		 M40.498,71.992c1.525,2.186,2.95,4.443,4.339,6.723c-1.413-1.159-2.898-2.246-4.255-3.321c-2.039-1.615-4.197-3.006-6.475-4.226
		C36.621,66.891,36.615,66.426,40.498,71.992z M33.218,72.654c0.113-0.183,0.19-0.32,0.295-0.494
		c2.377,1.503,4.62,3.189,6.754,5.033c2.396,2.07,4.569,4.728,7.321,6.314c0.035,0.02,0.062,0.003,0.095,0.017
		c1.635,2.856,3.228,5.736,4.807,8.609c0.019,0.035,0.037,0.07,0.056,0.104c-2.902-2.411-6.18-4.516-9.062-6.879
		c-4.024-3.299-7.916-6.756-11.699-10.329C32.263,74.24,32.737,73.433,33.218,72.654z M31.184,76.024
		c3.598,3.62,7.304,7.126,11.141,10.493c3.524,3.092,7.375,7.026,11.641,9.066c0.136,0.065,0.267,0.047,0.398,0.04
		c1.956,3.617,3.903,7.238,5.835,10.865c-10.684-8.38-20.988-17.541-32.253-25.101C29.023,79.59,30.105,77.811,31.184,76.024z
		 M27.299,82.459c11.704,8.764,21.963,19.76,34.446,27.36c0.095,0.058,0.171,0.022,0.26,0.043c2.85,5.321,5.739,10.621,8.802,15.832
		C59.613,109.546,40.49,97.75,25.202,85.931C25.894,84.76,26.603,83.625,27.299,82.459z M24.536,87.065
		c16.457,13.588,32.623,26.605,46.976,42.493c0.159,0.176,0.349,0.25,0.539,0.252c0.06,0.463,0.318,0.907,0.712,1.163
		c0.063,0.041,0.186,0.223,0.308,0.403c-1.75-0.013-3.504,0.072-5.256,0.101C52.65,118.019,37.128,104.923,21.96,91.449
		C22.803,89.975,23.677,88.528,24.536,87.065z M21.412,92.395c13.923,13.144,27.41,27.811,42.941,39.148
		c-1.528,0.042-3.054,0.033-4.582,0.088c-13.516-11.945-28.275-22.559-40.051-36.315C20.264,94.33,20.856,93.375,21.412,92.395z
		 M19.226,96.224c10.517,13.698,24.456,24.319,37.503,35.522c-1.197,0.048-2.394,0.085-3.59,0.135
		c-12.55-10.086-24.229-20.745-36.077-31.675C17.759,98.867,18.501,97.55,19.226,96.224z M16.549,101.2
		c4.845,6.273,11.087,11.711,16.812,17.104c3.935,3.706,9.689,10.424,15.47,13.752c-0.701,0.028-1.406,0.059-2.106,0.085
		c-0.34,0.013-0.615,0.113-0.853,0.254c-3.374-4.312-8.62-7.826-12.651-11.214c-6.31-5.302-12.687-10.555-18.535-16.373
		C15.275,103.591,15.931,102.403,16.549,101.2z M14.163,105.91c5.042,5.477,10.62,10.385,16.217,15.286
		c4.057,3.553,7.988,7.694,12.188,11.24c-0.091-0.009-0.181-0.017-0.272-0.026c-1.779-0.177-1.915,2.312-0.472,2.916
		c-0.032,0.365-0.038,0.733-0.067,1.099c-3.971-3.868-8.614-7.304-12.709-10.969c-5.638-5.047-11.229-10.131-17.074-14.939
		C12.641,108.957,13.435,107.446,14.163,105.91z M6.15,128.304c0.234-1.103,0.53-2.186,0.814-3.274
		c0.603,1.065,1.401,2.157,2.337,3.117C8.237,128.149,7.184,128.19,6.15,128.304z M11.646,128.237
		c-0.242-0.147-0.492-0.286-0.724-0.446c-1.488-1.027-2.728-2.3-3.693-3.825c0.502-1.825,1.051-3.635,1.661-5.426
		c3.173,3.854,6.99,7.493,10.989,10.597C17.119,128.752,14.356,128.392,11.646,128.237z M31.238,131.809
		c-0.01-0.945-0.773-1.701-1.715-1.715c-1.99-0.028-4.038-0.226-6.111-0.483c-4.411-4.393-9.8-7.669-14.116-12.235
		c0.677-1.909,1.389-3.806,2.167-5.68c5.436,5.005,10.74,10.157,16.111,15.233c4.293,4.058,8.827,9.097,14.024,12.127
		c-0.119,1.847-0.265,3.692-0.337,5.544c-1.463-1.701-3.233-3.191-4.789-4.815c-1.705-1.778-3.377-3.613-5.142-5.341
		C31.307,133.568,31.248,132.68,31.238,131.809z M31.385,136.041c1.354,1.59,2.714,3.175,4.047,4.784
		c1.453,1.755,3.044,4.337,5.244,5.196c0.224,0.088,0.404,0.044,0.553-0.049c-0.073,2.245-0.141,4.49-0.155,6.734
		c-0.941-1.464-2.153-2.83-3.149-4.125c-2.007-2.606-4.058-5.238-6.368-7.589C31.47,139.329,31.442,137.69,31.385,136.041z
		 M31.655,142.644c3.489,4.075,6.026,8.8,9.373,12.959c0.006,1.15-0.019,2.619,0.004,4.165c-2.612-3.755-5.676-7.304-8.979-10.393
		C31.912,147.124,31.781,144.884,31.655,142.644z M32.149,150.94c3.143,3.89,5.932,8.035,9.059,11.928
		c0.122,1.251,0.299,2.481,0.642,3.58c-3.061-3.133-6.133-6.254-9.144-9.437c-0.067-0.071-0.14-0.073-0.212-0.096
		C32.392,154.924,32.272,152.931,32.149,150.94z M39.324,182.037c-0.813-0.934-1.672-1.838-2.435-2.774
		c-1.475-1.811-2.863-3.692-4.226-5.588c0.106-1.732,0.173-3.471,0.196-5.219c2.634,3.462,5.178,6.98,7.924,10.369
		c1.474,1.819,3.074,3.946,4.892,5.712C43.29,183.873,41.164,183.04,39.324,182.037z M49.342,185.402
		c-6.058-5.365-10.876-12.201-16.487-18.025c0.005-1.251-0.064-2.514-0.09-3.77c2.838,4.257,5.984,8.325,9.218,12.282
		c2.59,3.169,5.453,6.865,8.727,9.74C50.259,185.55,49.782,185.489,49.342,185.402z M54.588,186.202
		c-3.171-3.59-6.963-6.77-10.182-10.329c-4.036-4.464-7.728-9.214-11.676-13.75c-0.038-1.258-0.113-2.522-0.172-3.783
		c3.749,4.658,7.767,9.076,11.798,13.49c4.398,4.815,8.501,10.263,13.304,14.676C56.623,186.415,55.588,186.322,54.588,186.202z
		 M59.288,186.635c0.052-0.165,0.051-0.351-0.058-0.546c-2.98-5.349-7.837-9.758-12.052-14.142
		c-0.418-0.435-0.839-0.865-1.259-1.299c1.162,0.08,2.335,0.136,3.5,0.211c5.379,5.368,10.629,11.607,16.885,16.069
		C63.917,186.887,61.564,186.797,59.288,186.635z M69.506,186.95c-6.174-5.263-12.16-10.792-18.39-15.989
		c2.581,0.156,5.172,0.282,7.763,0.392c-0.074,0.141-0.105,0.298,0.002,0.453c2.267,3.285,5.05,6.173,7.886,8.968
		c1.888,1.861,4.237,4.583,6.776,6.099C72.194,186.904,70.842,186.948,69.506,186.95z M76.184,186.823
		c-1.941-2.818-5.742-4.88-8.317-7.15c-2.872-2.533-5.598-5.265-7.98-8.268c1.932,0.077,3.865,0.126,5.799,0.166
		c2.212,2.981,4.725,5.728,7.302,8.396c2.085,2.159,4.408,4.858,7.008,6.68C78.726,186.709,77.459,186.779,76.184,186.823z
		 M82.352,186.529c-2.053-2.629-5.13-4.689-7.577-6.924c-2.746-2.509-5.326-5.171-7.732-8.002c1.647,0.026,3.29-0.023,4.935-0.031
		c2.767,2.755,5.756,5.254,8.768,7.736c2.624,2.162,5.036,4.526,7.53,6.809C86.327,186.269,84.355,186.411,82.352,186.529z
		 M90.535,185.933c-4.47-5.685-11.219-9.603-16.68-14.372c2.373-0.032,4.743-0.095,7.108-0.201
		c3.951,5.166,8.88,9.986,13.976,14.177C93.498,185.673,92.035,185.807,90.535,185.933z M97.667,185.272
		c-4.986-4.803-10.482-8.935-15.245-14.008c1.688-0.091,3.376-0.178,5.056-0.332c0.105-0.01,0.207-0.018,0.311-0.028
		c0.006,0.138,0.054,0.273,0.186,0.377c2.984,2.355,5.733,4.966,8.483,7.585c2.032,1.935,4.103,4.245,6.491,5.851
		C101.266,184.901,99.504,185.088,97.667,185.272z M105.157,184.471c-2.445-2.745-5.739-4.972-8.464-7.464
		c-2.38-2.176-4.806-4.284-7.368-6.241c1.86-0.171,3.701-0.334,5.538-0.487c4.302,4.955,10.111,10.142,16.152,13.532
		C109.25,184.009,107.29,184.234,105.157,184.471z M114.643,183.416c-2.506-1.83-5.342-3.294-7.924-4.99
		c-3.693-2.426-7.126-5.208-10.306-8.269c2.222-0.173,4.436-0.298,6.651-0.387c0.014,0.013,0.011,0.031,0.026,0.042
		c2.241,1.697,4.237,3.63,6.196,5.638c1.53,1.567,3.041,3.534,4.98,4.6c0.066,0.036,0.121,0.011,0.184,0.029
		c0.085,1.125,0.225,2.236,0.429,3.312C114.808,183.398,114.717,183.408,114.643,183.416z"/>
	<path d="M195.184,91.389c-1.435,0.409-2.631,1.927-3.638,3.733c-1.444-1.237-3.158-2.301-4.816-3.306
		c2.621,0.061,5.319,0.123,7.819-0.422c1.44-0.314,1.44-2.588,0-2.901c-3.294-0.716-6.9-0.273-10.246-0.205
		c-4.387,0.09-8.875,0.379-13.165,1.388c-0.031-0.251-0.06-0.512-0.101-0.769c0.381-0.327,0.616-0.835,0.471-1.503
		c-1.607-7.413-1.3-14.997-0.874-22.545c0.184-0.234,0.21-0.539,0.048-0.84c0.115-2.014,0.234-4.026,0.323-6.029
		c0.505-11.412-0.544-22.93-1.578-34.359c0.09,0.055,0.17,0.128,0.263,0.18c0.576,0.321,1.233-0.321,0.901-0.901
		c-0.369-0.645-0.854-1.232-1.383-1.794c-0.21-2.34-0.426-4.683-0.611-7.012c0.581-0.933,0.42-2.271-0.948-2.485
		c-18.867-2.951-37.916-1.66-56.927-0.115c-0.019-0.014-0.038-0.028-0.057-0.042c-0.204-0.142-0.42-0.059-0.571,0.092
		c-3.211,0.262-6.42,0.526-9.627,0.781c-0.389-0.277-0.782-0.572-1.17-0.847c-0.429-0.303-0.978,0.405-0.562,0.728
		c0.095,0.074,0.183,0.158,0.278,0.233c-4.677,0.365-9.351,0.707-14.014,0.943c-0.157-0.152-0.321-0.292-0.477-0.445
		c-0.399-0.39-0.929,0.063-0.808,0.496c-11.949,0.56-23.842,0.479-35.621-1.278c-0.424-0.063-0.774,0.401-0.437,0.751
		c0.097,0.101,0.215,0.176,0.315,0.273c-0.01,0.045-0.05,0.07-0.051,0.119c-0.123,5.074-0.959,10.157-1.191,15.241
		c-0.124,2.733-0.633,7.568,1.98,9.345c0.155,0.105,0.314,0.117,0.472,0.144c0.126,0.219,0.332,0.389,0.63,0.449
		c25.877,5.2,51.871-1.896,77.794-0.945c0.213,0.169,0.411,0.358,0.626,0.526c0.603,0.471,1.287,0.108,1.454-0.434
		c4.459,0.241,8.917,0.707,13.37,1.562c0.097,0.205,0.245,0.387,0.483,0.486c4.54,1.887,3.27,22.597,3.421,26.613
		c0.2,5.333-1.299,15.584,1.09,21.277c-3.654,0.226-7.291,0.634-10.934,1.036c-4.402,0.486-8.848,0.104-13.216,0.646
		c-0.663,0.082-0.962,0.883-0.348,1.283c0.004,0.002,0.008,0.003,0.011,0.005c-0.503,0.223-0.877,0.774-0.491,1.303
		c14.652,20.085,24.638,42.77,36.942,64.252c0.549,0.958,1.942,1.147,2.715,0.35c7.802-8.04,12.414-20.313,17.393-30.151
		c3.44-6.796,6.787-13.639,10.172-20.463c1.293-2.607,3.734-10.263,6.002-11.805C197.612,93.135,196.825,90.922,195.184,91.389z
		 M166.719,14.996c0.165,0.024,0.308-0.008,0.459-0.022c-0.065,1.415-0.036,2.827-0.063,4.241c-0.769-0.621-1.546-1.221-2.262-1.802
		c-1.361-1.106-2.776-2.147-4.218-3.148C162.678,14.479,164.719,14.699,166.719,14.996z M157.672,13.968
		c2.278,1.667,4.514,3.37,6.658,5.209c0.934,0.801,1.821,1.733,2.746,2.606c-0.011,1.474-0.076,2.95-0.066,4.424
		c-2.153-1.989-4.594-3.746-6.837-5.566c-2.95-2.394-5.902-4.786-8.859-7.172C153.448,13.606,155.563,13.781,157.672,13.968z
		 M149.549,13.376c3.051,2.919,6.246,5.691,9.452,8.438c2.657,2.276,5.217,4.804,8.043,6.889c0.023,1.603,0.028,3.206,0.066,4.808
		c-3.325-3.68-7.424-6.904-11.042-10.063c-4.254-3.715-8.727-7.183-13.347-10.437C145.019,13.077,147.275,13.248,149.549,13.376z
		 M141.079,12.958c4.705,3.77,9.308,7.655,13.805,11.674c4.223,3.773,8.029,8.168,12.293,11.898
		c0.065,2.454,0.134,4.908,0.195,7.362c-9.054-12.507-22.8-21.057-34.448-31.012C135.651,12.868,138.37,12.897,141.079,12.958z
		 M50.746,36.381c0.104-2.206-0.206-4.544-0.415-6.861c1.783,2.414,3.914,5.241,6.417,7.206
		C54.745,36.657,52.744,36.545,50.746,36.381z M60.046,36.772c-1.556-1.17-3.162-2.254-4.602-3.617
		c-1.76-1.666-3.338-3.536-4.919-5.37c-0.088-0.102-0.2-0.126-0.311-0.143c-0.025-0.523-0.064-1.049-0.057-1.563
		c0.024-1.69,0.023-3.35-0.013-5.007c2.419,3.302,5.319,6.251,8.271,9.069c2.294,2.19,4.985,5.01,7.947,6.572
		C64.256,36.768,62.149,36.796,60.046,36.772z M68.494,36.642c-0.013-0.146-0.064-0.29-0.166-0.405
		c-2.458-2.761-5.938-4.836-8.723-7.284c-3.499-3.076-6.811-6.417-9.595-10.162c-0.08-1.4-0.15-2.797-0.367-4.201
		c0.601,0.421,1.237,0.797,1.904,1.132c6.333,7.878,14.477,16.104,23.563,20.583C72.904,36.441,70.698,36.563,68.494,36.642z
		 M77.106,36.177c0.08-0.306,0.036-0.646-0.327-0.886c-8.343-5.526-15.796-11.42-22.642-18.535c2.156,0.704,4.559,1.044,7.048,1.215
		c6.311,6.314,13.136,12.449,20.27,17.868C80.006,35.952,78.555,36.078,77.106,36.177z M84.051,35.636
		C77.32,29.48,69.82,24.169,62.983,18.089c2.15,0.059,4.363-0.028,6.574-0.196c3.302,3.266,6.698,6.432,10.172,9.516
		c2.9,2.575,6.032,5.596,9.423,7.788C87.451,35.345,85.751,35.495,84.051,35.636z M91.877,34.962
		c-3.352-3.171-7.511-5.72-11.087-8.615c-3.362-2.721-6.569-5.622-9.71-8.593c2.186-0.204,4.325-0.483,6.414-0.774
		c6.769,5.473,12.908,12.684,20.22,17.488C95.769,34.628,93.824,34.793,91.877,34.962z M100.838,34.227
		c-3.96-3.091-8.007-6.039-11.833-9.331c-3.267-2.811-6.575-5.575-10.051-8.121c2.529-0.366,4.837-0.705,6.966-0.984
		c6.393,6.444,13.059,12.84,20.497,18.048C104.559,33.954,102.7,34.084,100.838,34.227z M109.294,33.69
		c-7.634-5.761-14.964-11.591-21.922-18.086c0.244-0.028,0.542-0.075,0.777-0.1c2.01-0.213,4.071-0.403,6.119-0.6
		c6.216,6.58,13.405,12.933,20.691,18.57C113.072,33.524,111.184,33.592,109.294,33.69z M118.285,33.412
		c-6.771-6.846-15.263-12.34-22.556-18.651c1.81-0.169,3.651-0.315,5.484-0.468c7.434,6.11,14.298,12.897,21.552,19.183
		C121.272,33.447,119.781,33.4,118.285,33.412z M126.291,33.568c-7.059-7.135-15.174-13.546-23.324-19.424
		c2.858-0.228,5.742-0.428,8.637-0.606c3.945,3.228,7.87,6.481,11.674,9.875c3.689,3.292,6.821,7.325,10.373,10.734
		C131.204,33.886,128.751,33.679,126.291,33.568z M147.729,40.74c-0.06-0.078-0.141-0.098-0.217-0.13
		c-0.163-0.282-0.304-0.6-0.492-0.843c1.471-0.415,1.863-2.808,0.042-3.276c-3.557-0.913-7.132-1.572-10.721-2.046
		c-2.152-4.429-7.005-8.061-10.57-11.209c-3.951-3.488-8.136-6.703-12.407-9.791c2.555-0.147,5.129-0.213,7.698-0.311
		c15.596,13.42,31.575,26.035,44.832,41.913c0.6,0.718,1.816-0.228,1.293-0.998c-11.29-16.619-28.463-29.021-44.452-40.982
		c2.88-0.097,5.762-0.13,8.64-0.157c11.933,11.404,25.036,21.102,35.938,33.622c0.037,0.043,0.088,0.029,0.128,0.06
		c0.076,3.798,0.114,7.597,0.042,11.399c-0.016,0.868-0.062,1.751-0.103,2.633C160.706,54.096,153.479,48.221,147.729,40.74z
		 M150.999,61.327c-0.171-0.112-0.387-0.283-0.607-0.257c-0.041,0.005-0.051,0.052-0.087,0.066c-0.082-1.752-0.14-3.504-0.257-5.255
		c-0.026-0.394-0.048-0.91-0.07-1.47c2.945,2.453,5.717,5.085,8.36,7.894c2.55,2.71,5.134,6.53,8.43,8.362
		c-0.082,1.632-0.119,3.261-0.113,4.885c-0.544-0.423-1.099-0.823-1.532-1.2c-2.038-1.772-4.048-3.576-6.048-5.392
		c-1.906-1.73-3.814-3.455-5.681-5.227c-0.534-0.507-1.136-1.241-1.784-1.602c-0.214-0.119-0.385-0.276-0.561-0.431
		C151.141,61.588,151.163,61.433,150.999,61.327z M156.418,68.644c2.145,2.084,4.357,4.103,6.567,6.118
		c1.03,0.939,2.364,2.541,3.756,3.354c0.072,1.475,0.228,2.934,0.443,4.381c-1.811-1.391-3.695-2.703-5.486-4.06
		c-3.837-2.908-7.541-5.973-11.069-9.25c-0.083-2.233-0.16-4.468-0.257-6.701C151.457,64.629,155.551,67.801,156.418,68.644z
		 M166.882,68.585c-2.433-2.964-5.612-5.62-8.278-8.29c-2.69-2.694-5.521-5.404-8.697-7.564c-0.121-2.669-0.357-6.132-1.141-9.044
		c5.277,7.175,11.907,13.292,18.488,19.294C167.137,64.834,166.999,66.707,166.882,68.585z M166.024,145.45
		c-4.055-3.176-8.239-6.138-12.036-9.669c-0.382-0.355-0.93,0.192-0.571,0.572c3.578,3.779,7.426,7.612,11.724,10.64
		c-0.265,0.451-0.512,0.913-0.78,1.362c-1.022,1.712-2.126,3.38-3.381,4.932c1.886-2.334-5.62-12.836-6.754-14.996
		c-1.965-3.741-3.917-7.473-5.888-11.189c2.483,1.648,4.917,3.376,7.326,5.127c2.897,2.105,5.765,4.254,8.58,6.468
		c1.222,0.961,2.493,2.345,3.98,2.914C167.51,142.902,166.759,144.172,166.024,145.45z M168.935,140.282
		c-0.795-1.304-2.336-2.236-3.504-3.125c-2.909-2.214-5.897-4.326-8.912-6.393c-2.114-1.449-6.166-5.114-9.656-6.444
		c-2.371-4.414-4.798-8.784-7.382-13.052c10.829,7.848,21.085,16.523,32.145,23.993
		C170.748,136.946,169.842,138.615,168.935,140.282z M172.376,133.784c-10.361-9.334-22.445-17.379-34.295-24.813
		c-3.873-6.197-8.106-12.167-13.031-17.724c1.139,0.531,2.385,0.849,3.671,1.085c-0.312,0.116-0.525,0.497-0.22,0.815
		c12.667,13.212,29.679,27.496,47.096,34.268C174.53,129.54,173.46,131.666,172.376,133.784z M176.396,125.836
		c-16.738-10.105-32.596-20.045-47.157-33.414c2.143,0.332,4.422,0.374,6.758,0.217c13.168,11.023,28.782,18.72,42.456,29.13
		C177.773,123.128,177.076,124.478,176.396,125.836z M179.302,120.09c-10.812-12.086-28.871-18.1-41.906-27.548
		c2.567-0.235,5.153-0.619,7.607-0.936c0.011,0.01,0.009,0.025,0.021,0.034c6.419,4.805,12.701,9.799,18.982,14.784
		c5.128,4.07,10.218,9.12,15.996,12.282C179.771,119.168,179.533,119.627,179.302,120.09z M180.665,117.395
		c-4.479-4.68-10.468-8.444-15.602-12.341c-6.229-4.728-12.549-9.305-19.11-13.559c1.726-0.21,3.397-0.385,4.911-0.412
		c2.094-0.038,2.346-2.901,0.756-3.559c0.01-0.182-0.005-0.372,0-0.555c10.075,8.774,20.148,18.666,31.299,25.971
		C182.175,114.428,181.409,115.906,180.665,117.395z M183.789,111.202c-9.701-9.442-21.446-17.544-32.169-25.779
		c-0.08-2.678-0.476-5.455-0.645-8.063c2.043,4.198,10.208,9.489,12.269,11.16c7.045,5.707,15.174,12.911,23.807,16.171
		C185.955,106.857,184.876,109.031,183.789,111.202z M188.414,101.978c-0.209,0.41-0.411,0.824-0.619,1.234
		c-6.219-3.854-12.226-7.975-18.137-12.294c-4.101-2.997-8.108-6.116-12.028-9.346c-1.221-1.006-6.651-4.593-6.467-6.528
		c0.02-0.207-0.148-0.267-0.318-0.245c-0.055-1.424-0.112-2.848-0.164-4.273c5.097,5.21,10.944,10.497,17.078,14.618
		c0.208,0.889,0.358,1.79,0.656,2.659c-0.176,0.336-0.17,0.73,0.078,1.09c0.275,0.649,0.824,1.086,1.417,1.706
		c-0.005,0.446,0.277,0.907,0.822,0.932c2.784,0.128,5.564,0.182,8.346,0.212c2.52,3.154,6.38,6.588,10.405,7.805
		C189.083,100.503,188.726,101.367,188.414,101.978z M190.061,98.19c-1.7-0.782-3.439-1.441-5.071-2.413
		c-1.817-1.082-3.395-2.487-4.83-4.029c1.38,0.011,2.76,0.027,4.143,0.028c0.096,0,0.198,0.005,0.295,0.005
		c0.021,0.02,0.017,0.049,0.042,0.067c2.018,1.434,4.025,3.346,6.248,4.542C190.597,96.988,190.318,97.596,190.061,98.19z"/>
</g>
</svg>
