<?xml version="1.0" encoding="utf-8"?>
<!-- Generator: Adobe Illustrator 17.0.0, SVG Export Plug-In . SVG Version: 6.00 Build 0)  -->
<!DOCTYPE svg PUBLIC "-//W3C//DTD SVG 1.1//EN" "http://www.w3.org/Graphics/SVG/1.1/DTD/svg11.dtd">
<svg version="1.1" id="Capa_1" xmlns="http://www.w3.org/2000/svg" xmlns:xlink="http://www.w3.org/1999/xlink" x="0px" y="0px"
	 width="200px" height="200px" viewBox="0 0 200 200" enable-background="new 0 0 200 200" xml:space="preserve">
<g>
	<path d="M53.449,101.784c1.691-3.02,1.342-7.244,0.016-10.276c-0.792-1.81-2.376-3.54-4.383-3.913
		c-1.432-0.266-3.615,0.393-4.658,1.681c-4.266,0.075-7.366,4.427-6.871,9.007c0.157,1.454,0.699,2.698,1.461,3.752
		c-1.58,0.436-2.727,1.765-3.958,2.913c-2.328,2.17-4.536,4.473-6.775,6.734c-2.32,2.343-4.641,4.681-7.048,6.936
		c-1.63,1.528-4.373,2.992-5.102,5.166c-0.006,0.016,0.01,0.034,0.006,0.05c-0.651-0.302-1.332-0.533-2.063-0.58
		c-2.298-0.145-5.512,1.39-6.235,3.735c-2.667,1.167-3.887,4.797-3.009,8.23c1.499,5.858,8.643,7.81,13.383,4.462
		c4.186-2.956,3.851-9.039,1.265-12.93c-0.469-0.705-1.074-1.334-1.737-1.889c4.044-0.318,8.963-6.358,11.408-8.711
		c2.375-2.285,4.652-4.672,7.006-6.978c1.562-1.531,4.113-3.064,4.942-5.158c2.748,1.836,6.564,2.172,9.678,0.46
		c0.935-0.515,1.634-1.223,2.204-2.014C53.288,102.374,53.505,102.131,53.449,101.784z M8.06,135.101
		c-0.623-1.249-0.715-2.558-0.423-3.714c0.622,1.178,1.306,2.321,2.115,3.407c0.87,1.169,1.926,2.546,3.204,3.407
		C10.964,138.111,9,136.984,8.06,135.101z M14.504,138.05c-0.903-1.29-2.307-2.246-3.376-3.417
		c-1.219-1.336-2.185-2.869-3.025-4.467c0.281-0.47,0.644-0.884,1.093-1.212c0.219-0.005,0.441-0.015,0.663-0.115
		c0.075-0.034,0.13-0.091,0.2-0.13c1.013,1.732,2.045,3.451,3.174,5.112c0.796,1.171,1.665,2.514,2.693,3.619
		C15.477,137.718,14.999,137.923,14.504,138.05z M17.081,136.458c-0.029,0.033-0.065,0.048-0.094,0.08
		c-0.912-1.109-1.9-2.178-2.761-3.297c-1.234-1.604-2.343-3.3-3.441-5c0.379-0.078,0.777-0.128,1.212-0.112
		c0.628,0.024,0.642-0.776,0.169-1.012c0.24-0.169,0.497-0.314,0.78-0.422c1.531,2.751,3.125,5.641,4.988,8.171
		C17.748,135.438,17.485,135.983,17.081,136.458z M18.193,132.405c-1.284-2.006-2.829-3.918-4.207-5.841
		c1.096,0.093,2.074,0.998,2.682,1.831C17.473,129.495,18.052,130.948,18.193,132.405z M48.381,90.77
		c0.991-0.002,1.715,1.359,2.095,2.081c0.795,1.513,1.061,3.513,0.732,5.328c-0.549-0.653-1.11-1.29-1.623-1.906
		c-1.244-1.494-2.632-2.862-3.996-4.25C46.569,91.676,47.28,90.771,48.381,90.77z M40.819,98.707
		c-0.332-1.07-0.35-2.057-0.163-2.956c0.497,1.158,1.313,2.23,2.01,3.198c0.753,1.045,1.717,2.388,2.813,3.451
		C43.402,102.057,41.433,100.68,40.819,98.707z M47.796,102.321c-1.073-1.338-2.544-2.492-3.633-3.8
		c-0.881-1.057-2.476-2.735-2.985-4.213c0.215-0.388,0.533-0.705,0.835-1.034c1.335,1.763,2.674,3.523,4.016,5.28
		c0.838,1.097,1.631,2.337,2.529,3.453C48.308,102.122,48.061,102.249,47.796,102.321z M49.928,101.06
		c-0.904-1.151-1.989-2.223-2.882-3.289c-1.445-1.725-2.893-3.447-4.345-5.166c0.415-0.327,0.853-0.632,1.351-0.86
		c1.396,1.532,2.768,3.075,4.018,4.736c0.848,1.126,1.591,2.44,2.414,3.661c-0.169,0.291-0.276,0.621-0.5,0.872
		C49.967,101.033,49.945,101.041,49.928,101.06z"/>
	<path d="M196.446,45.7c-0.055-0.122-0.157-0.228-0.226-0.345c0.206-1.903-0.099-3.913-0.923-5.827
		c-2.53-5.877-9.222-6.286-13.878-2.79c-0.693,0.52-0.809,1.304-0.607,1.97c-1.382,0.563-2.304,1.601-2.834,2.864
		c-0.181-0.006-0.35,0.101-0.237,0.317c0.022,0.042,0.054,0.075,0.076,0.117c-0.571,1.719-0.458,3.791,0.348,5.742
		c1.385,3.352,4.116,5.628,7.277,6.138c-10.969,30.549-22.003,62.625-30.275,93.995c-0.166-0.091-0.309-0.22-0.502-0.251
		c-0.119-0.109-0.29-0.261-0.596-0.536c-0.73-0.657-1.435-1.328-2.131-2.022c-2.066-2.059-3.981-4.276-5.888-6.481
		c-4.657-5.384-8.724-11.193-13.035-16.838c1.458-1.685,2.417-3.858,2.616-6.01c0.506-5.485-3.705-9.484-9.172-8.98
		c-0.376,0.035-0.659,0.188-0.892,0.382c-3.595-2.074-7.039,2.149-7.826,5.924c-0.294,1.413-0.28,2.79-0.037,4.085
		c-0.048,0.009-0.096-0.003-0.143,0.014c-2.054,0.708-2.619,2.474-3.798,4.224c-2.172,3.223-4.768,6.147-7.422,8.975
		c-5.106,5.442-10.989,10.574-17.771,13.794c-0.943-0.496-2.024-0.813-3.195-0.898c-2.059-0.725-3.843-0.504-5.298,0.265
		c-6.364-5.462-11.715-11.174-16.797-17.956c-4.453-5.944-10.285-13.223-12.81-20.3c-0.176-0.494-1.005-0.612-1.12,0
		c-1.516,8.049,7.259,17.662,11.692,23.647c3.018,4.075,10.097,15.577,16.398,17.146c-2.34,3.824-1.79,9.913,3.379,12.021
		c4.683,1.91,9.623-1.541,10.971-5.98c0.715-2.355,0.256-4.48-0.951-6.059c6.569-2.047,12.263-7.158,17.026-11.829
		c2.611-2.561,9.849-9.021,11.074-13.895c1.54,2.542,4.221,4.314,7.645,4.456c1.71,0.071,3.262-0.48,4.594-1.387
		c3.797,7.169,8.477,13.598,13.82,19.749c1.692,1.948,5.776,8.103,9.229,7.699c-0.04,0.06-0.091,0.098-0.13,0.161
		c-0.629,0.248-1.229,0.632-1.711,1.278c-1.694,2.271-1.821,5.459-0.772,8.029c1.682,4.12,7.885,6.299,12.074,4.439
		c0.119-0.009,0.221-0.058,0.32-0.128c0.742-0.376,1.434-0.844,1.99-1.508c2.833-3.382,1.522-8.846-0.927-12.052
		c-2.016-2.64-5.261-3.69-7.955-2.602c15.323-28.276,23.111-63.293,31.823-94.078c0.069-0.244,0.075-0.464,0.057-0.671
		c0.571-0.152,1.145-0.34,1.718-0.615c2.854-1.37,4.569-3.716,5.231-6.387C196.381,46.642,196.67,46.189,196.446,45.7z
		 M81.665,155.026c-2.388-0.763-2.834-3.9-2.4-5.986c0.074-0.355,0.226-0.664,0.358-0.984c0.863,0.934,3.657,5.02,5.364,6.974
		C84.008,155.366,82.883,155.415,81.665,155.026z M87.291,153.425c-0.644-0.561-1.317-1.099-1.9-1.725
		c-1.401-1.504-2.579-3.24-3.551-5.045c-0.32-0.594-1.2-0.07-0.899,0.525c0.785,1.555,1.752,2.981,2.806,4.359
		c-0.67-0.729-1.339-1.458-1.953-2.215c-0.279-0.344-1.168-1.508-1.939-1.863c0.72-1.304,1.947-2.191,3.38-2.569
		c0.005,0.02-0.007,0.035,0.002,0.055c1.112,2.473,2.251,5.986,4.382,8.018C87.507,153.117,87.416,153.282,87.291,153.425z
		 M88.428,151.474c-0.802-0.828-1.592-1.659-2.266-2.679c-0.534-0.808-0.995-1.662-1.444-2.522c0.086,0.017,0.155,0.055,0.25,0.059
		C88.486,146.475,89.286,149.102,88.428,151.474z M127.52,121.587c-4.12,0.956-6.917-2.983-6.97-6.607
		c-0.002-0.133,0.018-0.276,0.023-0.413c2.073,2.417,4.236,5.06,7.024,6.382c0.555,0.263,1.253-0.473,0.704-0.912
		c-1.447-1.159-2.998-2.118-4.369-3.384c-1.115-1.029-2.165-2.127-3.235-3.205c0.166-0.936,0.534-1.846,1.007-2.664
		c1.156,1.891,2.643,3.633,4.089,5.272c1.258,1.425,2.488,3.141,3.954,4.418C129.083,120.978,128.355,121.393,127.52,121.587z
		 M130.879,119.4c-0.05-0.004-0.086,0.049-0.135,0.054c-1.034-1.186-2.299-2.241-3.399-3.333c-1.894-1.88-3.587-3.964-5.176-6.104
		c0.599-0.753,1.397-1.225,2.322-1.4c1.026,1.845,2.308,3.465,3.838,4.955c1.134,1.105,2.447,2.477,3.835,3.535
		C131.874,117.939,131.441,118.721,130.879,119.4z M132.541,115.026c-0.954-0.659-1.957-1.272-2.794-1.947
		c-1.214-0.977-2.292-2.085-3.282-3.269c3.405,0.103,6.062,1.333,6.087,5.099C132.552,114.949,132.541,114.987,132.541,115.026z
		 M155.48,160.828c-1.149-0.975-1.819-3.414-1.628-5.454c1.701,2.444,3.53,4.943,5.657,6.953
		C157.928,162.155,156.358,161.572,155.48,160.828z M162.335,152.48c1.326,1.458,2.176,3.635,2.183,5.7
		c-0.764-0.711-1.57-1.4-2.203-2.137c-1.3-1.515-2.405-3.189-3.44-4.902C159.989,150.833,161.093,151.113,162.335,152.48z
		 M157.13,152.26c0.285,0.057,0.483-0.241,0.35-0.486c0.213-0.139,0.419-0.213,0.628-0.318c1.005,1.82,2.083,3.595,3.29,5.295
		c0.756,1.064,1.685,2.492,2.806,3.446c-0.281,0.811-0.832,1.351-1.534,1.692c-0.893-0.953-1.829-1.878-2.67-2.85
		c-1.617-1.869-2.991-3.919-4.213-6.061c0.079-0.042,0.163-0.038,0.239-0.102c0.256-0.217,0.506-0.418,0.752-0.607
		C156.904,152.28,156.994,152.232,157.13,152.26z M187.705,50.558c-1.124-1.451-2.967-2.443-4.36-3.623
		c-1.063-0.9-2.075-1.862-3.039-2.871c-0.07-1.031,0.168-2.008,0.708-2.829c1.397,1.834,2.823,3.641,4.369,5.355
		c0.978,1.085,2.192,2.59,3.563,3.561C188.529,50.33,188.114,50.47,187.705,50.558z M190.524,49.189
		c-1.403-1.166-2.915-2.198-4.233-3.507c-1.646-1.635-3.17-3.398-4.687-5.156c0.241-0.222,0.488-0.441,0.805-0.613
		c0.225-0.035,0.456-0.121,0.692-0.296c0.327-0.243,0.661-0.454,0.997-0.654c1.149,1.445,2.289,2.898,3.487,4.303
		c1.217,1.428,2.557,3.25,4.114,4.552C191.356,48.309,191.012,48.803,190.524,49.189z M189.111,42.729
		c-1.366-1.384-2.632-2.86-3.916-4.32c0.778-0.334,1.552-0.471,2.314-0.502c1.036,1.376,2.151,2.686,3.288,3.985
		c0.642,0.733,1.328,1.658,2.069,2.518c-0.042,0.527-0.126,1.049-0.279,1.555C191.422,44.889,190.212,43.844,189.111,42.729z"/>
</g>
</svg>
