<?xml version="1.0" standalone="no"?>
<!DOCTYPE svg PUBLIC "-//W3C//DTD SVG 1.1//EN" "http://www.w3.org/Graphics/SVG/1.1/DTD/svg11.dtd" >
<svg xmlns="http://www.w3.org/2000/svg">
<metadata></metadata>
<defs>
<font id="adequateextra_light" horiz-adv-x="1619" >
<font-face units-per-em="2048" ascent="1638" descent="-410" />
<missing-glyph horiz-adv-x="737" />
<glyph horiz-adv-x="0" />
<glyph unicode="&#xd;" horiz-adv-x="505" />
<glyph horiz-adv-x="2048" />
<glyph horiz-adv-x="2048" />
<glyph unicode="&#x9;" horiz-adv-x="505" />
<glyph unicode="&#xa;" horiz-adv-x="2258" />
<glyph horiz-adv-x="2258" />
<glyph horiz-adv-x="1845" />
<glyph horiz-adv-x="1423" />
<glyph horiz-adv-x="1943" />
<glyph horiz-adv-x="1644" />
<glyph horiz-adv-x="2048" />
<glyph horiz-adv-x="1542" />
<glyph unicode=" "  horiz-adv-x="737" />
<glyph unicode="&#x09;" horiz-adv-x="737" />
<glyph unicode="&#xa0;" horiz-adv-x="737" />
<glyph unicode="!" horiz-adv-x="503" d="M164 68q0 35 25.5 60.5t62.5 25.5q35 0 61.5 -25.5t26.5 -60.5q0 -37 -26.5 -62.5t-61.5 -25.5q-37 0 -62.5 25.5t-25.5 62.5zM207 459v1181h65v-1116z" />
<glyph unicode="&#x22;" horiz-adv-x="514" d="M106 1161v477h87v-399zM305 1161v477h86v-399z" />
<glyph unicode="#" horiz-adv-x="1280" d="M74 545l8 53h201l79 481h-202l12 51h203l78 508h65l-78 -508h471l78 508h66l-78 -508h229l-12 -51h-229l-78 -481h229l-8 -53h-229l-86 -545h-66l86 545h-469l-88 -545h-68l88 545h-202zM350 598h471l78 481h-469z" />
<glyph unicode="$" horiz-adv-x="1587" d="M123 150l49 49q63 -43 138 -74t153 -52.5t154.5 -32.5t142.5 -13v772l-170 45q-100 27 -185.5 62.5t-146.5 84.5t-96 116t-35 157q0 111 58.5 186.5t149.5 123.5t203.5 70.5t221.5 24.5v186h61v-186q154 -4 300.5 -49t275.5 -139l-45 -45q-57 43 -124 74.5t-136.5 53 t-139 33t-131.5 15.5v-764l170 -45q98 -27 184.5 -62.5t151 -87t101 -119t36.5 -155.5q0 -111 -60.5 -187.5t-154.5 -126t-207.5 -72t-220.5 -24.5v-180h-61v180q-76 2 -159 13.5t-166 33t-162.5 54t-149.5 80.5zM193 1260q0 -80 37.5 -137.5t94 -97.5t122 -66.5 t118.5 -43.5q37 -10 72 -18t63 -16l60 -17v748q-61 -2 -132 -11.5t-141.5 -31t-133 -57t-105.5 -89.5q-25 -29 -40 -73.5t-15 -89.5zM821 27q70 2 144.5 12t144.5 31.5t130 56.5t103 86q23 29 40.5 72t17.5 90q0 80 -36 137t-88 97t-110.5 65.5t-103.5 40.5q-35 12 -65.5 20 t-59.5 17l-117 30v-755z" />
<glyph unicode="%" horiz-adv-x="1783" d="M82 1268q0 82 30.5 153.5t83 124.5t123 85t152.5 32t152.5 -32t123 -85t83 -124.5t30.5 -153.5q0 -80 -30.5 -153t-83 -127t-123 -86t-152.5 -32t-152.5 32t-123 86t-83 127t-30.5 153zM143 1268q0 -72 27 -135.5t73 -111.5t104.5 -77t123.5 -29q63 0 122.5 29t105.5 77 t73 111.5t27 135.5q0 70 -27 134t-72 112.5t-104 77t-125 28.5t-124 -28.5t-104 -77t-73 -113t-27 -133.5zM598 16l547 1672l49 -52l-547 -1671zM924 379q0 82 30.5 154.5t83 128t123 87t152.5 31.5t152.5 -31.5t122.5 -87t83 -128t31 -154.5q0 -80 -31 -152.5t-83 -127 t-122.5 -86t-152.5 -31.5t-152.5 31.5t-123 86t-83 127t-30.5 152.5zM985 379q0 -72 26.5 -136.5t71.5 -112.5t104.5 -76.5t125.5 -28.5q63 0 122.5 28.5t105.5 76.5t72.5 112.5t26.5 136.5q0 70 -26.5 135.5t-71.5 114.5t-104.5 78.5t-124.5 29.5q-66 0 -124.5 -29.5 t-104.5 -78.5t-72.5 -114.5t-26.5 -135.5z" />
<glyph unicode="&#x26;" horiz-adv-x="1681" d="M123 369q0 70 24.5 130t63.5 110t86 90t94 71q39 25 107.5 70t167.5 98q-45 47 -73 73.5t-46 47.5l-51 53q-41 51 -64.5 105.5t-23.5 132.5q0 70 28.5 128t78.5 101t118.5 66.5t146.5 23.5q80 0 145.5 -25.5t112.5 -67.5t73 -97.5t26 -114.5q0 -39 -11.5 -86 t-50.5 -102.5t-113.5 -119t-201.5 -134.5l645 -643q47 47 75.5 80.5t51.5 68.5l37 -37q-20 -33 -45 -64.5t-74 -84.5l231 -240l-71 -4l-203 205q-84 -68 -166 -113t-163 -71.5t-162.5 -38t-167.5 -11.5q-166 0 -282 32t-202 101q-74 61 -107.5 130t-33.5 137zM201 371 q0 -45 16 -84t41 -73t55.5 -60.5t59.5 -44.5q61 -41 156.5 -61.5t207.5 -20.5q160 0 312.5 48t312.5 171l-655 651q-141 -76 -237.5 -140.5t-157 -126t-86 -124t-25.5 -135.5zM469 1350q0 -37 7 -71t26.5 -69.5t53.5 -77.5t89 -96l80 -75q186 104 268 198t82 205 q0 57 -24.5 102t-64.5 78t-93 50.5t-109 17.5q-61 0 -118.5 -19.5t-100.5 -53.5t-69.5 -83t-26.5 -106z" />
<glyph unicode="'" horiz-adv-x="290" d="M102 1161v477h86v-399z" />
<glyph unicode="(" horiz-adv-x="471" d="M82 813q0 117 17.5 257t57.5 291.5t105.5 309.5t161.5 309h47q-123 -229 -174 -403q-61 -199 -91 -381t-30 -356q0 -428 113 -791q59 -195 172 -409h-53q-59 98 -104.5 206.5t-94.5 237.5q-74 186 -100.5 376.5t-26.5 352.5z" />
<glyph unicode=")" horiz-adv-x="471" d="M0 1982h47q96 -152 161.5 -309t105.5 -310t57.5 -293t17.5 -257q0 -74 -6 -163t-20.5 -183t-39 -192.5t-61.5 -190.5q-51 -129 -95 -237.5t-104 -206.5h-53q113 215 172 409q113 362 113 791q0 174 -31 356t-90 381q-27 88 -71 188.5t-103 216.5z" />
<glyph unicode="*" horiz-adv-x="989" d="M115 1382l18 56l348 -129l-18 364h65l-18 -364l346 129l18 -56l-356 -100l230 -283l-50 -34l-202 301l-205 -301l-49 34l229 283z" />
<glyph unicode="+" horiz-adv-x="1302" d="M82 713v59h536v471h66v-471h537v-59h-537v-469h-66v469h-536z" />
<glyph unicode="," horiz-adv-x="407" d="M61 -137l107 127q-29 8 -48.5 34.5t-19.5 57.5q0 41 28 68.5t69 27.5t69.5 -27.5t28.5 -68.5q0 -20 -8 -36.5t-21 -31.5l-157 -188z" />
<glyph unicode="-" horiz-adv-x="737" d="M20 625v57h697v-57h-697z" />
<glyph unicode="." horiz-adv-x="397" d="M92 82q0 41 27.5 68.5t68.5 27.5t69 -27.5t28 -68.5t-28 -69.5t-69 -28.5t-68.5 28.5t-27.5 69.5z" />
<glyph unicode="/" horiz-adv-x="894" d="M29 -262l784 2191l53 -45l-784 -2191z" />
<glyph unicode="0" horiz-adv-x="1773" d="M123 821q0 178 60.5 333t165 269.5t242.5 180t296 65.5q156 0 295 -65.5t243.5 -180t165 -269.5t60.5 -333t-60.5 -333.5t-165 -271.5t-244 -181.5t-294.5 -65.5q-158 0 -296 65.5t-242.5 181.5t-165 271.5t-60.5 333.5zM186 821q0 -158 55.5 -301t150.5 -252.5t222 -175 t273 -65.5q143 0 271 65.5t223.5 175t150.5 252.5t55 301q0 156 -54 299.5t-149.5 252t-223.5 174t-273 65.5t-272.5 -64.5t-222.5 -174t-150.5 -253t-55.5 -299.5z" />
<glyph unicode="1" horiz-adv-x="698" d="M41 1300l340 338h72v-1638h-68v1548l-299 -295z" />
<glyph unicode="2" horiz-adv-x="1597" d="M123 2v55l956 707q72 53 129.5 101t97.5 99.5t61.5 111t21.5 134.5q0 102 -63.5 178t-156 125.5t-198 74t-187.5 24.5q-63 0 -136 -10.5t-146.5 -30t-144 -48t-128.5 -67.5l-49 47q254 166 602 166q123 0 243 -30.5t215 -89t154.5 -143.5t59.5 -196q0 -86 -25.5 -154.5 t-78 -132t-134 -130t-194.5 -148.5l-803 -586h1256v-57h-1352z" />
<glyph unicode="3" horiz-adv-x="1599" d="M123 127l47 47q68 -41 144.5 -68.5t158.5 -45t165 -25.5t161 -8q70 0 174 19.5t201.5 63.5t167 116.5t69.5 181.5q0 76 -35 135t-91 102t-127 71.5t-141.5 46t-134 25t-106.5 7.5h-47v67h47q41 0 102.5 7.5t129 24.5t135 46t121 71t87 99t33.5 133q0 104 -64.5 175 t-157.5 114t-196.5 61.5t-183.5 18.5q-141 0 -289.5 -38t-267.5 -114l-45 43q135 86 285.5 126t304.5 40q131 0 254 -28.5t218 -83t151.5 -130t56.5 -170.5q0 -72 -23.5 -136t-81 -119.5t-150.5 -100.5t-230 -76q141 -23 239.5 -66.5t158.5 -102t87 -128t27 -139.5 q0 -111 -63.5 -189.5t-165 -130t-225.5 -76t-245 -24.5q-172 0 -346 41t-309 117z" />
<glyph unicode="4" horiz-adv-x="1599" d="M41 504l1149 1134h70v-1138h278v-58h-278v-440h-68v440h-1086zM137 500h1055v1054z" />
<glyph unicode="5" horiz-adv-x="1599" d="M123 127l47 49q135 -78 294 -113.5t312 -35.5q98 0 210 28.5t206 84t156.5 136t62.5 185.5q0 106 -62.5 189t-156.5 138.5t-206 84t-210 28.5q-59 0 -127.5 -11t-138.5 -30.5t-132.5 -46.5t-109.5 -57l-61 59l94 823h1016v-57h-957l-79 -745q131 68 251.5 95t243.5 27 q131 0 257 -35.5t224.5 -102t159 -160.5t60.5 -211q0 -90 -54.5 -176.5t-148.5 -154t-222 -108.5t-274 -41q-172 0 -346 41t-309 117z" />
<glyph unicode="6" horiz-adv-x="1640" d="M123 467q0 66 23.5 127t64.5 117l696 927h78l-561 -749q74 27 131 42t105.5 24.5t87 12.5t73.5 3q150 0 278 -43t221 -114t145.5 -162t52.5 -185q0 -96 -52.5 -185t-144.5 -159t-220 -112t-280 -42t-279.5 42t-221 112t-145.5 159t-52 185zM188 475q0 -100 54.5 -182 t142.5 -141.5t201.5 -92t230.5 -32.5t231.5 32.5t203.5 92t144.5 141.5t55.5 182t-55.5 181t-145.5 138.5t-203.5 88t-230.5 30.5t-229.5 -30.5t-201.5 -88t-143.5 -138.5t-54.5 -181z" />
<glyph unicode="7" horiz-adv-x="1339" d="M41 1581v57h1278l-897 -1638h-76l871 1581h-1176z" />
<glyph unicode="8" horiz-adv-x="1634" d="M123 389q0 143 141.5 262t456.5 195q-160 39 -266.5 82t-170 94t-90 110.5t-26.5 131.5q0 106 60.5 182t154.5 125t209 72.5t225 23.5q109 0 224.5 -22.5t211 -71.5t155.5 -126t60 -183q0 -72 -27.5 -132.5t-93 -111.5t-173 -94t-265.5 -80q317 -78 459.5 -196 t142.5 -261q0 -115 -65.5 -193.5t-166.5 -130t-224 -74t-240 -22.5q-115 0 -237.5 23.5t-224 74t-166 130t-64.5 192.5zM188 387q0 -72 34 -125t87 -94t122 -67.5t138.5 -43t133 -23.5t110.5 -7t111.5 6t135 22.5t139.5 43t124 66.5t89 95t34 127q0 61 -23.5 108.5t-61.5 84 t-84 65.5t-89 51q-45 23 -91 40.5t-98 31.5q-47 14 -91 27.5t-91 25.5q-47 -12 -91 -25.5t-91 -27.5q-51 -14 -97 -31.5t-92 -40.5q-43 -23 -89 -51.5t-83.5 -65t-61.5 -83.5t-24 -109zM233 1251q0 -57 24 -100t59.5 -75t78.5 -55.5t84 -41.5q41 -16 81 -30.5t91 -30.5 l166 -48l168 50q47 16 89 29.5t83 31.5q39 18 83 40.5t80 55.5t59.5 76t23.5 102q0 68 -32 121.5t-82 93t-114.5 66.5t-130 43t-127 23.5t-104.5 7.5q-41 0 -99.5 -6.5t-123 -20.5t-128 -39.5t-114.5 -65.5t-83 -96.5t-32 -130.5z" />
<glyph unicode="9" horiz-adv-x="1640" d="M123 1169q0 96 52 186.5t145.5 159t221.5 110.5t279 42q152 0 280 -42t220 -110.5t144.5 -159t52.5 -186.5q0 -129 -88 -243l-697 -928h-78l566 758q-133 -51 -224.5 -70.5t-175.5 -19.5q-152 0 -279.5 43t-221 113.5t-145.5 160.5t-52 186zM188 1163q0 -102 55.5 -183 t144.5 -137.5t203 -87t230 -30.5q117 0 229.5 30.5t201.5 87t144.5 137.5t55.5 183q0 100 -54.5 182t-143.5 140.5t-202.5 91.5t-230.5 33t-230.5 -33t-202.5 -91.5t-144.5 -140t-55.5 -182.5z" />
<glyph unicode=":" horiz-adv-x="397" d="M92 82q0 41 27.5 68.5t68.5 27.5t69 -27.5t28 -68.5t-28 -69.5t-69 -28.5t-68.5 28.5t-27.5 69.5zM92 1106q0 41 27.5 68.5t68.5 27.5t69 -27.5t28 -68.5t-28 -69.5t-69 -28.5t-68.5 28.5t-27.5 69.5z" />
<glyph unicode=";" horiz-adv-x="407" d="M61 -137l107 127q-29 8 -48.5 34.5t-19.5 57.5q0 41 28 68.5t69 27.5t69.5 -27.5t28.5 -68.5q0 -20 -8 -36.5t-21 -31.5l-157 -188zM98 1106q0 41 28 68.5t69 27.5t68.5 -27.5t27.5 -68.5t-27.5 -69.5t-68.5 -28.5t-69 28.5t-28 69.5z" />
<glyph unicode="&#x3c;" horiz-adv-x="1433" d="M92 807v57l1249 590v-65l-1173 -555l1173 -553v-64z" />
<glyph unicode="=" horiz-adv-x="1300" d="M82 481v54h1137v-54h-1137zM82 1014v53h1137v-53h-1137z" />
<glyph unicode="&#x3e;" horiz-adv-x="1433" d="M92 217v64l1174 553l-1174 555v65l1249 -590v-57z" />
<glyph unicode="?" horiz-adv-x="1503" d="M102 1516q135 86 287 119.5t324 33.5q111 0 228.5 -25.5t214.5 -76.5t160.5 -129.5t63.5 -182.5t-52 -171.5t-144 -114.5q-45 -25 -91 -42.5t-100 -33.5q-53 -16 -106 -30.5t-101 -31.5q-43 -12 -98 -33.5t-104 -58.5t-82 -90t-33 -127v-65h-68v73q0 80 32 138.5 t87 102.5t129 76t158 56l135 37q39 10 88 28.5t86 35.5q37 16 73 38.5t63.5 53t45 70.5t17.5 94q0 47 -19.5 91t-50.5 79q-49 51 -117.5 85.5t-142.5 56t-149.5 31t-141.5 9.5q-143 0 -282.5 -39t-255.5 -111zM344 68q0 35 25.5 60.5t62.5 25.5q35 0 60.5 -25.5t25.5 -60.5 q0 -37 -25.5 -62.5t-60.5 -25.5q-37 0 -62.5 25.5t-25.5 62.5z" />
<glyph unicode="@" horiz-adv-x="1986" d="M123 881q0 182 73.5 340.5t196.5 277.5t286 186.5t341 67.5q170 0 323.5 -62.5t269.5 -172t183.5 -259t67.5 -321.5q0 -92 -26 -187.5t-76 -173t-128 -128t-182 -50.5q-98 0 -159.5 35t-90.5 127q-57 -86 -127.5 -127t-171.5 -41q-80 0 -142.5 38t-104.5 96.5t-64.5 130 t-22.5 139.5q0 86 29 175t82 161.5t130 118.5t173 46q98 0 173 -60t110 -153l37 177h67l-88 -451q-23 -100 -22 -195q0 -39 16 -69.5t41.5 -52t57.5 -33.5t63 -12q94 0 163.5 45t114.5 115.5t67.5 155.5t22.5 167q0 162 -62.5 302t-169 244.5t-248.5 164t-302 59.5 q-174 0 -327.5 -63.5t-269.5 -175t-182.5 -263t-66.5 -326.5q0 -182 64.5 -337.5t179.5 -270t270.5 -180.5t337.5 -66q104 0 199.5 30t187.5 83l47 -45q-94 -55 -202.5 -87t-219.5 -32q-197 0 -364.5 68.5t-291.5 190.5t-193.5 289t-69.5 364zM637 807q0 -66 16.5 -129.5 t51 -114.5t88 -82.5t127.5 -31.5q82 0 142 44t100 110.5t59.5 145t19.5 148.5q0 61 -14.5 122.5t-46 111t-82.5 80t-123 30.5q-80 0 -142.5 -42t-106.5 -105.5t-66.5 -140t-22.5 -146.5z" />
<glyph unicode="A" d="M31 0l747 1638h62l749 -1638h-67l-228 496h-966l-228 -496h-69zM354 553h914l-459 1001z" />
<glyph unicode="B" horiz-adv-x="1581" d="M164 0v1638h780q86 0 163 -31.5t134 -87t91 -130t34 -160.5q0 -43 -12.5 -95.5t-42 -103.5t-76.5 -97t-115 -77q94 -23 163 -69t112 -104t63.5 -124t20.5 -125q0 -90 -35 -169t-95.5 -138t-141.5 -93t-173 -34h-870zM227 57h805q78 0 147.5 30t122 82t82 119.5 t29.5 145.5t-29.5 146.5t-84 120t-128 81t-161.5 29.5h-783v-754zM227 864h711q76 0 141.5 29t114.5 78t77.5 114.5t28.5 139.5t-28.5 138t-77.5 113.5t-115.5 77t-140.5 27.5h-711v-717z" />
<glyph unicode="C" horiz-adv-x="1642" d="M123 821q0 174 67.5 329t184.5 270.5t273.5 182t334.5 66.5q174 0 317.5 -60t260.5 -171l-45 -45q-104 98 -241.5 158.5t-291.5 60.5q-166 0 -310.5 -63.5t-252 -172t-169 -252t-61.5 -303.5t61.5 -303t169 -252.5t252 -173t310.5 -63.5q150 0 288 57t242 162l48 -45 q-117 -111 -266.5 -172.5t-311.5 -61.5q-178 0 -334.5 67.5t-273.5 183.5t-184.5 270.5t-67.5 330.5z" />
<glyph unicode="D" horiz-adv-x="1701" d="M164 0v1638h586q172 0 322.5 -64.5t263 -175t178 -260t65.5 -317.5q0 -170 -65.5 -319.5t-178 -261t-264 -176t-323.5 -64.5h-584zM225 57h533q158 0 295 62.5t239.5 167t160.5 242.5t58 292q0 152 -59 290t-160.5 242.5t-240 166t-293.5 61.5h-533v-1524z" />
<glyph unicode="E" horiz-adv-x="1478" d="M164 -2v1640h1233v-57h-1170v-723h1045v-57h-1045v-746h1170v-57h-1233z" />
<glyph unicode="F" horiz-adv-x="1406" d="M164 0v1638h1222v-57h-1159v-723h1035v-57h-1035v-801h-63z" />
<glyph unicode="G" horiz-adv-x="1839" d="M123 821q0 174 67.5 329t183 270.5t271.5 182t332 66.5q160 0 310.5 -61.5t268.5 -171.5l-45 -45q-106 104 -246.5 162.5t-287.5 58.5q-164 0 -307.5 -63.5t-250 -172t-168 -252t-61.5 -303.5t61.5 -304t168 -252.5t250 -173t307.5 -64.5q186 0 353 90t280 245v406h-520 v57h583v-823h-63v256q-147 -160 -310 -224.5t-323 -64.5q-176 0 -332 67.5t-271.5 183.5t-183 270.5t-67.5 330.5z" />
<glyph unicode="H" horiz-adv-x="1622" d="M164 0v1638h63v-804h1168v804h63v-1638h-63v776h-1168v-776h-63z" />
<glyph unicode="I" horiz-adv-x="583" d="M164 1581v57h256v-57h-94v-1524h94v-57h-254v57h96v1524h-98z" />
<glyph unicode="J" horiz-adv-x="1214" d="M0 135l49 49q72 -70 166 -113.5t205 -43.5q119 0 222 46t180 124.5t121 183t44 221.5v977h-96v57h160v-1042q0 -131 -48.5 -244.5t-133.5 -198.5t-200.5 -133.5t-248.5 -48.5q-119 0 -225.5 44t-194.5 122z" />
<glyph unicode="K" horiz-adv-x="1380" d="M164 0v1638h63v-966l985 966h74l-790 -774l884 -864h-77l-846 827l-230 -227v-600h-63z" />
<glyph unicode="L" horiz-adv-x="1376" d="M164 0v1638h63v-1581h1149v-57h-1212z" />
<glyph unicode="M" horiz-adv-x="2027" d="M164 0v1638h63l787 -1054l786 1054h64v-1638h-62v1544l-788 -1055l-789 1059v-1548h-61z" />
<glyph unicode="N" horiz-adv-x="1708" d="M164 -2v1640h72l1239 -1546v1546h69v-1640h-71l-1242 1552l2 -1552h-69z" />
<glyph unicode="O" horiz-adv-x="1943" d="M123 821q0 174 66.5 329t182 270.5t270.5 182t331 66.5q174 0 328.5 -66.5t270.5 -182t182.5 -270.5t66.5 -329q0 -176 -66.5 -330.5t-182.5 -270.5t-270.5 -183.5t-328.5 -67.5q-176 0 -331 67.5t-270.5 183.5t-182 270.5t-66.5 330.5zM188 821q0 -160 61.5 -304 t168 -253.5t249 -173t306.5 -63.5q162 0 304 63.5t248.5 173t168 253.5t61.5 304t-61.5 303.5t-168 252t-248.5 172t-304 63.5q-164 0 -306.5 -63.5t-249 -172t-168 -252t-61.5 -303.5z" />
<glyph unicode="P" horiz-adv-x="1513" d="M164 -2v1640h790q102 0 193.5 -38.5t159 -104t106.5 -155t39 -189.5t-39 -189.5t-106.5 -155t-158.5 -104t-194 -38.5h-727v-666h-63zM227 721h717q90 0 170 33.5t140.5 92t95 136.5t34.5 168q0 88 -33.5 166t-93 136t-139.5 93t-170 35h-721v-860z" />
<glyph unicode="Q" horiz-adv-x="1943" d="M123 821q0 174 66.5 329t182 270.5t270.5 182t331 66.5q174 0 328.5 -66.5t270.5 -182t182.5 -270.5t66.5 -329q0 -154 -55.5 -295t-172.5 -288l199 -199l-39 -41l-201 199q-147 -117 -286.5 -172.5t-292.5 -55.5q-176 0 -331 67.5t-270.5 183.5t-182 270.5t-66.5 330.5z M188 821q0 -160 61.5 -304t168 -253.5t249 -173t306.5 -63.5q137 0 267 48t271 165l-446 444l41 41l444 -444q111 147 158 276t47 264q0 160 -61.5 303.5t-168 252t-248.5 172t-304 63.5q-164 0 -306.5 -63.5t-249 -172t-168 -252t-61.5 -303.5z" />
<glyph unicode="R" horiz-adv-x="1540" d="M164 -2v1640h803q94 0 182 -37.5t154.5 -101t106.5 -147.5t40 -178q0 -68 -27.5 -139.5t-81 -134t-135.5 -113t-188 -74.5l481 -713h-84l-479 705h-711v-707h-61zM225 764h697q96 0 181 32.5t147.5 88t98 130.5t35.5 159q0 82 -33.5 156.5t-92 130t-135 88t-160.5 32.5 h-738v-817z" />
<glyph unicode="S" horiz-adv-x="1615" d="M123 166l51 49q70 -47 152 -83t165.5 -59.5t165.5 -34.5t152 -11q74 0 153.5 9t155.5 30.5t140.5 57.5t109.5 89q25 29 41 72t16 90q0 80 -36.5 137t-89 97t-113 65.5t-105.5 40.5q-35 12 -66.5 20t-60.5 17l-354 92q-102 27 -189 62.5t-150.5 84.5t-98.5 116t-35 157 q0 113 62.5 190.5t161 124.5t217 68.5t231.5 21.5q166 0 331.5 -43t321.5 -162l-45 -45q-68 51 -145.5 88t-157.5 59.5t-158 34t-143 11.5q-59 0 -136 -8.5t-154 -29t-146.5 -57t-116.5 -94.5q-25 -29 -41 -73.5t-16 -89.5q0 -80 38.5 -137.5t97 -98.5t125 -66.5 t121.5 -42.5q37 -10 72 -18t64 -16l297 -78q100 -27 188 -62.5t153.5 -87t104.5 -119t39 -155.5q0 -115 -65.5 -192.5t-166 -126t-221 -70t-229.5 -21.5q-82 0 -170 10.5t-176 34t-175 60.5t-167 92z" />
<glyph unicode="T" horiz-adv-x="1417" d="M20 1581v57h1377v-57h-658v-1581h-61v1581h-658z" />
<glyph unicode="U" horiz-adv-x="1728" d="M164 668v970h61v-979q0 -131 50.5 -245.5t138.5 -200.5t203.5 -136t248.5 -50q131 0 247 49t203 135t137 200.5t50 243.5v983h62v-968q0 -145 -54.5 -272.5t-148.5 -222.5t-221 -150.5t-275 -55.5q-147 0 -275 55.5t-223.5 149.5t-149.5 221t-54 273z" />
<glyph unicode="V" horiz-adv-x="1591" d="M31 1638h67l701 -1560l694 1560h68l-734 -1638h-59z" />
<glyph unicode="W" horiz-adv-x="2377" d="M31 1638h63l539 -1527l534 1527h47l531 -1527l539 1527h63l-575 -1638h-52l-526 1516l-539 -1516h-51z" />
<glyph unicode="X" horiz-adv-x="1447" d="M10 0l676 838l-645 800h78l606 -753l606 753h80l-645 -804l672 -834h-80l-629 786l-635 -786h-84z" />
<glyph unicode="Y" horiz-adv-x="1474" d="M20 1638h76l641 -866l637 866h80l-686 -925v-713h-61v713z" />
<glyph unicode="Z" horiz-adv-x="1347" d="M31 1581v57h1255l-1108 -1581h1139v-57h-1262l1114 1581h-1138z" />
<glyph unicode="[" horiz-adv-x="571" d="M82 -360v2340h489v-55h-409v-2228h409v-57h-489z" />
<glyph unicode="\" horiz-adv-x="894" d="M29 1884l53 45l784 -2191l-53 -45z" />
<glyph unicode="]" horiz-adv-x="571" d="M0 -303h410v2228h-410v55h489v-2340h-489v57z" />
<glyph unicode="^" horiz-adv-x="1257" d="M158 840l428 809h86l428 -809h-72l-399 751l-398 -751h-73z" />
<glyph unicode="_" horiz-adv-x="1355" d="M-18 -260h1388v-68h-1388v68z" />
<glyph unicode="`" horiz-adv-x="1280" d="M541 1798h71l262 -342h-63z" />
<glyph unicode="a" d="M102 649q0 141 53.5 265t145.5 216.5t216 145.5t265 53q82 0 170 -22.5t170 -69.5t154 -122t121 -179v360h59v-1294h-59v363q-53 -109 -126 -185t-155 -123t-168 -67.5t-166 -20.5q-141 0 -265 53.5t-216 145.5t-145.5 216t-53.5 265zM162 649q0 -125 49 -238.5 t133 -200.5t196.5 -138.5t241.5 -51.5t241 51.5t196 138.5t132 200.5t48 238.5t-48 240t-132 201t-197 137t-240 51t-240.5 -51t-197.5 -137t-133 -201t-49 -240z" />
<glyph unicode="b" d="M164 0v1751h59v-811q55 111 129 185.5t157 119.5t170 63.5t169 18.5q143 0 265 -56.5t212 -150.5t141.5 -219t51.5 -262q0 -129 -52.5 -250t-143.5 -214t-216 -149.5t-268 -56.5q-74 0 -158 18.5t-166 63.5t-157.5 120t-133.5 187v-358h-59zM217 635q0 -117 49 -227.5 t133 -196.5t198 -138.5t241 -52.5q129 0 241.5 52.5t196.5 138.5t132 197.5t48 230.5q0 129 -47 243.5t-129 203t-192.5 139.5t-239.5 51q-127 0 -241.5 -47t-201 -132t-137.5 -203t-51 -259z" />
<glyph unicode="c" horiz-adv-x="1333" d="M102 649q0 141 53.5 265t145.5 216.5t218 145.5t274 53q137 0 257.5 -54t221.5 -155l-43 -41q-86 92 -200 145.5t-236 53.5q-133 0 -249 -51t-200 -137t-132 -201t-48 -240t48 -238.5t132 -200.5t198.5 -138.5t250.5 -51.5q57 0 119.5 15.5t121 42t109.5 64.5t86 83 l43 -43q-45 -51 -101.5 -91t-119 -66.5t-129 -41t-129.5 -14.5q-147 0 -273.5 53.5t-219.5 145.5t-145.5 216t-52.5 265z" />
<glyph unicode="d" d="M102 639q0 139 50.5 264t140.5 219.5t215 149.5t274 55q82 0 168 -20.5t167 -65.5t152.5 -119.5t127.5 -181.5v809h59v-1751h-59v362q-53 -104 -123 -177.5t-151 -122t-168 -70t-173 -21.5q-137 0 -260 52.5t-216 142.5t-148.5 212t-55.5 263zM164 639q0 -127 49 -238.5 t134 -196.5t196.5 -134.5t238.5 -49.5t240 50.5t197 134.5t132 195.5t48 234.5q0 137 -48 254t-132 203t-197 135t-240 49q-137 0 -250.5 -52.5t-195.5 -139.5t-127 -202.5t-45 -242.5z" />
<glyph unicode="e" horiz-adv-x="1562" d="M102 649q0 141 53.5 265t145.5 216.5t216 145.5t265 53t264 -54t215.5 -147.5t145.5 -216.5t53 -260v-24h-1298q8 -123 58 -233.5t133 -193.5t192.5 -131.5t236.5 -48.5q111 0 209.5 39t184.5 109l41 -41q-92 -76 -204 -117t-231 -41q-141 0 -265 54.5t-216 146.5 t-145.5 216t-53.5 263zM162 676h1239q-8 123 -58.5 232.5t-133.5 191.5t-192.5 130t-234.5 48q-127 0 -236.5 -49t-193.5 -132t-134 -192.5t-56 -228.5z" />
<glyph unicode="f" horiz-adv-x="798" d="M41 1247v51h149v132q0 70 27 132t74 108t110.5 72.5t137.5 26.5q82 0 149.5 -37.5t110.5 -84.5l-39 -39q-14 18 -38 37.5t-53.5 36t-62.5 26.5t-65 10q-61 0 -113.5 -23.5t-91.5 -62.5t-61.5 -92t-22.5 -110v-132h467v-51h-467v-1247h-62v1247h-149z" />
<glyph unicode="g" horiz-adv-x="1525" d="M123 725q0 125 49 235.5t133 192.5t197.5 129t242.5 47q63 0 140.5 -17.5t153 -55t144 -101t117.5 -156.5v297h62v-1159q0 -129 -46 -239.5t-128 -190.5t-196.5 -125t-250.5 -45q-119 0 -216 34t-177 97l45 45q66 -53 155 -89t193 -36q117 0 219.5 42t178 116t120 174 t44.5 217l-3 334q-45 -102 -113.5 -171t-145 -109.5t-154.5 -58t-142 -17.5q-129 0 -242.5 49t-197.5 132t-133 193.5t-49 235.5zM182 725q0 -117 44 -218t121 -177t179.5 -119t218.5 -43q117 0 219.5 43t179.5 119t122 177t45 218t-45 217t-122 175t-179.5 117t-219.5 42 t-219 -42t-179 -117t-121 -175t-44 -217z" />
<glyph unicode="h" horiz-adv-x="1501" d="M164 0v1751h61v-729q127 168 256 236.5t281 68.5q129 0 237.5 -44t185.5 -121t120 -180t43 -222v-760h-62v752q0 113 -41 208t-111.5 165.5t-167 110.5t-206.5 40q-104 0 -200.5 -40t-170.5 -109.5t-118 -165t-44 -207.5l-2 -754h-61z" />
<glyph unicode="i" horiz-adv-x="442" d="M100 1243v53h158v-1296h-63v1243h-95zM113 1690q0 35 22.5 57t54.5 22q33 0 55.5 -22t22.5 -57q0 -33 -22.5 -55.5t-55.5 -22.5t-55 22.5t-22 55.5z" />
<glyph unicode="j" horiz-adv-x="616" d="M-209 -362l41 40q35 -41 94.5 -75.5t130.5 -34.5q68 0 124.5 25.5t96 68.5t62 97.5t22.5 113.5v1376h-94v51h156v-1419q0 -74 -27.5 -140.5t-77 -116.5t-116 -79.5t-146.5 -29.5t-148.5 34.5t-117.5 88.5zM276 1690q0 35 23 57t55 22q33 0 56.5 -22t23.5 -57 q0 -33 -23.5 -55.5t-56.5 -22.5t-55.5 22.5t-22.5 55.5z" />
<glyph unicode="k" horiz-adv-x="1183" d="M164 0v1751h61v-1249l826 796h67l-629 -606l725 -692h-65l-694 659l-230 -221v-438h-61z" />
<glyph unicode="l" horiz-adv-x="782" d="M72 1700v51h178v-1442q0 -53 20.5 -104t58.5 -92t91 -65.5t121 -24.5q86 0 144 30.5t95 73.5l43 -41q-55 -55 -117.5 -88t-164.5 -33q-74 0 -138.5 27.5t-111.5 74t-75 109t-28 129.5v1395h-116z" />
<glyph unicode="m" horiz-adv-x="2443" d="M164 0v1296h61v-295q37 88 90.5 150.5t117 101.5t135 57.5t143.5 18.5q74 0 148.5 -21.5t143 -68.5t126 -119.5t98.5 -177.5q72 199 205 293t311 94q111 0 210 -44t174 -121t119 -182t44 -230v-752h-62v739q0 117 -40 215.5t-106.5 171t-154.5 112.5t-186 40t-185.5 -40 t-154 -110.5t-105.5 -167t-39 -208.5v-752h-59v739q0 117 -39 215.5t-106.5 171t-155.5 112.5t-186 40q-100 0 -188.5 -40t-154 -109.5t-103.5 -166t-38 -208.5l-2 -754h-61z" />
<glyph unicode="n" horiz-adv-x="1501" d="M164 0v1296h61v-280q41 74 99.5 132t129 98t149.5 61.5t161 21.5q125 0 232.5 -43t185.5 -121t122 -184.5t44 -235.5v-745h-62v739q0 125 -42 224.5t-113.5 169t-167 107.5t-201.5 38q-104 0 -200.5 -42t-171.5 -112.5t-120 -164t-45 -197.5v-762h-61z" />
<glyph unicode="o" horiz-adv-x="1562" d="M102 649q0 141 53.5 265t145.5 216.5t216 145.5t265 53t264 -53t215.5 -145.5t145.5 -216.5t53 -265t-53 -265t-145.5 -216t-215 -145.5t-264.5 -53.5q-141 0 -265 53.5t-216 145.5t-145.5 216t-53.5 265zM162 649q0 -125 49 -238.5t133 -200.5t196.5 -138.5t241.5 -51.5 q127 0 240 51.5t197 138.5t133 200.5t49 238.5t-49 240t-133 201t-197 137t-240 51t-240.5 -51t-197.5 -137t-133 -201t-49 -240z" />
<glyph unicode="p" d="M164 -453v1749h59v-344q66 113 142.5 186.5t156.5 115.5t161 58.5t155 16.5q141 0 265 -53t216 -145.5t145.5 -214.5t53.5 -259t-53.5 -262t-145.5 -219t-216 -150.5t-265 -56.5q-80 0 -165 20.5t-166 66.5t-154.5 120t-129.5 182v-811h-59zM219 649q0 -123 48 -236.5 t131 -200.5t196 -139.5t244 -52.5t243.5 52.5t196.5 139.5t132 200.5t48 236.5t-48 236.5t-132 201t-196.5 139.5t-243.5 52t-244 -52t-196 -139.5t-131 -201t-48 -236.5z" />
<glyph unicode="q" d="M102 657q0 137 53.5 259t145.5 214.5t216 145.5t265 53q78 0 162 -19.5t165 -65.5t155.5 -119.5t132.5 -180.5v352h59v-1749h-59v807q-61 -115 -138 -188.5t-158 -117.5t-163 -61.5t-156 -17.5q-141 0 -265 54.5t-216 147.5t-145.5 218t-53.5 268zM164 653 q0 -123 47 -237.5t130 -201.5t195.5 -140.5t245.5 -53.5q129 0 242 51.5t196 138.5t131 202.5t48 242.5q0 123 -48 236t-132 199t-196 137t-241 51t-241.5 -51t-196.5 -138.5t-132 -200t-48 -235.5z" />
<glyph unicode="r" horiz-adv-x="1161" d="M164 0v1296h59v-286q45 84 108.5 144t136.5 99t147.5 57.5t142.5 18.5q135 0 240.5 -48t183.5 -124l-43 -45q-31 35 -76 65.5t-95 53t-104.5 35t-105.5 12.5q-78 0 -170 -33t-172 -95.5t-134.5 -155.5t-54.5 -216l-2 -778h-61z" />
<glyph unicode="s" horiz-adv-x="1388" d="M102 993q0 88 56.5 151.5t142.5 104.5t188.5 60.5t192.5 19.5q68 0 140.5 -8t144 -26.5t142.5 -49.5t132 -76l-47 -45q-55 39 -121.5 69t-134.5 48.5t-134.5 27.5t-123.5 9q-51 0 -116.5 -9t-131 -29.5t-125 -53.5t-98.5 -78q-16 -20 -31.5 -51t-15.5 -66q0 -45 19.5 -81 t50 -64.5t69.5 -49t80 -34.5l108 -35q29 -8 55.5 -14t53.5 -11l289 -67q74 -18 145.5 -45t128 -66t91 -92t34.5 -125q0 -98 -63.5 -163.5t-155.5 -104.5t-197.5 -54.5t-187.5 -15.5q-135 0 -283.5 35t-283.5 127l45 47q61 -43 128.5 -72.5t136.5 -49t135.5 -28t123.5 -8.5 q49 0 116.5 7.5t137.5 26t134.5 50t107.5 80.5q18 23 32.5 53.5t14.5 65.5q0 66 -41 114t-100.5 81.5t-127 55t-120.5 34.5l-336 76q-76 18 -147.5 44.5t-128 65.5t-90.5 93.5t-34 125.5z" />
<glyph unicode="t" horiz-adv-x="940" d="M72 1241v45h145v244l59 59v-303h529v-45h-529v-854q0 -80 30 -146.5t79 -115.5t114.5 -77t137.5 -28q37 0 77 10.5t74.5 28t65.5 40t49 44.5l37 -37q-49 -53 -130 -95t-173 -42q-82 0 -158 31t-134 86t-93 130t-35 163v862h-145z" />
<glyph unicode="u" horiz-adv-x="1501" d="M154 559v739h61v-739q0 -125 45 -224t119 -169t169 -108t197 -38q100 0 196.5 40t170.5 110t119 163t45 202v763h61v-1296h-61l2 279q-43 -74 -102.5 -131.5t-130 -97.5t-147.5 -61.5t-153 -21.5q-129 0 -237.5 41t-187 118t-122.5 186.5t-44 244.5z" />
<glyph unicode="v" horiz-adv-x="1277" d="M20 1298h68l543 -1226l559 1226h67l-598 -1298h-61z" />
<glyph unicode="w" horiz-adv-x="1921" d="M20 1298h68l420 -1212l424 1212h57l422 -1212l420 1212h70l-455 -1298h-68l-417 1217l-420 -1217h-66z" />
<glyph unicode="x" horiz-adv-x="1191" d="M0 0l555 664l-532 634h79l494 -587l494 587h79l-534 -634l557 -664h-80l-516 614l-516 -614h-80z" />
<glyph unicode="y" horiz-adv-x="1306" d="M20 1298h76l549 -1175l567 1175h74l-846 -1753h-71l245 508z" />
<glyph unicode="z" horiz-adv-x="1155" d="M0 -2l995 1247h-942v51h1063l-995 -1245h1014v-53h-1135z" />
<glyph unicode="{" horiz-adv-x="669" d="M82 776v80q113 45 149.5 115.5t36.5 169.5v545q0 82 18.5 139t61.5 93t111.5 52.5t167.5 16.5h43v-48q-80 0 -141.5 -9t-102.5 -36.5t-61.5 -77t-20.5 -130.5v-541q0 -76 -13.5 -127t-38 -87t-58 -62.5t-72.5 -51.5q39 -23 72.5 -53.5t58 -71.5t38 -95t13.5 -124v-522 q0 -39 4 -84t27 -80q20 -31 55 -49.5t75 -28.5t83 -13t82 -3v-49q-98 0 -173 11t-126.5 45t-77 94.5t-25.5 160.5v512q0 100 -36.5 180t-149.5 129z" />
<glyph unicode="|" horiz-adv-x="471" d="M205 -358v2340h61v-2340h-61z" />
<glyph unicode="}" horiz-adv-x="669" d="M0 -356l2 49q39 0 81 3t82 13t74.5 28.5t57.5 49.5q23 35 27 80t4 84v522q0 141 51 220t129 124q-39 25 -72 50.5t-57.5 62.5t-37.5 88t-13 127v541q0 82 -20.5 131t-62.5 76.5t-103.5 36.5t-141.5 9v48h45q98 0 166 -16.5t111 -52.5t61 -93.5t18 -138.5v-545 q0 -98 37 -169t150 -116v-80q-57 -25 -93 -57.5t-56.5 -71.5t-29 -85t-8.5 -95v-512q0 -100 -25.5 -160.5t-76.5 -94.5t-126 -45t-173 -11z" />
<glyph unicode="~" horiz-adv-x="1755" d="M248 1599q31 55 62.5 99.5t69.5 73t86 44t112 15.5q74 0 151.5 -31t157.5 -69q39 -18 78 -37t73 -33q76 -35 144 -35q90 2 139 46t90 110l29 -33q-31 -49 -60.5 -89t-63.5 -66.5t-76 -41t-97 -14.5q-57 0 -131 33q-37 16 -76 35.5t-80 42.5q-86 43 -165 78.5t-150 35.5 q-49 0 -88 -16t-71 -43t-57.5 -62.5t-50.5 -72.5z" />
<glyph horiz-adv-x="2258" />
<glyph unicode="&#xa1;" horiz-adv-x="503" d="M164 1552q0 37 25.5 62.5t62.5 25.5q35 0 61.5 -25.5t26.5 -62.5q0 -35 -26.5 -61.5t-61.5 -26.5q-37 0 -62.5 26.5t-25.5 61.5zM231 -20v1114l64 65v-1179h-64z" />
<glyph unicode="&#xa2;" horiz-adv-x="1333" d="M102 649q0 133 47.5 251t131.5 209t197.5 148.5t248.5 69.5v186h61v-184h5q137 0 257.5 -54t221.5 -155l-43 -41q-86 92 -200 145.5t-236 53.5h-5v-1258h5q57 0 119.5 15.5t121 42t109.5 64.5t86 83l43 -43q-45 -51 -101.5 -91t-119 -66.5t-129 -41t-129.5 -14.5h-5v-182 h-61v184q-135 12 -250 69.5t-197.5 149t-130 209t-47.5 250.5zM164 649q0 -117 42 -225.5t117.5 -192.5t178 -139t225.5 -67v1249q-121 -12 -224.5 -67.5t-179 -139.5t-117.5 -191.5t-42 -226.5z" />
<glyph unicode="&#xa3;" horiz-adv-x="1638" d="M61 0v61q96 53 157 108.5t88.5 133.5t21.5 188.5t-43 276.5h-197v57h182q-37 137 -57 227.5t-20 172.5q0 125 58 210t153.5 136t215 73.5t242.5 22.5q178 0 333 -46t302 -157l-45 -45q-129 98 -286.5 144.5t-305.5 46.5q-82 0 -186.5 -17.5t-196.5 -60.5t-155.5 -119 t-63.5 -192q0 -80 22.5 -171.5t53.5 -224.5h753v-57h-739q33 -147 41 -258t-13.5 -194t-74.5 -145t-141 -114h1356v-57h-1455z" />
<glyph unicode="&#xa4;" horiz-adv-x="1607" d="M-20 612l55 58h65q-14 66 -14 151q0 72 16 160h-122l55 57h80q37 135 115.5 251t187 201t244 132t284.5 47q174 0 318.5 -60t261.5 -171l-47 -45q-104 98 -241.5 158.5t-291.5 60.5q-137 0 -259 -44t-221 -121t-172 -181.5t-110 -227.5h881l-59 -57h-836 q-16 -88 -16 -160q0 -86 14 -151h567l-59 -58h-494q35 -123 106.5 -230.5t172 -185t223.5 -122.5t262 -45q150 0 288 57t243 162l47 -45q-117 -111 -266.5 -172.5t-311.5 -61.5q-150 0 -286 48.5t-246.5 134.5t-188.5 203.5t-112 256.5h-133z" />
<glyph unicode="&#xa5;" horiz-adv-x="1474" d="M20 1638h78l639 -866l641 866h76l-541 -735h375v-57h-418l-100 -133v-189h518v-57h-518v-467h-63v467h-523v57h523v189l-103 133h-420v57h379z" />
<glyph unicode="&#xa6;" horiz-adv-x="473" d="M205 346h63v-706h-63v706zM205 920v768h63v-768h-63z" />
<glyph unicode="&#xa7;" horiz-adv-x="1284" d="M90 760q0 55 14.5 102t47 93t86 94.5t131.5 103.5q-72 55 -92.5 118.5t-20.5 114.5q0 129 108.5 206t313.5 77q123 0 240.5 -43t218.5 -129l-52 -47q-180 162 -407 162q-162 0 -258 -59.5t-96 -166.5q0 -66 24.5 -108.5t73.5 -81.5q23 -16 48.5 -30.5t47.5 -28.5l78 -45 q57 -31 134 -70t155 -86q80 -45 144.5 -90t105.5 -92q29 -33 45 -80t16 -88q0 -55 -14.5 -105.5t-46 -98.5t-85 -98.5t-130.5 -107.5q96 -70 127.5 -134.5t31.5 -143.5q0 -61 -28.5 -117.5t-84 -97.5t-136 -66t-185.5 -25q-123 0 -240.5 39t-222.5 131l49 52 q92 -76 195.5 -119t216.5 -43q57 0 122.5 12t121 41t91.5 77t36 122q0 35 -23.5 87t-81.5 99q-74 59 -178 117.5t-209 114.5l-155 90q-86 47 -123 78.5t-66 60.5q-31 33 -59.5 83t-28.5 126zM156 780q0 -68 26.5 -118t65.5 -87q18 -18 38.5 -33.5t41.5 -29.5l80 -45 l469 -262q117 86 185 175t68 193q0 98 -72.5 166t-189.5 129q-47 27 -105 58.5t-118.5 65.5l-121 68t-113.5 64q-51 -35 -97.5 -73.5t-81 -82.5t-55 -91.5t-20.5 -96.5z" />
<glyph unicode="&#xa8;" horiz-adv-x="1562" d="M575 1528q0 31 23 52.5t53 21.5q31 0 52.5 -21.5t21.5 -52.5t-21.5 -52.5t-52.5 -21.5t-53.5 21.5t-22.5 52.5zM893 1528q0 31 22.5 52.5t53.5 21.5t52 -21.5t21 -52.5t-21.5 -52.5t-51.5 -21.5q-31 0 -53.5 21.5t-22.5 52.5z" />
<glyph unicode="&#xa9;" horiz-adv-x="1943" d="M123 821q0 174 66.5 329t182 270.5t270.5 182t331 66.5q174 0 328.5 -66.5t270.5 -182t182.5 -270.5t66.5 -329q0 -176 -66.5 -330.5t-182.5 -270.5t-270.5 -183.5t-328.5 -67.5q-176 0 -331 67.5t-270.5 183.5t-182 270.5t-66.5 330.5zM172 821q0 -166 62.5 -313.5 t170 -258t254 -175t314.5 -64.5t313.5 64.5t253 175t170 258t62.5 313.5q0 164 -62.5 310.5t-170 257t-254 175t-312.5 64.5q-168 0 -313.5 -64.5t-254 -175t-171 -257t-62.5 -310.5zM432 819q0 113 43 212t118 173t174 116t214 42q113 0 208 -43t165 -109l-47 -45 q-59 61 -143.5 100.5t-182.5 39.5t-185 -40t-152.5 -106.5t-103.5 -155t-38 -184.5t38 -184t102.5 -155.5t152.5 -107.5t186 -40q92 0 179 39t149 104l47 -45q-68 -70 -168.5 -113t-206.5 -43q-115 0 -214 43t-174 117t-118 173.5t-43 211.5z" />
<glyph unicode="&#xaa;" horiz-adv-x="802" d="M61 1331q0 68 27 127.5t73 105.5t107.5 72.5t132.5 26.5q37 0 78 -10.5t81 -30.5t75 -53t59 -78v147h47v-612h-47v145q-49 -86 -132 -128t-161 -42q-72 0 -133 27t-107 72t-73 105.5t-27 125.5zM102 690v47h639v-47h-639zM106 1331q0 -57 23 -109.5t62.5 -92t94 -63.5 t115.5 -24t114.5 24t93.5 63.5t62.5 92t22.5 109.5t-22.5 110.5t-62.5 93.5t-93 63.5t-115 23.5q-61 0 -114.5 -23.5t-93 -63.5t-63.5 -93t-24 -111z" />
<glyph unicode="&#xab;" horiz-adv-x="962" d="M82 571v60l348 311v-84l-287 -260l287 -254v-82zM532 571v60l349 311v-84l-287 -260l287 -254v-82z" />
<glyph unicode="&#xac;" horiz-adv-x="1333" d="M82 594v57h1169v-651h-61v594h-1108z" />
<glyph unicode="&#xad;" horiz-adv-x="737" d="M20 625v57h697v-57h-697z" />
<glyph unicode="&#xae;" horiz-adv-x="1943" d="M123 821q0 174 66.5 329t182 270.5t270.5 182t331 66.5q174 0 328.5 -66.5t270.5 -182t182.5 -270.5t66.5 -329q0 -176 -66.5 -330.5t-182.5 -270.5t-270.5 -183.5t-328.5 -67.5q-176 0 -331 67.5t-270.5 183.5t-182 270.5t-66.5 330.5zM172 821q0 -166 62.5 -313.5 t170 -258t254 -175t314.5 -64.5t313.5 64.5t253 175t170 258t62.5 313.5q0 164 -62.5 310.5t-170 257t-254 175t-312.5 64.5q-168 0 -313.5 -64.5t-254 -175t-171 -257t-62.5 -310.5zM621 334v989h475q55 0 103 -23.5t84 -63.5t57.5 -91t21.5 -107q0 -39 -11.5 -82 t-38 -81.5t-70.5 -69.5t-109 -45l286 -424h-59l-287 418h-393v-420h-59zM680 805h391q53 0 96 18.5t74 50t47.5 73.5t16.5 91q0 47 -18.5 90t-50.5 75t-74 50.5t-89 18.5h-393v-467z" />
<glyph unicode="&#xaf;" horiz-adv-x="1501" d="M340 1454v57h805v-57h-805z" />
<glyph unicode="&#xb0;" horiz-adv-x="991" d="M82 1257q0 86 32.5 161t89 131.5t132.5 89t162 32.5t160.5 -32.5t131 -89t89 -131.5t32.5 -161t-32.5 -161.5t-89 -132t-131 -89t-160.5 -32.5t-162 32.5t-132.5 89t-89 132t-32.5 161.5zM143 1257q0 -74 28 -138t76 -112.5t112.5 -76t138.5 -27.5t137 27.5t111.5 76 t76 112.5t27.5 138t-27.5 137.5t-76 111.5t-112 76t-136.5 28q-74 0 -138.5 -28t-112.5 -76t-76 -111.5t-28 -137.5z" />
<glyph unicode="&#xb1;" horiz-adv-x="1302" d="M82 2v55h1139v-55h-1139zM82 754v59h534v457h70v-457h535v-59h-535v-455h-70v455h-534z" />
<glyph unicode="&#xb2;" horiz-adv-x="899" d="M82 889v45l242 160q45 31 90 60.5t80.5 53t59.5 39t28 19.5q16 10 33.5 22t33.5 25q31 27 56.5 60.5t25.5 78.5q0 43 -28.5 76t-71.5 54.5t-93.5 31.5t-95.5 10q-72 0 -142.5 -19.5t-147.5 -60.5l-39 37q92 47 167.5 68.5t161.5 21.5q63 0 126 -14.5t111 -42t77.5 -66.5 t29.5 -90q0 -74 -51 -131t-157 -127l-408 -268h647v-43h-735z" />
<glyph unicode="&#xb3;" horiz-adv-x="835" d="M82 971l37 35q78 -41 152.5 -57.5t146.5 -16.5q45 0 94 12t90 33.5t68.5 50.5t27.5 64q0 39 -30.5 70.5t-75.5 52t-95.5 31.5t-88.5 11h-35l-2 50h37q37 0 85 10t91 30.5t71.5 50t28.5 70.5q0 33 -24.5 63t-63.5 51.5t-88 33.5t-98 12q-59 0 -125 -19.5t-140 -62.5 l-36 37q86 49 158.5 67.5t138.5 18.5q68 0 128 -15.5t106 -43t72.5 -63.5t26.5 -79q0 -47 -47 -102t-164 -86q61 -14 104.5 -36.5t70 -48.5t39 -52t12.5 -49q0 -47 -30 -86t-79 -66t-111.5 -41t-125.5 -14q-72 0 -155 19.5t-171 64.5z" />
<glyph unicode="&#xb4;" d="M719 1456l264 342h72l-271 -342h-65z" />
<glyph unicode="&#xb5;" horiz-adv-x="1470" d="M164 -455v1753h59v-759q0 -135 52.5 -230.5t130 -157t170 -89t169.5 -27.5q88 0 177.5 29.5t161 91t117.5 157t46 226.5v155v604h60v-1300h-62v285q-49 -100 -128 -167t-173 -100.5t-197.5 -33.5t-200.5 32.5t-181 100t-142 168.5v-738h-59z" />
<glyph unicode="&#xb6;" horiz-adv-x="1249" d="M0 1155q0 98 40 186.5t108.5 154t160.5 103t197 37.5h620v-59h-131v-1937h-61l-2 1937h-295v-1937h-64v1036q-133 0 -238.5 38t-180 102.5t-114.5 151.5t-40 187z" />
<glyph unicode="&#xb7;" horiz-adv-x="446" d="M117 829q0 41 27.5 69t68.5 28t68.5 -28t27.5 -69t-27.5 -69.5t-68.5 -28.5t-68.5 28.5t-27.5 69.5z" />
<glyph unicode="&#xb8;" horiz-adv-x="1333" d="M621 -178l38 198h56l-33 -165q20 6 35.5 10t27.5 6q14 2 21.5 2h9.5q47 0 89 -16.5t74 -45t50.5 -67.5t18.5 -84t-18.5 -84t-50.5 -68.5t-74 -46t-89 -16.5q-31 0 -67.5 11.5t-73.5 37.5l37 37q57 -37 104 -37q74 0 125 49t51 117q0 66 -51 114t-125 48 q-23 0 -54.5 -10.5t-59.5 -30.5z" />
<glyph unicode="&#xb9;" horiz-adv-x="419" d="M82 1501l199 166h53v-774h-55v717l-166 -142z" />
<glyph unicode="&#xba;" horiz-adv-x="802" d="M61 1331q0 68 27 127.5t73 105.5t107.5 72.5t132.5 26.5q70 0 132.5 -26.5t108.5 -72.5t72.5 -105.5t26.5 -127.5q0 -66 -26.5 -126t-72.5 -105t-108.5 -72t-132.5 -27q-72 0 -133 27t-107 72t-73 105.5t-27 125.5zM102 690v47h590v-47h-590zM106 1331q0 -57 23 -109.5 t62.5 -92t94 -63.5t115.5 -24t114.5 24t93.5 63.5t62.5 92t22.5 109.5t-22.5 110.5t-62.5 93.5t-93 63.5t-115 23.5q-61 0 -114.5 -23.5t-93 -63.5t-63.5 -93t-24 -111z" />
<glyph unicode="&#xbb;" horiz-adv-x="962" d="M82 262v82l287 254l-287 260v84l348 -311v-60zM532 262v82l287 254l-287 260v84l349 -311v-60z" />
<glyph unicode="&#xbc;" horiz-adv-x="1431" d="M82 1503l199 164h53v-772h-55v717l-166 -142zM254 14l555 1669l41 -41l-553 -1669zM575 246l553 502h56v-506h166v-45h-166v-195h-58v195h-499zM643 248h483v438z" />
<glyph unicode="&#xbd;" horiz-adv-x="1515" d="M82 1503l199 164h53v-772h-55v717l-166 -142zM254 14l555 1669l41 -41l-553 -1669zM698 -2v45l242 160l258 172q33 20 68 49q31 25 56.5 58.5t25.5 78.5t-29 77t-72 53.5t-94 31.5t-96 10q-70 0 -140.5 -18.5t-148.5 -61.5l-41 37q92 47 168 68.5t162 21.5 q63 0 125.5 -14t110.5 -42t78 -67t30 -90q0 -74 -50.5 -131t-156.5 -127l-408 -266h648v-45h-736z" />
<glyph unicode="&#xbe;" horiz-adv-x="1751" d="M82 971l37 35q78 -41 152.5 -57.5t146.5 -16.5q45 0 94 12t90 33.5t68.5 50.5t27.5 64q0 39 -30.5 70.5t-75.5 52t-95.5 31.5t-88.5 11h-35l-2 50h37q37 0 85 10t91 30.5t71.5 50t28.5 70.5q0 33 -24.5 63t-63.5 51.5t-88 33.5t-98 12q-59 0 -125 -19.5t-140 -62.5 l-36 37q86 49 158.5 67.5t138.5 18.5q68 0 128 -15.5t106 -43t72.5 -63.5t26.5 -79q0 -47 -47 -102t-164 -86q61 -14 104.5 -36.5t70 -48.5t39 -52t12.5 -49q0 -47 -30 -86t-79 -66t-111.5 -41t-125.5 -14q-72 0 -155 19.5t-171 64.5zM571 12l557 1669l41 -41l-553 -1669z M895 244l551 501h55v-505h168v-45h-168v-195h-55v195h-500zM963 246h483v438z" />
<glyph unicode="&#xbf;" horiz-adv-x="1503" d="M123 393q0 100 52 170t144 117q45 23 90.5 41t98.5 35q55 16 108.5 30.5t100.5 28.5q43 12 98 34.5t104.5 58.5t82 89.5t32.5 126.5v66h68v-72q0 -80 -33 -138t-88 -102t-130 -76t-157 -57q-29 -10 -62.5 -18t-70.5 -18q-41 -10 -89 -28.5t-85 -35.5q-37 -18 -72.5 -40.5 t-63.5 -53.5t-45.5 -71t-17.5 -91q0 -47 19.5 -91t50.5 -79q49 -53 116.5 -88t142.5 -56.5t150.5 -29.5t139.5 -8q147 0 285.5 38t255.5 109l53 -51q-137 -86 -287.5 -119.5t-322.5 -33.5q-111 0 -229 25.5t-215 76.5t-160.5 129t-63.5 182zM985 1581q0 37 25.5 62.5 t60.5 25.5q37 0 62.5 -25.5t25.5 -62.5t-25.5 -62.5t-62.5 -25.5q-35 0 -60.5 25.5t-25.5 62.5z" />
<glyph unicode="&#xc0;" d="M31 0l747 1638h62l749 -1638h-67l-228 496h-966l-228 -496h-69zM354 553h914l-459 1001zM580 2134h71l264 -342h-65z" />
<glyph unicode="&#xc1;" d="M31 0l747 1638h62l749 -1638h-67l-228 496h-966l-228 -496h-69zM354 553h914l-459 1001zM719 1792l264 342h72l-271 -342h-65z" />
<glyph unicode="&#xc2;" d="M31 0l747 1638h62l749 -1638h-67l-228 496h-966l-228 -496h-69zM354 553h914l-459 1001zM526 1792l252 342h56l247 -342h-53l-219 309l-227 -309h-56z" />
<glyph unicode="&#xc3;" d="M31 0l747 1638h62l749 -1638h-67l-228 496h-966l-228 -496h-69zM354 553h914l-459 1001zM465 1792q16 88 61 137t111 49q35 0 74 -13t80 -36q23 -12 44 -23.5t44 -21.5t46 -16t52 -6q53 0 80.5 34.5t38.5 79.5h55q-12 -86 -55 -136t-103 -50q-47 0 -86 15.5t-80 37.5 q-23 12 -45 22.5t-45 20.5t-48 17.5t-54 7.5q-53 0 -81 -36t-38 -83h-51z" />
<glyph unicode="&#xc4;" d="M31 0l747 1638h62l749 -1638h-67l-228 496h-966l-228 -496h-69zM354 553h914l-459 1001zM573 1868q0 31 22.5 53.5t53.5 22.5t52.5 -22.5t21.5 -53.5t-21.5 -52.5t-52.5 -21.5t-53.5 21.5t-22.5 52.5zM893 1868q0 31 21.5 53.5t52.5 22.5t52 -22.5t21 -53.5t-21.5 -52.5 t-51.5 -21.5q-31 0 -52.5 21.5t-21.5 52.5z" />
<glyph unicode="&#xc5;" d="M31 0l747 1638h62l749 -1638h-67l-228 496h-966l-228 -496h-69zM354 553h914l-459 1001zM625 1976q0 37 14 71t40 59.5t59.5 40t72.5 14.5t73 -14.5t59.5 -40t39.5 -59.5t14 -71q0 -78 -54 -131t-132 -53t-132 53t-54 131zM676 1976q0 -57 40 -96t95 -39t95 39t40 96 q0 55 -40 94t-95 39t-95 -38.5t-40 -94.5z" />
<glyph unicode="&#xc6;" horiz-adv-x="2142" d="M31 0l749 1638h1282v-57h-1202l264 -723h813v-57h-792l272 -746h645v-57q-180 0 -353 1t-353 1l-176 496h-852l-228 -496h-69zM354 553h807l-352 1001z" />
<glyph unicode="&#xc7;" horiz-adv-x="1642" d="M123 821q0 174 67.5 329t184.5 270.5t273.5 182t334.5 66.5q174 0 318.5 -60t261.5 -171l-47 -45q-104 98 -241.5 158.5t-291.5 60.5q-166 0 -310.5 -63.5t-252 -172t-169 -252t-61.5 -303.5t61.5 -303t169 -252.5t252 -173t310.5 -63.5q150 0 288 57t242 162l48 -45 q-117 -111 -266.5 -172.5t-311.5 -61.5q-23 0 -47.5 1t-46.5 3l-23 -118q16 6 32.5 9l27.5 5q14 4 21 3t9 -1q47 0 89 -16.5t73 -45t49.5 -66.5t18.5 -83t-18.5 -84t-49.5 -67.5t-72.5 -45t-89.5 -16.5q-31 0 -66.5 11.5t-72.5 39.5l37 35q59 -35 102 -35q37 0 68 13.5 t54.5 36t36.5 51t13 61.5q0 66 -50 112t-122 46q-20 0 -53 -9.5t-61 -29.5l-41 43l33 160q-152 27 -282 102.5t-225.5 187t-149.5 252t-54 297.5z" />
<glyph unicode="&#xc8;" horiz-adv-x="1478" d="M164 -2v1640h1233v-57h-1170v-723h1045v-57h-1045v-746h1170v-57h-1233z" />
<glyph unicode="&#xc9;" horiz-adv-x="1478" d="M164 -2v1640h1233v-57h-1170v-723h1045v-57h-1045v-746h1170v-57h-1233zM702 1794l265 342h71l-270 -342h-66z" />
<glyph unicode="&#xca;" horiz-adv-x="1478" d="M164 -2v1640h1233v-57h-1170v-723h1045v-57h-1045v-746h1170v-57h-1233zM524 1790l252 342h55l248 -342h-53l-221 309l-227 -309h-54z" />
<glyph unicode="&#xcb;" horiz-adv-x="1478" d="M164 -2v1640h1233v-57h-1170v-723h1045v-57h-1045v-746h1170v-57h-1233zM578 1901q0 31 21.5 53t51.5 22q31 0 52.5 -22t21.5 -53t-21.5 -52.5t-52.5 -21.5t-52 21.5t-21 52.5zM895 1901q0 31 21.5 53t52.5 22t53 -22t22 -53t-22.5 -52.5t-52.5 -21.5q-31 0 -52.5 21.5 t-21.5 52.5z" />
<glyph unicode="&#xcc;" horiz-adv-x="583" d="M92 2134h72l264 -342h-66zM164 1581v57h256v-57h-94v-1524h94v-57h-254v57h96v1524h-98z" />
<glyph unicode="&#xcd;" horiz-adv-x="583" d="M164 1581v57h256v-57h-94v-1524h94v-57h-254v57h96v1524h-98zM164 1792l264 342h72l-271 -342h-65z" />
<glyph unicode="&#xce;" horiz-adv-x="583" d="M12 1792l252 342h55l248 -342h-53l-221 309l-227 -309h-54zM164 1581v57h256v-57h-94v-1524h94v-57h-254v57h96v1524h-98z" />
<glyph unicode="&#xcf;" horiz-adv-x="583" d="M55 1898q0 31 21.5 53.5t52.5 22.5t52.5 -22.5t21.5 -53.5t-21.5 -52t-52.5 -21t-52.5 21.5t-21.5 51.5zM164 1581v57h256v-57h-94v-1524h94v-57h-254v57h96v1524h-98zM373 1898q0 31 21.5 53.5t51.5 22.5q31 0 53.5 -22.5t22.5 -53.5t-22.5 -52t-53.5 -21t-52 21.5 t-21 51.5z" />
<glyph unicode="&#xd0;" horiz-adv-x="1710" d="M20 766v55h156v817h588q170 0 319.5 -64.5t262 -175t177 -260t64.5 -317.5q0 -170 -65.5 -319.5t-177 -261t-262 -176t-320.5 -64.5h-586v766h-156zM246 57h518q156 0 293 62.5t238.5 167t159.5 242.5t58 292q0 150 -58 288t-159.5 242.5t-238.5 167t-293 62.5h-518v-760 h389v-55h-389v-709z" />
<glyph unicode="&#xd1;" horiz-adv-x="1708" d="M164 -2v1640h72l1239 -1546v1546h69v-1640h-71l-1242 1552l2 -1552h-69zM524 1792q16 88 61.5 137t110.5 49q35 0 74 -13t80 -36q23 -12 44 -23.5t44 -21.5t46.5 -16t51.5 -6q53 0 81 34.5t38 79.5h55q-12 -86 -55 -136t-102 -50q-47 0 -86 15.5t-80 37.5 q-23 12 -45.5 22.5t-44.5 20.5q-23 10 -48.5 17.5t-54.5 7.5q-53 0 -80.5 -36t-38.5 -83h-51z" />
<glyph unicode="&#xd2;" horiz-adv-x="1943" d="M123 821q0 174 66.5 329t182 270.5t270.5 182t331 66.5q174 0 328.5 -66.5t270.5 -182t182.5 -270.5t66.5 -329q0 -176 -66.5 -330.5t-182.5 -270.5t-270.5 -183.5t-328.5 -67.5q-176 0 -331 67.5t-270.5 183.5t-182 270.5t-66.5 330.5zM188 821q0 -160 61.5 -304 t168 -253.5t249 -173t306.5 -63.5q162 0 304 63.5t248.5 173t168 253.5t61.5 304t-61.5 303.5t-168 252t-248.5 172t-304 63.5q-164 0 -306.5 -63.5t-249 -172t-168 -252t-61.5 -303.5zM721 2134h70l264 -342h-66z" />
<glyph unicode="&#xd3;" horiz-adv-x="1943" d="M123 821q0 174 66.5 329t182 270.5t270.5 182t331 66.5q174 0 328.5 -66.5t270.5 -182t182.5 -270.5t66.5 -329q0 -176 -66.5 -330.5t-182.5 -270.5t-270.5 -183.5t-328.5 -67.5q-176 0 -331 67.5t-270.5 183.5t-182 270.5t-66.5 330.5zM188 821q0 -160 61.5 -304 t168 -253.5t249 -173t306.5 -63.5q162 0 304 63.5t248.5 173t168 253.5t61.5 304t-61.5 303.5t-168 252t-248.5 172t-304 63.5q-164 0 -306.5 -63.5t-249 -172t-168 -252t-61.5 -303.5zM881 1792l264 342h72l-271 -342h-65z" />
<glyph unicode="&#xd4;" horiz-adv-x="1943" d="M123 821q0 174 66.5 329t182 270.5t270.5 182t331 66.5q174 0 328.5 -66.5t270.5 -182t182.5 -270.5t66.5 -329q0 -176 -66.5 -330.5t-182.5 -270.5t-270.5 -183.5t-328.5 -67.5q-176 0 -331 67.5t-270.5 183.5t-182 270.5t-66.5 330.5zM188 821q0 -160 61.5 -304 t168 -253.5t249 -173t306.5 -63.5q162 0 304 63.5t248.5 173t168 253.5t61.5 304t-61.5 303.5t-168 252t-248.5 172t-304 63.5q-164 0 -306.5 -63.5t-249 -172t-168 -252t-61.5 -303.5zM690 1792l252 342h55l248 -342h-53l-219 309l-230 -309h-53z" />
<glyph unicode="&#xd5;" horiz-adv-x="1943" d="M123 821q0 174 66.5 329t182 270.5t270.5 182t331 66.5q174 0 328.5 -66.5t270.5 -182t182.5 -270.5t66.5 -329q0 -176 -66.5 -330.5t-182.5 -270.5t-270.5 -183.5t-328.5 -67.5q-176 0 -331 67.5t-270.5 183.5t-182 270.5t-66.5 330.5zM188 821q0 -160 61.5 -304 t168 -253.5t249 -173t306.5 -63.5q162 0 304 63.5t248.5 173t168 253.5t61.5 304t-61.5 303.5t-168 252t-248.5 172t-304 63.5q-164 0 -306.5 -63.5t-249 -172t-168 -252t-61.5 -303.5zM629 1792q16 88 61 137t111 49q35 0 73.5 -13t79.5 -36q23 -12 44.5 -23.5t43.5 -21.5 q23 -10 46.5 -16t52.5 -6q53 0 80.5 34.5t38.5 79.5h55q-12 -86 -55 -136t-103 -50q-47 0 -86 15.5t-80 37.5q-23 12 -45 22.5t-45 20.5t-48.5 17.5t-53.5 7.5q-53 0 -81 -36t-38 -83h-51z" />
<glyph unicode="&#xd6;" horiz-adv-x="1943" d="M123 821q0 174 66.5 329t182 270.5t270.5 182t331 66.5q174 0 328.5 -66.5t270.5 -182t182.5 -270.5t66.5 -329q0 -176 -66.5 -330.5t-182.5 -270.5t-270.5 -183.5t-328.5 -67.5q-176 0 -331 67.5t-270.5 183.5t-182 270.5t-66.5 330.5zM188 821q0 -160 61.5 -304 t168 -253.5t249 -173t306.5 -63.5q162 0 304 63.5t248.5 173t168 253.5t61.5 304t-61.5 303.5t-168 252t-248.5 172t-304 63.5q-164 0 -306.5 -63.5t-249 -172t-168 -252t-61.5 -303.5zM737 1868q0 31 22.5 53.5t53.5 22.5t52.5 -22.5t21.5 -53.5t-21.5 -52.5t-52.5 -21.5 t-53.5 21.5t-22.5 52.5zM1057 1868q0 31 21.5 53.5t51.5 22.5q31 0 52.5 -22.5t21.5 -53.5t-21.5 -52.5t-52.5 -21.5t-52 21.5t-21 52.5z" />
<glyph unicode="&#xd7;" horiz-adv-x="1222" d="M180 383l391 387l-391 385l41 41l389 -387l391 387l41 -41l-389 -385l389 -387l-41 -41l-391 387l-389 -387z" />
<glyph unicode="&#xd8;" horiz-adv-x="1943" d="M123 821q0 174 66.5 329t182 270.5t270.5 182t331 66.5q193 0 364 -82l125 234l41 -45l-114 -215q100 -57 180 -137.5t136 -176.5t86 -204.5t30 -223.5q0 -176 -66.5 -330.5t-182.5 -269.5t-270.5 -182.5t-328.5 -67.5q-104 0 -199.5 23.5t-187.5 68.5l-127 -237l-43 43 l121 223q-96 57 -173 137t-130.5 174.5t-82 201t-28.5 218.5zM188 819q0 -100 28 -197.5t78 -184.5t118.5 -160.5t152.5 -129.5l742 1385q-80 35 -164 55.5t-170 20.5q-160 0 -303.5 -63.5t-250 -171t-169 -251t-62.5 -303.5zM616 119q86 -41 174.5 -64.5t182.5 -23.5 q160 0 302 63.5t248.5 171t169 251.5t62.5 304q0 104 -29.5 203.5t-82 189t-125 163t-160.5 126.5z" />
<glyph unicode="&#xd9;" horiz-adv-x="1728" d="M164 668v970h61v-979q0 -131 50.5 -245.5t138.5 -200.5t203.5 -136t248.5 -50q131 0 247 49t203 135t137 200.5t50 243.5v983h62v-968q0 -145 -54.5 -272.5t-148.5 -222.5t-221 -150.5t-275 -55.5q-147 0 -275 55.5t-223.5 149.5t-149.5 221t-54 273zM631 2136h69 l265 -342h-66z" />
<glyph unicode="&#xda;" horiz-adv-x="1728" d="M164 668v970h61v-979q0 -131 50.5 -245.5t138.5 -200.5t203.5 -136t248.5 -50q131 0 247 49t203 135t137 200.5t50 243.5v983h62v-968q0 -145 -54.5 -272.5t-148.5 -222.5t-221 -150.5t-275 -55.5q-147 0 -275 55.5t-223.5 149.5t-149.5 221t-54 273zM758 1792l264 342 h72l-271 -342h-65z" />
<glyph unicode="&#xdb;" horiz-adv-x="1728" d="M164 668v970h61v-979q0 -131 50.5 -245.5t138.5 -200.5t203.5 -136t248.5 -50q131 0 247 49t203 135t137 200.5t50 243.5v983h62v-968q0 -145 -54.5 -272.5t-148.5 -222.5t-221 -150.5t-275 -55.5q-147 0 -275 55.5t-223.5 149.5t-149.5 221t-54 273zM584 1790l252 342 h55l248 -342h-54l-219 309l-229 -309h-53z" />
<glyph unicode="&#xdc;" horiz-adv-x="1728" d="M164 668v970h61v-979q0 -131 50.5 -245.5t138.5 -200.5t203.5 -136t248.5 -50q131 0 247 49t203 135t137 200.5t50 243.5v983h62v-968q0 -145 -54.5 -272.5t-148.5 -222.5t-221 -150.5t-275 -55.5q-147 0 -275 55.5t-223.5 149.5t-149.5 221t-54 273zM647 1868 q0 31 22.5 53.5t53.5 22.5t52.5 -22.5t21.5 -53.5t-21.5 -52.5t-52.5 -21.5t-53.5 21.5t-22.5 52.5zM967 1868q0 31 21.5 53.5t51.5 22.5q31 0 52.5 -22.5t21.5 -53.5t-21.5 -52.5t-52.5 -21.5t-52 21.5t-21 52.5z" />
<glyph unicode="&#xdd;" horiz-adv-x="1474" d="M20 1638h76l641 -866l637 866h80l-686 -925v-713h-61v713zM631 1794l264 342h72l-271 -342h-65z" />
<glyph unicode="&#xde;" horiz-adv-x="1513" d="M164 -2v1640h63v-335h727q102 0 193.5 -39t159 -104.5t106.5 -155t39 -189.5t-39 -189t-106.5 -154.5t-158.5 -104.5t-194 -39h-727v-330h-63zM227 385h719q90 0 170 34t140.5 92t95 136t34.5 168q0 88 -33.5 166t-93 136.5t-139.5 93t-170 34.5h-723v-860z" />
<glyph unicode="&#xdf;" horiz-adv-x="1374" d="M164 2v1311q0 102 40 187t107.5 145.5t156.5 93.5t187 33q92 0 180.5 -37t156 -100.5t108.5 -150.5t41 -186q0 -63 -16.5 -122.5t-48.5 -111.5t-77 -94t-102 -69q174 -39 274.5 -159t100.5 -300q0 -102 -40 -189t-108.5 -150.5t-159 -99.5t-188.5 -36q-82 0 -158.5 14.5 t-150.5 49.5v65q68 -37 149.5 -56.5t159.5 -19.5q86 0 164 33t137.5 89.5t94 133t34.5 164.5q0 100 -38 178t-102.5 131.5t-149.5 80t-179 26.5h-268v53l197 -2q86 0 161.5 28t132 78t89 121.5t32.5 161.5q0 86 -35.5 163t-95 134.5t-137.5 91t-160 33.5q-92 0 -169.5 -30.5 t-134 -86t-89.5 -133t-33 -170.5v-1296h-63z" />
<glyph unicode="&#xe0;" d="M102 649q0 141 53.5 265t145.5 216.5t216 145.5t265 53q82 0 170 -22.5t170 -69.5t154 -122t121 -179v360h59v-1294h-59v363q-53 -109 -126 -185t-155 -123t-168 -67.5t-166 -20.5q-141 0 -265 53.5t-216 145.5t-145.5 216t-53.5 265zM162 649q0 -125 49 -238.5 t133 -200.5t196.5 -138.5t241.5 -51.5t241 51.5t196 138.5t132 200.5t48 238.5t-48 240t-132 201t-197 137t-240 51t-240.5 -51t-197.5 -137t-133 -201t-49 -240zM565 1798h72l262 -342h-63z" />
<glyph unicode="&#xe1;" d="M102 649q0 141 53.5 265t145.5 216.5t216 145.5t265 53q82 0 170 -22.5t170 -69.5t154 -122t121 -179v360h59v-1294h-59v363q-53 -109 -126 -185t-155 -123t-168 -67.5t-166 -20.5q-141 0 -265 53.5t-216 145.5t-145.5 216t-53.5 265zM162 649q0 -125 49 -238.5 t133 -200.5t196.5 -138.5t241.5 -51.5t241 51.5t196 138.5t132 200.5t48 238.5t-48 240t-132 201t-197 137t-240 51t-240.5 -51t-197.5 -137t-133 -201t-49 -240zM719 1456l264 342h72l-271 -342h-65z" />
<glyph unicode="&#xe2;" d="M102 649q0 141 53.5 265t145.5 216.5t216 145.5t265 53q82 0 170 -22.5t170 -69.5t154 -122t121 -179v360h59v-1294h-59v363q-53 -109 -126 -185t-155 -123t-168 -67.5t-166 -20.5q-141 0 -265 53.5t-216 145.5t-145.5 216t-53.5 265zM162 649q0 -125 49 -238.5 t133 -200.5t196.5 -138.5t241.5 -51.5t241 51.5t196 138.5t132 200.5t48 238.5t-48 240t-132 201t-197 137t-240 51t-240.5 -51t-197.5 -137t-133 -201t-49 -240zM526 1454l252 342h56l247 -342h-53l-219 309l-229 -309h-54z" />
<glyph unicode="&#xe3;" d="M102 649q0 141 53.5 265t145.5 216.5t216 145.5t265 53q82 0 170 -22.5t170 -69.5t154 -122t121 -179v360h59v-1294h-59v363q-53 -109 -126 -185t-155 -123t-168 -67.5t-166 -20.5q-141 0 -265 53.5t-216 145.5t-145.5 216t-53.5 265zM162 649q0 -125 49 -238.5 t133 -200.5t196.5 -138.5t241.5 -51.5t241 51.5t196 138.5t132 200.5t48 238.5t-48 240t-132 201t-197 137t-240 51t-240.5 -51t-197.5 -137t-133 -201t-49 -240zM465 1452q16 88 60 137t110 49q37 0 75 -13t78 -36q23 -12 44.5 -23.5t44.5 -21.5t47 -16t53 -6 q53 0 79.5 34.5t37.5 79.5h55q-12 -86 -54 -136t-104 -50q-47 0 -86 15.5t-80 37.5q-23 12 -44 22.5t-44 20.5q-25 10 -49 17.5t-55 7.5q-53 0 -80 -36t-37 -83h-51z" />
<glyph unicode="&#xe4;" d="M102 649q0 141 53.5 265t145.5 216.5t216 145.5t265 53q82 0 170 -22.5t170 -69.5t154 -122t121 -179v360h59v-1294h-59v363q-53 -109 -126 -185t-155 -123t-168 -67.5t-166 -20.5q-141 0 -265 53.5t-216 145.5t-145.5 216t-53.5 265zM162 649q0 -125 49 -238.5 t133 -200.5t196.5 -138.5t241.5 -51.5t241 51.5t196 138.5t132 200.5t48 238.5t-48 240t-132 201t-197 137t-240 51t-240.5 -51t-197.5 -137t-133 -201t-49 -240zM549 1528q0 31 22.5 52.5t53.5 21.5t52 -21.5t21 -52.5t-21.5 -52.5t-51.5 -21.5q-31 0 -53.5 21.5 t-22.5 52.5zM866 1528q0 31 22.5 52.5t53.5 21.5t52.5 -21.5t21.5 -52.5t-21.5 -52.5t-52.5 -21.5t-53.5 21.5t-22.5 52.5z" />
<glyph unicode="&#xe5;" d="M102 649q0 141 53.5 265t145.5 216.5t216 145.5t265 53q82 0 170 -22.5t170 -69.5t154 -122t121 -179v360h59v-1294h-59v363q-53 -109 -126 -185t-155 -123t-168 -67.5t-166 -20.5q-141 0 -265 53.5t-216 145.5t-145.5 216t-53.5 265zM162 649q0 -125 49 -238.5 t133 -200.5t196.5 -138.5t241.5 -51.5t241 51.5t196 138.5t132 200.5t48 238.5t-48 240t-132 201t-197 137t-240 51t-240.5 -51t-197.5 -137t-133 -201t-49 -240zM610 1638q0 37 14.5 71t40 59.5t59.5 40t73 14.5t72.5 -14.5t59 -40t40 -59.5t14.5 -71q0 -78 -54.5 -131 t-131.5 -53q-78 0 -132.5 53.5t-54.5 130.5zM662 1638q0 -57 39.5 -96t95.5 -39q55 0 95 39t40 96q0 55 -40 94.5t-95 39.5t-95 -39t-40 -95z" />
<glyph unicode="&#xe6;" horiz-adv-x="2709" d="M102 649q0 141 51.5 265t139.5 216.5t205.5 145.5t253.5 53q80 0 163.5 -21.5t162.5 -71.5t147.5 -132t115.5 -205v397h62v-325q37 80 93 145.5t128 112.5t157 73.5t177 26.5q135 0 254 -53t207 -146q86 -92 137 -215t51 -264v-22h-1233q10 -139 60.5 -252t129 -192 t180 -122t214.5 -43q111 0 204 40t169 112l43 -45q-86 -74 -191.5 -116t-224.5 -42q-76 0 -154 17.5t-150.5 59.5t-137 108.5t-113.5 164.5v-317h-62v401q-43 -113 -105 -194.5t-138 -135t-164 -79t-182 -25.5q-135 0 -253 53.5t-206 145.5t-139.5 216t-51.5 265zM164 649 q0 -125 46 -238.5t125 -200.5t186.5 -138.5t230.5 -51.5t230.5 51.5t187 138.5t124.5 200.5t45 238.5t-46 240t-124.5 201t-186.5 137t-230 51q-123 0 -229.5 -51t-186.5 -137t-126 -201t-46 -240zM1374 676h1174q-4 223 -166 411q-80 92 -189.5 141.5t-234.5 49.5 q-111 0 -212 -44t-181 -124t-131.5 -190.5t-59.5 -243.5z" />
<glyph unicode="&#xe7;" horiz-adv-x="1333" d="M102 649q0 141 53.5 265t145.5 216.5t218 145.5t274 53q137 0 257.5 -54t221.5 -155l-43 -41q-86 92 -200 145.5t-236 53.5q-133 0 -249 -51t-200 -137t-132 -201t-48 -240t48 -238.5t132 -200.5t198.5 -138.5t250.5 -51.5q57 0 119.5 15.5t121 42t109.5 64.5t86 83 l43 -43q-45 -51 -101.5 -91t-119 -66.5t-129 -41t-129.5 -14.5q-45 0 -88 6l-23 -120q20 6 35.5 10t27.5 6q14 2 21.5 2h9.5q47 0 89 -16.5t74 -45t50.5 -67.5t18.5 -84t-18.5 -84t-50.5 -68.5t-74 -46t-89 -16.5q-31 0 -67.5 11.5t-73.5 37.5l39 35q53 -35 102 -35 q74 0 125 49t51 117q0 66 -51 114t-125 48q-23 0 -54.5 -10.5t-59.5 -30.5l-41 41l32 162q-121 23 -222 83t-174 149t-114 199.5t-41 233.5z" />
<glyph unicode="&#xe8;" horiz-adv-x="1562" d="M102 649q0 141 53.5 265t145.5 216.5t216 145.5t265 53t264 -54t215.5 -147.5t145.5 -216.5t53 -260v-24h-1298q8 -123 58 -233.5t133 -193.5t192.5 -131.5t236.5 -48.5q111 0 209.5 39t184.5 109l41 -41q-92 -76 -204 -117t-231 -41q-141 0 -265 54.5t-216 146.5 t-145.5 216t-53.5 263zM162 676h1239q-8 123 -58.5 232.5t-133.5 191.5t-192.5 130t-234.5 48q-127 0 -236.5 -49t-193.5 -132t-134 -192.5t-56 -228.5zM545 1798h71l263 -342h-64z" />
<glyph unicode="&#xe9;" horiz-adv-x="1562" d="M102 649q0 141 53.5 265t145.5 216.5t216 145.5t265 53t264 -54t215.5 -147.5t145.5 -216.5t53 -260v-24h-1298q8 -123 58 -233.5t133 -193.5t192.5 -131.5t236.5 -48.5q111 0 209.5 39t184.5 109l41 -41q-92 -76 -204 -117t-231 -41q-141 0 -265 54.5t-216 146.5 t-145.5 216t-53.5 263zM162 676h1239q-8 123 -58.5 232.5t-133.5 191.5t-192.5 130t-234.5 48q-127 0 -236.5 -49t-193.5 -132t-134 -192.5t-56 -228.5zM694 1456l264 342h72l-270 -342h-66z" />
<glyph unicode="&#xea;" horiz-adv-x="1562" d="M102 649q0 141 53.5 265t145.5 216.5t216 145.5t265 53t264 -54t215.5 -147.5t145.5 -216.5t53 -260v-24h-1298q8 -123 58 -233.5t133 -193.5t192.5 -131.5t236.5 -48.5q111 0 209.5 39t184.5 109l41 -41q-92 -76 -204 -117t-231 -41q-141 0 -265 54.5t-216 146.5 t-145.5 216t-53.5 263zM162 676h1239q-8 123 -58.5 232.5t-133.5 191.5t-192.5 130t-234.5 48q-127 0 -236.5 -49t-193.5 -132t-134 -192.5t-56 -228.5zM500 1454l252 342h55l248 -342h-54l-219 309l-229 -309h-53z" />
<glyph unicode="&#xeb;" horiz-adv-x="1562" d="M102 649q0 141 53.5 265t145.5 216.5t216 145.5t265 53t264 -54t215.5 -147.5t145.5 -216.5t53 -260v-24h-1298q8 -123 58 -233.5t133 -193.5t192.5 -131.5t236.5 -48.5q111 0 209.5 39t184.5 109l41 -41q-92 -76 -204 -117t-231 -41q-141 0 -265 54.5t-216 146.5 t-145.5 216t-53.5 263zM162 676h1239q-8 123 -58.5 232.5t-133.5 191.5t-192.5 130t-234.5 48q-127 0 -236.5 -49t-193.5 -132t-134 -192.5t-56 -228.5zM553 1528q0 31 22.5 52.5t53.5 21.5t52 -21.5t21 -52.5t-21.5 -52.5t-51.5 -21.5q-31 0 -53.5 21.5t-22.5 52.5z M870 1528q0 31 22.5 52.5t53.5 21.5t52.5 -21.5t21.5 -52.5t-21.5 -52.5t-52.5 -21.5t-53.5 21.5t-22.5 52.5z" />
<glyph unicode="&#xec;" horiz-adv-x="442" d="M-33 1798h72l262 -342h-63zM100 1243v53h158v-1296h-63v1243h-95z" />
<glyph unicode="&#xed;" horiz-adv-x="442" d="M70 1456l264 342h72l-271 -342h-65zM100 1243v53h158v-1296h-63v1243h-95z" />
<glyph unicode="&#xee;" horiz-adv-x="442" d="M-82 1454l252 342h55l248 -342h-53l-219 309l-230 -309h-53zM100 1243v53h158v-1296h-63v1243h-95z" />
<glyph unicode="&#xef;" horiz-adv-x="442" d="M-31 1528q0 31 22.5 53.5t53.5 22.5t52.5 -22.5t21.5 -53.5t-21.5 -52.5t-52.5 -21.5t-53.5 21.5t-22.5 52.5zM100 1243v53h158v-1296h-63v1243h-95zM289 1528q0 31 21.5 53.5t51.5 22.5q31 0 52.5 -22.5t21.5 -53.5t-21.5 -52.5t-52.5 -21.5t-52 21.5t-21 52.5z" />
<glyph unicode="&#xf0;" horiz-adv-x="1562" d="M102 633q0 137 53.5 261t145.5 217t216 147.5t265 54.5q59 0 141.5 -14.5t155.5 -45.5l-264 349l-145 -99l-25 37l146 96l-103 136h78l76 -101l151 103l27 -37l-154 -103l467 -612q51 -66 89 -157t38 -232q0 -137 -53 -258t-145.5 -211t-215 -142.5t-264.5 -52.5 q-141 0 -265 52.5t-216 142.5t-145.5 211t-53.5 258zM166 641q0 -123 48 -233.5t132 -195.5t195.5 -135t240.5 -50q127 0 240 50t195.5 135t131 195.5t48.5 233.5t-48.5 234.5t-131 196.5t-195.5 135t-240 50t-239.5 -50t-196.5 -135t-132 -196.5t-48 -234.5z" />
<glyph unicode="&#xf1;" horiz-adv-x="1501" d="M164 0v1296h61v-280q41 74 99.5 132t129 98t149.5 61.5t161 21.5q125 0 232.5 -43t185.5 -121t122 -184.5t44 -235.5v-745h-62v739q0 125 -42 224.5t-113.5 169t-167 107.5t-201.5 38q-104 0 -200.5 -42t-171.5 -112.5t-120 -164t-45 -197.5v-762h-61zM418 1452 q16 88 60 137t110 49q37 0 74.5 -13t78.5 -36q23 -12 44.5 -23.5t43.5 -21.5q23 -10 47.5 -16t53.5 -6q53 0 79.5 34.5t37.5 79.5h55q-12 -86 -54 -136t-104 -50q-47 0 -86 15.5t-80 37.5q-23 12 -44 22.5t-44 20.5q-25 10 -49.5 17.5t-54.5 7.5q-53 0 -80 -36t-37 -83h-51z " />
<glyph unicode="&#xf2;" horiz-adv-x="1562" d="M102 649q0 141 53.5 265t145.5 216.5t216 145.5t265 53t264 -53t215.5 -145.5t145.5 -216.5t53 -265t-53 -265t-145.5 -216t-215 -145.5t-264.5 -53.5q-141 0 -265 53.5t-216 145.5t-145.5 216t-53.5 265zM162 649q0 -125 49 -238.5t133 -200.5t196.5 -138.5t241.5 -51.5 q127 0 240 51.5t197 138.5t133 200.5t49 238.5t-49 240t-133 201t-197 137t-240 51t-240.5 -51t-197.5 -137t-133 -201t-49 -240zM522 1798h72l262 -342h-63z" />
<glyph unicode="&#xf3;" horiz-adv-x="1562" d="M102 649q0 141 53.5 265t145.5 216.5t216 145.5t265 53t264 -53t215.5 -145.5t145.5 -216.5t53 -265t-53 -265t-145.5 -216t-215 -145.5t-264.5 -53.5q-141 0 -265 53.5t-216 145.5t-145.5 216t-53.5 265zM162 649q0 -125 49 -238.5t133 -200.5t196.5 -138.5t241.5 -51.5 q127 0 240 51.5t197 138.5t133 200.5t49 238.5t-49 240t-133 201t-197 137t-240 51t-240.5 -51t-197.5 -137t-133 -201t-49 -240zM676 1456l264 342h72l-271 -342h-65z" />
<glyph unicode="&#xf4;" horiz-adv-x="1562" d="M102 649q0 141 53.5 265t145.5 216.5t216 145.5t265 53t264 -53t215.5 -145.5t145.5 -216.5t53 -265t-53 -265t-145.5 -216t-215 -145.5t-264.5 -53.5q-141 0 -265 53.5t-216 145.5t-145.5 216t-53.5 265zM162 649q0 -125 49 -238.5t133 -200.5t196.5 -138.5t241.5 -51.5 q127 0 240 51.5t197 138.5t133 200.5t49 238.5t-49 240t-133 201t-197 137t-240 51t-240.5 -51t-197.5 -137t-133 -201t-49 -240zM500 1454l252 342h55l248 -342h-54l-219 309l-229 -309h-53z" />
<glyph unicode="&#xf5;" horiz-adv-x="1562" d="M102 649q0 141 53.5 265t145.5 216.5t216 145.5t265 53t264 -53t215.5 -145.5t145.5 -216.5t53 -265t-53 -265t-145.5 -216t-215 -145.5t-264.5 -53.5q-141 0 -265 53.5t-216 145.5t-145.5 216t-53.5 265zM162 649q0 -125 49 -238.5t133 -200.5t196.5 -138.5t241.5 -51.5 q127 0 240 51.5t197 138.5t133 200.5t49 238.5t-49 240t-133 201t-197 137t-240 51t-240.5 -51t-197.5 -137t-133 -201t-49 -240zM436 1452q16 88 60.5 137t109.5 49q37 0 75 -13t79 -36q23 -12 44 -23.5t44 -21.5t47.5 -16t52.5 -6q53 0 80 34.5t37 79.5h55 q-12 -86 -54 -136t-103 -50q-47 0 -86 15.5t-80 37.5q-23 12 -44.5 22.5t-43.5 20.5q-25 10 -49.5 17.5t-55.5 7.5q-53 0 -79.5 -36t-37.5 -83h-51z" />
<glyph unicode="&#xf6;" horiz-adv-x="1562" d="M102 649q0 141 53.5 265t145.5 216.5t216 145.5t265 53t264 -53t215.5 -145.5t145.5 -216.5t53 -265t-53 -265t-145.5 -216t-215 -145.5t-264.5 -53.5q-141 0 -265 53.5t-216 145.5t-145.5 216t-53.5 265zM162 649q0 -125 49 -238.5t133 -200.5t196.5 -138.5t241.5 -51.5 q127 0 240 51.5t197 138.5t133 200.5t49 238.5t-49 240t-133 201t-197 137t-240 51t-240.5 -51t-197.5 -137t-133 -201t-49 -240zM547 1528q0 31 21.5 53.5t52.5 22.5t52 -22.5t21 -53.5t-21.5 -52.5t-51.5 -21.5q-31 0 -52.5 21.5t-21.5 52.5zM864 1528q0 31 21.5 53.5 t52.5 22.5t53.5 -22.5t22.5 -53.5t-22.5 -52.5t-53.5 -21.5t-52.5 21.5t-21.5 52.5z" />
<glyph unicode="&#xf7;" horiz-adv-x="1302" d="M82 713v57h1139v-57h-1139zM555 406q0 41 27.5 68.5t68.5 27.5t69 -27.5t28 -68.5t-28 -69t-69 -28t-68.5 28t-27.5 69zM555 1061q0 41 27.5 68.5t68.5 27.5t69 -27.5t28 -68.5t-28 -68.5t-69 -27.5t-68.5 27.5t-27.5 68.5z" />
<glyph unicode="&#xf8;" horiz-adv-x="1562" d="M102 649q0 141 53.5 265t145.5 216.5t216 145.5t265 53q162 0 301 -72l121 226l39 -41l-113 -209q150 -92 240 -245t90 -339q0 -141 -53 -265t-145.5 -216t-215 -145.5t-264.5 -53.5q-80 0 -155.5 17.5t-141.5 50.5l-118 -219l-39 37l110 208q-76 43 -137 104.5 t-105 137.5t-69 163t-25 181zM162 649q0 -170 83 -310t220 -226l592 1097q-61 33 -131 50.5t-144 17.5q-127 0 -240.5 -51t-197.5 -137t-133 -201t-49 -240zM510 86q61 -31 130 -48.5t142 -17.5q127 0 240 51.5t197 138.5t133 200.5t49 238.5q0 82 -21.5 161t-60.5 147.5 t-93.5 126t-121.5 100.5z" />
<glyph unicode="&#xf9;" horiz-adv-x="1501" d="M154 559v739h61v-739q0 -125 45 -224t119 -169t169 -108t197 -38q100 0 196.5 40t170.5 110t119 163t45 202v763h61v-1296h-61l2 279q-43 -74 -102.5 -131.5t-130 -97.5t-147.5 -61.5t-153 -21.5q-129 0 -237.5 41t-187 118t-122.5 186.5t-44 244.5zM524 1798h72 l262 -342h-63z" />
<glyph unicode="&#xfa;" horiz-adv-x="1501" d="M154 559v739h61v-739q0 -125 45 -224t119 -169t169 -108t197 -38q100 0 196.5 40t170.5 110t119 163t45 202v763h61v-1296h-61l2 279q-43 -74 -102.5 -131.5t-130 -97.5t-147.5 -61.5t-153 -21.5q-129 0 -237.5 41t-187 118t-122.5 186.5t-44 244.5zM649 1456l264 342h72 l-270 -342h-66z" />
<glyph unicode="&#xfb;" horiz-adv-x="1501" d="M154 559v739h61v-739q0 -125 45 -224t119 -169t169 -108t197 -38q100 0 196.5 40t170.5 110t119 163t45 202v763h61v-1296h-61l2 279q-43 -74 -102.5 -131.5t-130 -97.5t-147.5 -61.5t-153 -21.5q-129 0 -237.5 41t-187 118t-122.5 186.5t-44 244.5zM475 1454l252 342h55 l248 -342h-53l-219 309l-230 -309h-53z" />
<glyph unicode="&#xfc;" horiz-adv-x="1501" d="M154 559v739h61v-739q0 -125 45 -224t119 -169t169 -108t197 -38q100 0 196.5 40t170.5 110t119 163t45 202v763h61v-1296h-61l2 279q-43 -74 -102.5 -131.5t-130 -97.5t-147.5 -61.5t-153 -21.5q-129 0 -237.5 41t-187 118t-122.5 186.5t-44 244.5zM518 1528 q0 31 21.5 53.5t52.5 22.5t52.5 -22.5t21.5 -53.5t-21.5 -52.5t-52.5 -21.5t-52.5 21.5t-21.5 52.5zM836 1528q0 31 21.5 53.5t51.5 22.5q31 0 53.5 -22.5t22.5 -53.5t-22.5 -52.5t-53.5 -21.5t-52 21.5t-21 52.5z" />
<glyph unicode="&#xfd;" horiz-adv-x="1306" d="M20 1298h76l549 -1175l567 1175h74l-846 -1753h-71l245 508zM567 1456l264 342h72l-270 -342h-66z" />
<glyph unicode="&#xfe;" d="M164 -453v2122h59v-760q53 115 127 194t157 127t168 69.5t163 21.5q141 0 265 -55.5t216 -149.5t145.5 -218t53.5 -259t-53.5 -256t-145.5 -211t-216 -142.5t-265 -52.5q-78 0 -162 19.5t-165 64.5t-154.5 120t-133.5 186v-820h-59zM223 639q0 -123 48 -233.5t132 -194.5 t196 -133t239 -49t239.5 49t196.5 133t132 194.5t48 233.5q0 121 -48 234.5t-132 200.5t-195.5 140.5t-240.5 53.5q-127 0 -240 -53.5t-196 -140.5t-131 -200.5t-48 -234.5z" />
<glyph unicode="&#xff;" horiz-adv-x="1306" d="M20 1298h76l549 -1175l567 1175h74l-846 -1753h-71l245 508zM422 1559q0 31 22.5 53t53.5 22t52 -22t21 -53t-21.5 -52.5t-51.5 -21.5q-31 0 -53.5 21.5t-22.5 52.5zM741 1559q0 31 21.5 53t52.5 22t52.5 -22t21.5 -53t-21.5 -52.5t-52.5 -21.5t-52.5 21.5t-21.5 52.5z " />
<glyph unicode="&#x152;" horiz-adv-x="2859" d="M123 821q0 176 64.5 331t177 269.5t263 181t320.5 66.5q78 0 167 -19.5t177 -60.5t169 -106.5t143 -157.5v311h1173v-57h-1108v-344q41 -80 66.5 -166t40.5 -211h882v-57h-882q-10 -133 -36 -222.5t-71 -172.5v-347h1108v-57h-1173v309q-137 -188 -304 -266t-352 -76 q-170 2 -320.5 69.5t-263 182.5t-177 269.5t-64.5 330.5zM186 821q0 -160 59.5 -304t163 -253.5t243 -173t296.5 -63.5q160 0 298 63.5t241.5 173t163 253.5t59.5 304t-59.5 303.5t-163 252t-242.5 172t-297 63.5t-296 -63.5t-241.5 -172t-164 -252t-60.5 -303.5z" />
<glyph unicode="&#x153;" horiz-adv-x="2732" d="M102 649q0 141 51.5 265t139.5 216.5t205.5 145.5t253.5 53q96 0 190 -30.5t175 -89t145.5 -145.5t99.5 -200q39 117 103.5 205t146.5 145.5t176 86t192 28.5q135 0 254 -53t207 -146q86 -92 137.5 -215t51.5 -264v-22h-1244q12 -131 64.5 -243t132.5 -192.5t182.5 -127 t214.5 -46.5q111 0 206 41t173 107l37 -41q-86 -74 -191.5 -116t-224.5 -42q-94 0 -187 30t-175 89t-147.5 148.5t-104.5 207.5q-39 -115 -104.5 -203.5t-147.5 -149t-175 -91.5t-187 -31q-135 0 -253 53.5t-206 145.5t-139.5 216t-51.5 265zM164 649q0 -125 46 -238.5 t125 -200.5t186.5 -138.5t230.5 -51.5t230.5 51.5t187 138.5t124.5 200.5t45 238.5t-46 240t-124.5 201t-186.5 137t-230 51q-123 0 -229.5 -51t-186.5 -137t-126 -201t-46 -240zM1386 676h1188q-8 123 -48 220t-122 191q-80 92 -189.5 141.5t-234.5 49.5q-127 0 -232.5 -49 t-184 -132t-124.5 -192.5t-53 -228.5z" />
<glyph unicode="&#x178;" horiz-adv-x="1474" d="M20 1638h76l641 -866l637 866h80l-686 -925v-713h-61v713zM508 1868q0 31 21.5 53.5t52.5 22.5t52 -22.5t21 -53.5t-21.5 -52.5t-51.5 -21.5q-31 0 -52.5 21.5t-21.5 52.5zM825 1868q0 31 21.5 53.5t52.5 22.5t53.5 -22.5t22.5 -53.5t-22.5 -52.5t-53.5 -21.5t-52.5 21.5 t-21.5 52.5z" />
<glyph unicode="&#x2c6;" horiz-adv-x="1392" d="M406 1454l251 342h56l248 -342h-54l-219 309l-229 -309h-53z" />
<glyph unicode="&#x2dc;" horiz-adv-x="1501" d="M418 1452q16 88 60 137t110 49q37 0 74.5 -13t78.5 -36q23 -12 44.5 -23.5t43.5 -21.5q23 -10 47.5 -16t53.5 -6q53 0 79.5 34.5t37.5 79.5h55q-12 -86 -54 -136t-104 -50q-47 0 -86 15.5t-80 37.5q-23 12 -44 22.5t-44 20.5q-25 10 -49.5 17.5t-54.5 7.5q-53 0 -80 -36 t-37 -83h-51z" />
<glyph unicode="&#x2000;" horiz-adv-x="1080" />
<glyph unicode="&#x2001;" horiz-adv-x="2161" />
<glyph unicode="&#x2002;" horiz-adv-x="1080" />
<glyph unicode="&#x2003;" horiz-adv-x="2161" />
<glyph unicode="&#x2004;" horiz-adv-x="720" />
<glyph unicode="&#x2005;" horiz-adv-x="540" />
<glyph unicode="&#x2006;" horiz-adv-x="360" />
<glyph unicode="&#x2007;" horiz-adv-x="360" />
<glyph unicode="&#x2008;" horiz-adv-x="270" />
<glyph unicode="&#x2009;" horiz-adv-x="432" />
<glyph unicode="&#x200a;" horiz-adv-x="120" />
<glyph unicode="&#x2010;" horiz-adv-x="737" d="M20 625v57h697v-57h-697z" />
<glyph unicode="&#x2011;" horiz-adv-x="737" d="M20 625v57h697v-57h-697z" />
<glyph unicode="&#x2012;" horiz-adv-x="737" d="M20 625v57h697v-57h-697z" />
<glyph unicode="&#x2013;" horiz-adv-x="1249" d="M20 625v57h1209v-57h-1209z" />
<glyph unicode="&#x2014;" horiz-adv-x="1576" d="M20 625v57h1536v-57h-1536z" />
<glyph unicode="&#x2018;" horiz-adv-x="325" d="M20 1409q0 20 8.5 36.5t18.5 31.5l160 188l47 -37l-107 -125q29 -10 47.5 -35.5t18.5 -58.5q0 -41 -27.5 -68.5t-68.5 -27.5t-69 27.5t-28 68.5z" />
<glyph unicode="&#x2019;" horiz-adv-x="325" d="M72 1350l106 127q-29 10 -48 35.5t-19 56.5q0 41 27.5 68.5t68.5 27.5t69.5 -27.5t28.5 -68.5q0 -20 -8 -36.5t-21 -31.5l-157 -188z" />
<glyph unicode="&#x201a;" horiz-adv-x="325" d="M72 -135l106 127q-29 10 -48 35.5t-19 56.5q0 41 27.5 68.5t68.5 27.5t69.5 -27.5t28.5 -68.5q0 -20 -8 -36.5t-21 -31.5l-157 -188z" />
<glyph unicode="&#x201c;" horiz-adv-x="575" d="M20 1409q0 20 8.5 36.5t18.5 31.5l160 188l47 -37l-107 -125q29 -10 47.5 -35.5t18.5 -58.5q0 -41 -27.5 -68.5t-68.5 -27.5t-69 27.5t-28 68.5zM270 1409q0 20 8.5 36.5t20.5 31.5l158 188l47 -37l-107 -125q29 -10 48.5 -35.5t19.5 -58.5q0 -41 -27.5 -68.5 t-68.5 -27.5t-70 27.5t-29 68.5z" />
<glyph unicode="&#x201d;" horiz-adv-x="575" d="M72 1350l106 127q-29 10 -48 35.5t-19 56.5q0 41 27.5 68.5t68.5 27.5t69.5 -27.5t28.5 -68.5q0 -20 -8 -36.5t-21 -31.5l-157 -188zM322 1350l106 127q-29 10 -47.5 35.5t-18.5 56.5q0 41 28 68.5t69 27.5t68.5 -27.5t27.5 -68.5q0 -20 -8 -36.5t-19 -31.5l-159 -188z " />
<glyph unicode="&#x201e;" horiz-adv-x="575" d="M72 -135l106 127q-29 10 -48 35.5t-19 56.5q0 41 27.5 68.5t68.5 27.5t69.5 -27.5t28.5 -68.5q0 -20 -8 -36.5t-21 -31.5l-157 -188zM322 -135l106 127q-29 10 -47.5 35.5t-18.5 56.5q0 41 28 68.5t69 27.5t68.5 -27.5t27.5 -68.5q0 -20 -8 -36.5t-19 -31.5l-159 -188z " />
<glyph unicode="&#x2022;" horiz-adv-x="602" d="M0 834q0 86 56.5 142t142.5 56t142 -56t56 -142t-56 -142.5t-142 -56.5t-142.5 56.5t-56.5 142.5z" />
<glyph unicode="&#x2026;" horiz-adv-x="1196" d="M92 82q0 41 27.5 68.5t68.5 27.5t69 -27.5t28 -68.5t-28 -69.5t-69 -28.5t-68.5 28.5t-27.5 69.5zM481 82q0 41 28 68.5t69 27.5t68.5 -27.5t27.5 -68.5t-28 -69.5t-68 -28.5q-41 0 -69 28.5t-28 69.5zM870 82q0 41 28 68.5t69 27.5t68.5 -27.5t27.5 -68.5t-27.5 -69.5 t-68.5 -28.5t-69 28.5t-28 69.5z" />
<glyph unicode="&#x202f;" horiz-adv-x="432" />
<glyph unicode="&#x2039;" horiz-adv-x="512" d="M82 571v60l348 311v-84l-287 -260l287 -254v-82z" />
<glyph unicode="&#x203a;" horiz-adv-x="512" d="M82 262v82l287 254l-287 260v84l348 -311v-60z" />
<glyph unicode="&#x205f;" horiz-adv-x="540" />
<glyph unicode="&#x20ac;" horiz-adv-x="1626" d="M16 612l56 58h65q-14 66 -14 151q0 72 16 160h-123l56 57h80q37 135 115.5 251t187 201t244 132t284.5 47q174 0 318.5 -60t261.5 -171l-47 -45q-104 98 -241.5 158.5t-291.5 60.5q-137 0 -259 -44t-221.5 -121t-172 -181.5t-109.5 -227.5h881l-60 -57h-835 q-16 -88 -17 -160q0 -86 15 -151h567l-59 -58h-494q35 -123 106.5 -230.5t172 -185t223.5 -122.5t262 -45q150 0 288 57t242 162l48 -45q-117 -111 -266.5 -172.5t-311.5 -61.5q-150 0 -286 48.5t-246.5 134.5t-188.5 203.5t-112 256.5h-134z" />
<glyph unicode="&#x2122;" horiz-adv-x="1890" d="M102 1595v43h662v-43h-305v-774h-51v774h-306zM852 821v817h61l365 -508l367 508h61v-817h-51v758l-377 -526l-375 526v-758h-51z" />
<glyph unicode="&#x25fc;" horiz-adv-x="1300" d="M0 0v1300h1300v-1300h-1300z" />
<glyph unicode="&#xfb01;" horiz-adv-x="1267" d="M41 1251v45h145v134q0 70 28 132t75 108t109.5 72.5t133.5 26.5q122 1 216 -69l-46 -39q-80 49 -170 49q-59 0 -111 -21.5t-90 -60.5t-60.5 -90t-22.5 -108v-134h454v-45h-454v-1251h-62v1251h-145zM915 1249v47h175v-1296h-62v1249h-113zM942 1694q0 33 22.5 55.5 t55.5 22.5t55.5 -22.5t22.5 -55.5t-22.5 -55.5t-55.5 -22.5t-55.5 22.5t-22.5 55.5z" />
<glyph unicode="&#xfb02;" horiz-adv-x="1497" d="M41 1237v47h143v146q0 70 27 132t74 108t108.5 72.5t132.5 26.5q117 1 211 -69l-43 -39q-80 49 -168 49q-59 0 -110 -21.5t-89 -60.5t-60.5 -90t-22.5 -108v-146h448v-47h-448v-1235h-60v1235h-143zM877 1702v49h172v-1442q0 -53 19 -104t55 -92t87.5 -65.5t116.5 -24.5 q51 0 91 14t75 39l45 -41q-88 -70 -211 -70q-72 0 -133 27.5t-106.5 74t-72 109t-26.5 129.5v1397h-112z" />
</font>
</defs>
</svg>
